<svg width="122" height="122" viewBox="0 0 122 122" fill="none" xmlns="http://www.w3.org/2000/svg">
<rect width="122" height="122" rx="61" fill="white" fill-opacity="0.6"/>
<circle cx="61" cy="61" r="36" fill="white"/>
<path d="M51.1651 59.181L48.4001 56.7511L51.0001 52.2478L54.4739 53.4229C55.3984 52.6259 56.4703 51.9953 57.6431 51.5774L58.3586 48H63.5586L64.2678 51.5461C65.4656 51.96 66.5602 52.5952 67.5027 53.4027L70.9167 52.2478L73.5167 56.7511L70.8233 59.1182" stroke="#08323C" stroke-width="3" stroke-linecap="round" stroke-linejoin="round"/>
<path d="M66 64H64.5C64.5 64.8284 65.1716 65.5 66 65.5V64ZM56 64V65.5C56.8284 65.5 57.5 64.8284 57.5 64H56ZM66 65.5H68V62.5H66V65.5ZM68 65.5C69.933 65.5 71.5 67.067 71.5 69H74.5C74.5 65.4101 71.5899 62.5 68 62.5V65.5ZM71.5 69C71.5 70.933 69.933 72.5 68 72.5V75.5C71.5899 75.5 74.5 72.5899 74.5 69H71.5ZM68 72.5H54V75.5H68V72.5ZM54 72.5C52.067 72.5 50.5 70.933 50.5 69H47.5C47.5 72.5899 50.4101 75.5 54 75.5V72.5ZM50.5 69C50.5 67.067 52.067 65.5 54 65.5V62.5C50.4101 62.5 47.5 65.4101 47.5 69H50.5ZM54 65.5H56V62.5H54V65.5ZM57.5 64C57.5 62.067 59.067 60.5 61 60.5V57.5C57.4101 57.5 54.5 60.4101 54.5 64H57.5ZM61 60.5C62.933 60.5 64.5 62.067 64.5 64H67.5C67.5 60.4101 64.5899 57.5 61 57.5V60.5Z" fill="#08323C"/>
</svg>
