<svg width="32" height="32" viewBox="0 0 32 32" fill="none" xmlns="http://www.w3.org/2000/svg">
<path d="M29.0569 7.06438C29.6448 6.48065 29.6481 5.53091 29.0644 4.94307C28.4807 4.35523 27.5309 4.3519 26.9431 4.93562L29.0569 7.06438ZM13.9013 20L12.8444 21.0644C13.4293 21.6452 14.3734 21.6452 14.9583 21.0644L13.9013 20ZM11.0569 15.0616C10.4691 14.4778 9.51935 14.4812 8.93562 15.069C8.3519 15.6569 8.35523 16.6066 8.94307 17.1903L11.0569 15.0616ZM26.9431 4.93562L12.8444 18.9356L14.9583 21.0644L29.0569 7.06438L26.9431 4.93562ZM14.9583 18.9356L11.0569 15.0616L8.94307 17.1903L12.8444 21.0644L14.9583 18.9356Z" fill="#00AD4E"/>
<path d="M28.6937 13.1818C28.8943 14.0892 29 15.0323 29 16C29 23.1797 23.1797 29 16 29C8.8203 29 3 23.1797 3 16C3 8.8203 8.8203 3 16 3C18.0526 3 19.9941 3.4757 21.7202 4.32287" stroke="#00AD4E" stroke-width="3" stroke-linecap="round" stroke-linejoin="round"/>
</svg>
