<svg width="314" height="379" viewBox="0 0 314 379" fill="none" xmlns="http://www.w3.org/2000/svg">
<rect x="0.5" y="0.5" width="313" height="378" rx="9.5" fill="white"/>
<path d="M28.7 25H25.22L20.32 38.8V39H23.2L24.16 36.06H29.64L30.6 39H33.62V38.8L28.7 25ZM24.96 33.64L26.86 27.8H26.94L28.84 33.64H24.96ZM39.0858 39.18C41.6058 39.18 43.5058 38.02 43.5058 35.94C43.5058 33.88 42.1458 33.12 40.4658 32.78L38.5658 32.44C37.9058 32.3 37.5058 32.02 37.5058 31.5C37.5058 30.94 38.0858 30.56 38.9858 30.56C40.0858 30.56 40.6258 31.16 40.6258 31.88H43.2658C43.2658 29.9 41.6258 28.42 39.0258 28.42C36.3858 28.42 34.8858 29.78 34.8858 31.48C34.8858 33.4 36.2458 34.32 37.9258 34.64L39.6058 34.96C40.4258 35.12 40.8058 35.44 40.8058 35.96C40.8058 36.5 40.2658 36.92 39.0858 36.92C37.8658 36.92 37.2458 36.3 37.2458 35.5H34.5658C34.6258 37.68 36.0658 39.18 39.0858 39.18ZM49.3006 39.18C51.8206 39.18 53.7206 38.02 53.7206 35.94C53.7206 33.88 52.3606 33.12 50.6806 32.78L48.7806 32.44C48.1206 32.3 47.7206 32.02 47.7206 31.5C47.7206 30.94 48.3006 30.56 49.2006 30.56C50.3006 30.56 50.8406 31.16 50.8406 31.88H53.4806C53.4806 29.9 51.8406 28.42 49.2406 28.42C46.6006 28.42 45.1006 29.78 45.1006 31.48C45.1006 33.4 46.4606 34.32 48.1406 34.64L49.8206 34.96C50.6406 35.12 51.0206 35.44 51.0206 35.96C51.0206 36.5 50.4806 36.92 49.3006 36.92C48.0806 36.92 47.4606 36.3 47.4606 35.5H44.7806C44.8406 37.68 46.2806 39.18 49.3006 39.18ZM55.4755 27.12H58.3555V24.32H55.4755V27.12ZM55.5755 39H58.2555V28.6H55.5755V39ZM64.8769 43.76C67.7969 43.76 69.8369 42.06 69.8369 39.52V28.6H67.4369L67.1569 29.72H67.0769C66.5569 29.04 65.6969 28.42 64.2169 28.42C61.5569 28.42 59.9369 30.62 59.9369 33.82C59.9369 36.9 61.4969 39.18 64.2169 39.18C65.6969 39.18 66.5569 38.56 67.0769 37.88H67.1569V39.48C67.1569 40.6 66.4169 41.46 64.8769 41.46C63.6569 41.46 62.9369 40.8 62.8569 40.02H60.2369C60.2969 42.26 62.1169 43.76 64.8769 43.76ZM64.9569 36.82C63.2369 36.82 62.6569 35.44 62.6569 33.82C62.6569 32.18 63.2769 30.78 64.9569 30.78C66.6369 30.78 67.2569 32.18 67.2569 33.82C67.2569 35.44 66.6569 36.82 64.9569 36.82ZM72.0794 39H74.7594V33.24C74.7594 31.76 75.6194 30.86 76.8994 30.86C78.2394 30.86 78.8194 31.64 78.8194 32.94V39H81.4994V32.18C81.4994 29.88 80.0194 28.42 77.7194 28.42C76.2994 28.42 75.3394 29 74.7594 29.78H74.6794L74.4794 28.6H72.0794V39ZM89.4817 43.58H92.1617V37.88H92.2417C92.7617 38.56 93.6217 39.18 95.1217 39.18C97.8217 39.18 99.3817 36.9 99.3817 33.82C99.3817 30.62 97.7417 28.42 95.1217 28.42C93.6217 28.42 92.7617 29.04 92.2417 29.72H92.1617L91.8817 28.6H89.4817V43.58ZM94.3617 36.82C92.6617 36.82 92.0617 35.44 92.0617 33.82C92.0617 32.18 92.7017 30.78 94.3617 30.78C96.0617 30.78 96.6617 32.18 96.6617 33.82C96.6617 35.44 96.0817 36.82 94.3617 36.82ZM101.24 39H103.78V33.9C103.78 32.02 104.7 30.92 106.3 30.92H107.24V28.44H106.48C105.16 28.44 104.24 29.2 103.78 30.18H103.7L103.5 28.6H101.24V39ZM113.376 39.18C116.716 39.18 118.416 36.88 118.416 33.82C118.416 30.74 116.676 28.42 113.376 28.42C110.056 28.42 108.316 30.74 108.316 33.82C108.316 36.9 110.016 39.18 113.376 39.18ZM113.376 36.82C111.876 36.82 111.056 35.8 111.056 33.82C111.056 31.84 111.856 30.78 113.376 30.78C114.876 30.78 115.696 31.82 115.696 33.82C115.696 35.8 114.876 36.82 113.376 36.82ZM122.471 39H125.771L129.251 28.8V28.6H126.531L124.191 36.36H124.111L121.711 28.6H118.951V28.8L122.471 39ZM130.632 27.12H133.512V24.32H130.632V27.12ZM130.732 39H133.412V28.6H130.732V39ZM139.373 39.18C140.853 39.18 141.713 38.56 142.233 37.88H142.313L142.593 39H144.993V24.2H142.313V29.72H142.233C141.713 29.04 140.853 28.42 139.373 28.42C136.653 28.42 135.093 30.7 135.093 33.8C135.093 36.98 136.713 39.18 139.373 39.18ZM140.113 36.82C138.433 36.82 137.813 35.42 137.813 33.8C137.813 32.16 138.393 30.78 140.113 30.78C141.813 30.78 142.413 32.18 142.413 33.8C142.413 35.42 141.793 36.82 140.113 36.82ZM151.676 39.18C154.356 39.18 156.056 37.64 156.336 35.76H153.716C153.516 36.4 152.876 36.96 151.676 36.96C150.136 36.96 149.416 35.96 149.396 34.54H156.476V33.5C156.476 30.66 154.736 28.42 151.636 28.42C148.296 28.42 146.656 30.86 146.656 33.82C146.656 36.82 148.456 39.18 151.676 39.18ZM149.416 32.76C149.476 31.58 150.136 30.66 151.636 30.66C153.036 30.66 153.696 31.58 153.736 32.76H149.416ZM158.329 39H160.869V33.9C160.869 32.02 161.789 30.92 163.389 30.92H164.329V28.44H163.569C162.249 28.44 161.329 29.2 160.869 30.18H160.789L160.589 28.6H158.329V39Z" fill="#41484A"/>
<path d="M24.41 71.126C26.678 71.126 28.078 70.062 28.078 68.312C28.078 66.814 27.112 65.876 25.292 65.498L23.962 65.218C22.926 64.994 22.296 64.56 22.296 63.762C22.296 62.656 23.136 62.194 24.396 62.194C25.908 62.194 26.608 62.922 26.664 63.986H27.91C27.896 62.25 26.524 61.074 24.424 61.074C22.254 61.074 21.022 62.11 21.022 63.762C21.022 65.26 21.932 66.044 23.626 66.408L25.054 66.716C26.118 66.94 26.804 67.36 26.804 68.312C26.804 69.46 25.964 70.02 24.41 70.02C22.87 70.02 22.016 69.278 21.946 68.06H20.7C20.756 69.908 22.03 71.126 24.41 71.126ZM32.7937 71.126C34.3197 71.126 35.5797 70.244 35.7757 68.928H34.5997C34.4037 69.684 33.7317 70.076 32.7937 70.076C31.4637 70.076 30.7777 69.138 30.7777 67.78H35.8737V67.206C35.8737 65.218 34.7957 63.72 32.7797 63.72C30.5677 63.72 29.5457 65.358 29.5457 67.43C29.5457 69.53 30.6797 71.126 32.7937 71.126ZM30.7917 66.8C30.8337 65.68 31.4357 64.77 32.7797 64.77C34.0537 64.77 34.6557 65.666 34.6557 66.8H30.7917ZM37.8303 71H39.0063V60.64H37.8303V71ZM44.073 71.126C45.599 71.126 46.859 70.244 47.055 68.928H45.879C45.683 69.684 45.011 70.076 44.073 70.076C42.743 70.076 42.057 69.138 42.057 67.78H47.153V67.206C47.153 65.218 46.075 63.72 44.059 63.72C41.847 63.72 40.825 65.358 40.825 67.43C40.825 69.53 41.959 71.126 44.073 71.126ZM42.071 66.8C42.113 65.68 42.715 64.77 44.059 64.77C45.333 64.77 45.935 65.666 45.935 66.8H42.071ZM51.7976 71.126C53.6596 71.126 54.6116 70.104 54.7516 68.592H53.5756C53.4776 69.544 52.8476 70.09 51.7836 70.09C50.3136 70.09 49.7396 68.928 49.7396 67.43C49.7396 65.96 50.3136 64.77 51.7836 64.77C52.8196 64.77 53.4776 65.344 53.5476 66.296H54.7236C54.6256 64.854 53.7016 63.72 51.7836 63.72C49.6556 63.72 48.5496 65.204 48.5496 67.43C48.5496 69.684 49.6556 71.126 51.7976 71.126ZM59.0912 71H60.1552V69.964H59.3152C58.6712 69.964 58.3772 69.67 58.3772 68.984V64.84H60.1272V63.846H58.3772V61.928H57.2292V63.846H56.0112V64.84H57.2012V69.082C57.2012 70.272 57.6772 71 59.0912 71ZM68.6205 71H69.6845V69.964H68.8445C68.2005 69.964 67.9065 69.67 67.9065 68.984V64.84H69.6565V63.846H67.9065V61.928H66.7585V63.846H65.5405V64.84H66.7305V69.082C66.7305 70.272 67.2065 71 68.6205 71ZM71.5725 71H72.7485V67.08C72.7485 65.638 73.5045 64.77 74.6665 64.77C75.8005 64.77 76.3465 65.414 76.3465 66.534V71H77.5225V66.352C77.5225 64.714 76.5705 63.72 74.9885 63.72C73.8825 63.72 73.1825 64.238 72.8045 64.966H72.7485V60.64H71.5725V71ZM82.5867 71.126C84.1127 71.126 85.3727 70.244 85.5687 68.928H84.3927C84.1967 69.684 83.5247 70.076 82.5867 70.076C81.2567 70.076 80.5707 69.138 80.5707 67.78H85.6667V67.206C85.6667 65.218 84.5887 63.72 82.5727 63.72C80.3607 63.72 79.3387 65.358 79.3387 67.43C79.3387 69.53 80.4727 71.126 82.5867 71.126ZM80.5847 66.8C80.6267 65.68 81.2287 64.77 82.5727 64.77C83.8467 64.77 84.4487 65.666 84.4487 66.8H80.5847ZM94.4945 71.126C96.7345 71.126 97.7285 69.474 97.7285 67.43C97.7285 65.372 96.7065 63.72 94.4945 63.72C92.2825 63.72 91.2605 65.372 91.2605 67.43C91.2605 69.488 92.2545 71.126 94.4945 71.126ZM94.4945 70.076C93.0525 70.076 92.4505 68.97 92.4505 67.43C92.4505 65.904 93.0385 64.77 94.4945 64.77C95.9505 64.77 96.5385 65.89 96.5385 67.43C96.5385 68.97 95.9505 70.076 94.4945 70.076ZM99.6819 74.206H100.858V70.006H100.914C101.292 70.636 102.006 71.126 103.07 71.126C105.086 71.126 106.094 69.544 106.108 67.43C106.094 65.12 104.946 63.72 103.07 63.72C102.006 63.72 101.292 64.21 100.914 64.84H100.858L100.704 63.846H99.6819V74.206ZM102.874 70.076C101.446 70.076 100.83 68.844 100.83 67.43C100.83 66.002 101.446 64.77 102.874 64.77C104.358 64.77 104.918 65.988 104.918 67.43C104.918 68.858 104.358 70.076 102.874 70.076ZM110.443 71H111.507V69.964H110.667C110.023 69.964 109.729 69.67 109.729 68.984V64.84H111.479V63.846H109.729V61.928H108.581V63.846H107.363V64.84H108.553V69.082C108.553 70.272 109.029 71 110.443 71ZM113.325 62.362H114.641V60.99H113.325V62.362ZM113.395 71H114.571V63.846H113.395V71ZM124.789 63.72C123.585 63.72 122.857 64.238 122.479 64.966H122.423C122.045 64.182 121.303 63.72 120.267 63.72C119.161 63.72 118.503 64.238 118.125 64.966H118.069L117.971 63.846H116.949V71H118.125V67.052C118.125 65.61 118.825 64.77 119.945 64.77C121.037 64.77 121.527 65.442 121.527 66.534V71H122.703V67.052C122.703 65.61 123.375 64.77 124.495 64.77C125.587 64.77 126.077 65.442 126.077 66.534V71H127.253V66.352C127.253 64.742 126.371 63.72 124.789 63.72ZM131.569 71.126C132.577 71.126 133.375 70.72 133.809 69.992H133.865L133.949 71H134.943V66.184C134.943 64.826 133.977 63.72 132.143 63.72C130.575 63.72 129.427 64.63 129.427 66.002H130.561C130.575 65.316 131.093 64.728 132.143 64.728C133.305 64.728 133.795 65.414 133.795 66.212V66.674H132.031C129.931 66.674 129.077 67.71 129.077 68.914C129.077 70.16 130.015 71.126 131.569 71.126ZM131.779 70.146C130.743 70.146 130.267 69.614 130.267 68.9C130.267 68.06 130.869 67.612 132.031 67.612H133.795V68.228C133.795 69.264 132.997 70.146 131.779 70.146ZM137.321 71H138.497V60.64H137.321V71ZM147.439 71.126C148.979 71.126 150.267 70.37 150.267 69.054C150.267 67.822 149.581 67.29 148.237 66.982L147.117 66.772C146.333 66.646 145.87 66.324 145.87 65.764C145.87 65.064 146.473 64.714 147.341 64.714C148.237 64.714 148.909 65.12 148.951 66.03H150.099C150.099 64.602 148.951 63.72 147.341 63.72C145.759 63.72 144.736 64.574 144.736 65.764C144.736 66.814 145.381 67.528 146.557 67.766L147.985 68.032C148.755 68.2 149.077 68.578 149.077 69.054C149.077 69.74 148.447 70.076 147.439 70.076C146.417 70.076 145.689 69.586 145.689 68.634H144.513C144.555 70.202 145.745 71.126 147.439 71.126ZM154.911 71.126C156.437 71.126 157.697 70.244 157.893 68.928H156.717C156.521 69.684 155.849 70.076 154.911 70.076C153.581 70.076 152.895 69.138 152.895 67.78H157.991V67.206C157.991 65.218 156.913 63.72 154.897 63.72C152.685 63.72 151.663 65.358 151.663 67.43C151.663 69.53 152.797 71.126 154.911 71.126ZM152.909 66.8C152.951 65.68 153.553 64.77 154.897 64.77C156.171 64.77 156.773 65.666 156.773 66.8H152.909ZM159.948 71H161.124V67.528C161.124 65.848 161.74 64.896 163.098 64.896H163.658V63.762H163.014C162.132 63.762 161.418 64.252 161.124 65.05H161.068L160.97 63.846H159.948V71ZM167.237 71H168.455L171.227 63.986V63.846H170.009L167.895 69.628H167.839L165.641 63.846H164.423V63.986L167.237 71ZM172.702 62.362H174.018V60.99H172.702V62.362ZM172.772 71H173.948V63.846H172.772V71ZM179.014 71.126C180.876 71.126 181.828 70.104 181.968 68.592H180.792C180.694 69.544 180.064 70.09 179 70.09C177.53 70.09 176.956 68.928 176.956 67.43C176.956 65.96 177.53 64.77 179 64.77C180.036 64.77 180.694 65.344 180.764 66.296H181.94C181.842 64.854 180.918 63.72 179 63.72C176.872 63.72 175.766 65.204 175.766 67.43C175.766 69.684 176.872 71.126 179.014 71.126ZM186.616 71.126C188.142 71.126 189.402 70.244 189.598 68.928H188.422C188.226 69.684 187.554 70.076 186.616 70.076C185.286 70.076 184.6 69.138 184.6 67.78H189.696V67.206C189.696 65.218 188.618 63.72 186.602 63.72C184.39 63.72 183.368 65.358 183.368 67.43C183.368 69.53 184.502 71.126 186.616 71.126ZM184.614 66.8C184.656 65.68 185.258 64.77 186.602 64.77C187.876 64.77 188.478 65.666 188.478 66.8H184.614ZM195.85 74.206H197.026V70.006H197.082C197.46 70.636 198.174 71.126 199.238 71.126C201.254 71.126 202.262 69.544 202.276 67.43C202.262 65.12 201.114 63.72 199.238 63.72C198.174 63.72 197.46 64.21 197.082 64.84H197.026L196.872 63.846H195.85V74.206ZM199.042 70.076C197.614 70.076 196.998 68.844 196.998 67.43C196.998 66.002 197.614 64.77 199.042 64.77C200.526 64.77 201.086 65.988 201.086 67.43C201.086 68.858 200.526 70.076 199.042 70.076ZM204.231 71H205.407V67.528C205.407 65.848 206.023 64.896 207.381 64.896H207.941V63.762H207.297C206.415 63.762 205.701 64.252 205.407 65.05H205.351L205.253 63.846H204.231V71ZM212.086 71.126C214.326 71.126 215.32 69.474 215.32 67.43C215.32 65.372 214.298 63.72 212.086 63.72C209.874 63.72 208.852 65.372 208.852 67.43C208.852 69.488 209.846 71.126 212.086 71.126ZM212.086 70.076C210.644 70.076 210.042 68.97 210.042 67.43C210.042 65.904 210.63 64.77 212.086 64.77C213.542 64.77 214.13 65.89 214.13 67.43C214.13 68.97 213.542 70.076 212.086 70.076ZM218.903 71H220.121L222.893 63.986V63.846H221.675L219.561 69.628H219.505L217.307 63.846H216.089V63.986L218.903 71ZM224.368 62.362H225.684V60.99H224.368V62.362ZM224.438 71H225.614V63.846H224.438V71ZM230.47 71.126C231.534 71.126 232.248 70.636 232.626 70.006H232.682L232.836 71H233.858V60.64H232.682V64.84H232.626C232.248 64.21 231.534 63.72 230.47 63.72C228.454 63.72 227.446 65.302 227.432 67.416C227.446 69.726 228.594 71.126 230.47 71.126ZM230.666 70.076C229.182 70.076 228.622 68.858 228.622 67.416C228.622 65.988 229.182 64.77 230.666 64.77C232.094 64.77 232.71 66.002 232.71 67.416C232.71 68.844 232.094 70.076 230.666 70.076ZM238.925 71.126C240.451 71.126 241.711 70.244 241.907 68.928H240.731C240.535 69.684 239.863 70.076 238.925 70.076C237.595 70.076 236.909 69.138 236.909 67.78H242.005V67.206C242.005 65.218 240.927 63.72 238.911 63.72C236.699 63.72 235.677 65.358 235.677 67.43C235.677 69.53 236.811 71.126 238.925 71.126ZM236.923 66.8C236.965 65.68 237.567 64.77 238.911 64.77C240.185 64.77 240.787 65.666 240.787 66.8H236.923ZM243.961 71H245.137V67.528C245.137 65.848 245.753 64.896 247.111 64.896H247.671V63.762H247.027C246.145 63.762 245.431 64.252 245.137 65.05H245.081L244.983 63.846H243.961V71Z" fill="#7C8587"/>
<rect opacity="0.25" x="20" y="98" width="38" height="6" rx="2" fill="#575F61"/>
<rect opacity="0.25" x="220" y="98" width="74" height="6" rx="2" fill="#575F61"/>
<rect x="20.5" y="124.5" width="273" height="48.0577" rx="7.5" fill="white"/>
<path d="M40.1321 151.542C40.1321 150.448 41.0186 149.562 42.1121 149.562H58.2105C61.3485 149.562 63.8923 152.105 63.8923 155.243V155.243C63.8923 158.381 61.3485 160.925 58.2105 160.925H42.1121C41.0186 160.925 40.1321 160.039 40.1321 158.945V151.542Z" fill="#FF7629"/>
<path d="M40.1321 138.198C40.1321 137.057 41.0571 136.132 42.1982 136.132H56.1444C59.2824 136.132 61.8262 138.676 61.8262 141.814V141.814C61.8262 144.952 59.2824 147.495 56.1444 147.495H42.1982C41.0571 147.495 40.1321 146.57 40.1321 145.429V138.198Z" fill="#FF2525"/>
<path d="M83.2756 149.029H84.9136V144.969H89.3376V143.485H84.9136V140.713H89.7856V139.229H83.2756V149.029ZM91.5288 149.029H93.1248V138.669H91.5288V149.029ZM97.9688 149.155C99.6908 149.155 100.909 148.147 101.105 146.831H99.5508C99.3828 147.419 98.8508 147.811 97.9688 147.811C96.7928 147.811 96.2048 147.013 96.2048 145.865H101.203V145.193C101.203 143.205 100.055 141.679 97.9408 141.679C95.6588 141.679 94.5528 143.345 94.5528 145.417C94.5528 147.517 95.7708 149.155 97.9688 149.155ZM96.2188 144.731C96.2608 143.793 96.7788 143.037 97.9408 143.037C99.0328 143.037 99.5508 143.779 99.5648 144.731H96.2188ZM105.721 149.155C107.443 149.155 108.661 148.147 108.857 146.831H107.303C107.135 147.419 106.603 147.811 105.721 147.811C104.545 147.811 103.957 147.013 103.957 145.865H108.955V145.193C108.955 143.205 107.807 141.679 105.693 141.679C103.411 141.679 102.305 143.345 102.305 145.417C102.305 147.517 103.523 149.155 105.721 149.155ZM103.971 144.731C104.013 143.793 104.531 143.037 105.693 143.037C106.785 143.037 107.303 143.779 107.317 144.731H103.971ZM113.277 149.029H114.509V147.629H113.669C113.025 147.629 112.731 147.335 112.731 146.649V143.163H114.481V141.805H112.731V139.887H111.205V141.805H109.945V143.163H111.135V146.929C111.135 148.175 111.737 149.029 113.277 149.029ZM120.436 149.029H124.832C126.75 149.029 127.954 147.993 127.954 146.201C127.954 144.857 127.254 144.171 126.47 143.835V143.779C127.1 143.443 127.59 142.841 127.59 141.777C127.59 140.167 126.386 139.229 124.692 139.229H120.436V149.029ZM122.06 143.247V140.685H124.482C125.434 140.685 125.924 141.147 125.924 141.903C125.924 142.799 125.35 143.247 124.384 143.247H122.06ZM122.06 147.559V144.675H124.594C125.714 144.675 126.274 145.249 126.274 146.117C126.274 146.999 125.658 147.559 124.594 147.559H122.06Z" fill="#575F61"/>
<rect opacity="0.1" x="82.0576" y="160.029" width="38" height="5" rx="2" fill="#575F61"/>
<path d="M216 152.529H217C218.381 152.529 219.5 151.41 219.5 150.029V143.029C219.5 141.649 218.381 140.529 217 140.529H206C204.619 140.529 203.5 141.649 203.5 143.029V144.529" stroke="#BDC5C7" stroke-width="1.5" stroke-linecap="round" stroke-linejoin="round"/>
<rect x="201" y="144.529" width="15" height="12" rx="2.5" stroke="#BDC5C7" stroke-width="1.5" stroke-linecap="round" stroke-linejoin="round"/>
<circle cx="208.5" cy="150.529" r="2" stroke="#BDC5C7" stroke-width="1.5" stroke-linecap="round" stroke-linejoin="round"/>
<path d="M241.67 150.455C241.67 148.895 240.604 148.102 238.914 147.751L238.654 147.699V145.242C239.525 145.398 239.928 145.944 239.967 146.633H241.514C241.501 145.112 240.357 144.033 238.654 143.838V142.759H237.601V143.838C235.833 143.981 234.78 144.956 234.78 146.36C234.78 147.894 235.794 148.596 237.367 148.934L237.601 148.986V151.742C236.665 151.612 236.093 151.04 236.028 150.13H234.481C234.559 151.82 235.612 152.964 237.601 153.133V154.199H238.654V153.12C240.656 152.964 241.67 151.95 241.67 150.455ZM236.353 146.36C236.353 145.723 236.782 145.32 237.601 145.216V147.478C236.743 147.27 236.353 146.919 236.353 146.36ZM238.654 151.755V149.207L238.693 149.22C239.603 149.415 240.097 149.766 240.097 150.481C240.097 151.196 239.629 151.638 238.654 151.755ZM246.062 153.146C248.155 153.146 249.26 151.833 249.26 150C249.26 148.31 248.129 147.036 246.296 147.036C245.477 147.036 244.892 147.309 244.528 147.66H244.476L244.645 145.268H248.714V143.929H243.397L243.046 149.077H244.528C244.866 148.622 245.321 148.284 246.075 148.284C247.245 148.284 247.752 149.103 247.752 150.026C247.752 150.988 247.284 151.82 246.062 151.82C244.97 151.82 244.437 151.144 244.398 150.403H242.903C242.903 151.924 244.151 153.146 246.062 153.146ZM254.015 153.146C256.42 153.146 257.356 151.17 257.356 148.453C257.356 145.749 256.42 143.773 254.015 143.773C251.61 143.773 250.674 145.749 250.674 148.453C250.674 151.17 251.61 153.146 254.015 153.146ZM254.015 151.82C252.585 151.82 252.195 150.442 252.195 148.453C252.195 146.477 252.598 145.099 254.015 145.099C255.432 145.099 255.835 146.477 255.835 148.453C255.835 150.442 255.445 151.82 254.015 151.82ZM258.798 153.029H260.514V151.339H258.798V153.029ZM265.313 153.146C267.328 153.146 268.524 151.781 268.524 150.052C268.524 148.505 267.458 147.088 265.547 147.088C264.52 147.088 263.87 147.53 263.467 148.141H263.415C263.415 146.36 264.052 145.112 265.443 145.112C266.314 145.112 266.86 145.567 266.977 146.243H268.433C268.264 144.852 267.185 143.773 265.443 143.773C262.986 143.773 261.972 145.957 261.972 148.622C261.972 151.274 262.96 153.146 265.313 153.146ZM265.326 151.82C264.247 151.82 263.61 151.079 263.61 150.065C263.61 149.09 264.234 148.336 265.326 148.336C266.431 148.336 267.029 149.09 267.029 150.078C267.029 151.079 266.366 151.82 265.326 151.82ZM273.35 153.146C275.755 153.146 276.691 151.17 276.691 148.453C276.691 145.749 275.755 143.773 273.35 143.773C270.945 143.773 270.009 145.749 270.009 148.453C270.009 151.17 270.945 153.146 273.35 153.146ZM273.35 151.82C271.92 151.82 271.53 150.442 271.53 148.453C271.53 146.477 271.933 145.099 273.35 145.099C274.767 145.099 275.17 146.477 275.17 148.453C275.17 150.442 274.78 151.82 273.35 151.82Z" fill="#575F61"/>
<rect x="20.5" y="124.5" width="273" height="48.0577" rx="7.5" stroke="#EAEEEF"/>
<rect x="20.5" y="183.558" width="273" height="48.0577" rx="7.5" fill="white"/>
<path d="M64.9255 198.417V216.754C62.2654 220.012 58.2171 222.092 53.683 222.092C45.6713 222.092 39.1765 215.597 39.1765 207.586C39.1765 199.574 45.6713 193.079 53.683 193.079C58.2171 193.079 62.2654 195.159 64.9255 198.417Z" fill="#16D835"/>
<path fill-rule="evenodd" clip-rule="evenodd" d="M41.5903 215.602C44.1886 219.514 48.6347 222.093 53.6832 222.093C58.2173 222.093 62.2656 220.013 64.9257 216.755V198.289L64.9245 198.289L41.5903 215.602Z" fill="url(#paint0_linear_5137_36340)"/>
<path d="M83.2756 208.087H84.9136V204.027H89.3376V202.543H84.9136V199.771H89.7856V198.287H83.2756V208.087ZM91.5288 208.087H93.1248V197.727H91.5288V208.087ZM97.9688 208.213C99.6908 208.213 100.909 207.205 101.105 205.889H99.5508C99.3828 206.477 98.8508 206.869 97.9688 206.869C96.7928 206.869 96.2048 206.071 96.2048 204.923H101.203V204.251C101.203 202.263 100.055 200.737 97.9408 200.737C95.6588 200.737 94.5528 202.403 94.5528 204.475C94.5528 206.575 95.7708 208.213 97.9688 208.213ZM96.2188 203.789C96.2608 202.851 96.7788 202.095 97.9408 202.095C99.0328 202.095 99.5508 202.837 99.5648 203.789H96.2188ZM105.721 208.213C107.443 208.213 108.661 207.205 108.857 205.889H107.303C107.135 206.477 106.603 206.869 105.721 206.869C104.545 206.869 103.957 206.071 103.957 204.923H108.955V204.251C108.955 202.263 107.807 200.737 105.693 200.737C103.411 200.737 102.305 202.403 102.305 204.475C102.305 206.575 103.523 208.213 105.721 208.213ZM103.971 203.789C104.013 202.851 104.531 202.095 105.693 202.095C106.785 202.095 107.303 202.837 107.317 203.789H103.971ZM113.277 208.087H114.509V206.687H113.669C113.025 206.687 112.731 206.393 112.731 205.707V202.221H114.481V200.863H112.731V198.945H111.205V200.863H109.945V202.221H111.135V205.987C111.135 207.233 111.737 208.087 113.277 208.087ZM124.384 208.213C126.792 208.213 128.248 206.743 128.486 204.727H126.82C126.61 205.889 125.854 206.715 124.384 206.715C122.382 206.715 121.556 205.175 121.556 203.201C121.556 201.227 122.382 199.673 124.384 199.673C125.91 199.673 126.68 200.569 126.806 201.745H128.486C128.304 199.673 126.806 198.161 124.384 198.161C121.43 198.161 119.876 200.261 119.876 203.201C119.876 206.099 121.416 208.213 124.384 208.213Z" fill="#575F61"/>
<rect opacity="0.1" x="82.0576" y="219.087" width="31" height="5" rx="2" fill="#575F61"/>
<path d="M219 211.587H220C221.381 211.587 222.5 210.468 222.5 209.087V202.087C222.5 200.706 221.381 199.587 220 199.587H209C207.619 199.587 206.5 200.706 206.5 202.087V203.587" stroke="#BDC5C7" stroke-width="1.5" stroke-linecap="round" stroke-linejoin="round"/>
<rect x="204" y="203.587" width="15" height="12" rx="2.5" stroke="#BDC5C7" stroke-width="1.5" stroke-linecap="round" stroke-linejoin="round"/>
<circle cx="211.5" cy="209.587" r="2" stroke="#BDC5C7" stroke-width="1.5" stroke-linecap="round" stroke-linejoin="round"/>
<path d="M244.67 209.513C244.67 207.953 243.604 207.16 241.914 206.809L241.654 206.757V204.3C242.525 204.456 242.928 205.002 242.967 205.691H244.514C244.501 204.17 243.357 203.091 241.654 202.896V201.817H240.601V202.896C238.833 203.039 237.78 204.014 237.78 205.418C237.78 206.952 238.794 207.654 240.367 207.992L240.601 208.044V210.8C239.665 210.67 239.093 210.098 239.028 209.188H237.481C237.559 210.878 238.612 212.022 240.601 212.191V213.257H241.654V212.178C243.656 212.022 244.67 211.008 244.67 209.513ZM239.353 205.418C239.353 204.781 239.782 204.378 240.601 204.274V206.536C239.743 206.328 239.353 205.977 239.353 205.418ZM241.654 210.813V208.265L241.693 208.278C242.603 208.473 243.097 208.824 243.097 209.539C243.097 210.254 242.629 210.696 241.654 210.813ZM248.087 212.087H249.582V202.987H248.074L245.812 204.703V206.159H245.942L248.035 204.56H248.087V212.087ZM251.438 212.087H257.457V210.735H253.453V210.683L255.689 208.291C256.807 207.095 257.314 206.38 257.314 205.392C257.314 203.91 256.17 202.831 254.389 202.831C252.556 202.831 251.412 203.949 251.412 205.704H252.881C252.881 204.664 253.492 204.157 254.389 204.157C255.312 204.157 255.793 204.677 255.793 205.444C255.793 206.159 255.416 206.601 254.493 207.602L251.438 210.891V212.087ZM258.84 212.087H260.556V210.397H258.84V212.087ZM265.81 212.087H267.305V210.28H268.475V208.954H267.305V202.987H265.355L261.728 208.798V210.28H265.81V212.087ZM263.184 208.954V208.902L265.758 204.677H265.81V208.954H263.184ZM272.998 212.204C275.403 212.204 276.339 210.228 276.339 207.511C276.339 204.807 275.403 202.831 272.998 202.831C270.593 202.831 269.657 204.807 269.657 207.511C269.657 210.228 270.593 212.204 272.998 212.204ZM272.998 210.878C271.568 210.878 271.178 209.5 271.178 207.511C271.178 205.535 271.581 204.157 272.998 204.157C274.415 204.157 274.818 205.535 274.818 207.511C274.818 209.5 274.428 210.878 272.998 210.878Z" fill="#575F61"/>
<rect x="20.5" y="183.558" width="273" height="48.0577" rx="7.5" stroke="#EAEEEF"/>
<rect x="20.5" y="242.615" width="273" height="48" rx="7.5" fill="white"/>
<path d="M49.6375 254.308H61.9451V266.615L49.6375 254.308Z" fill="#00D1FF"/>
<path d="M61.9451 266.615L61.9451 278.923L49.6374 278.923L61.9451 266.615Z" fill="#EB00FF"/>
<path d="M41.2856 257.824L50.2993 266.838L41.2856 275.852V257.824Z" fill="#FFC700"/>
<path d="M82.218 267.115H83.856V263.055H88.28V261.571H83.856V258.799H88.728V257.315H82.218V267.115ZM90.4712 267.115H92.0672V256.755H90.4712V267.115ZM96.9112 267.241C98.6332 267.241 99.8512 266.233 100.047 264.917H98.4932C98.3252 265.505 97.7932 265.897 96.9112 265.897C95.7352 265.897 95.1472 265.099 95.1472 263.951H100.145V263.279C100.145 261.291 98.9972 259.765 96.8832 259.765C94.6012 259.765 93.4952 261.431 93.4952 263.503C93.4952 265.603 94.7132 267.241 96.9112 267.241ZM95.1612 262.817C95.2032 261.879 95.7212 261.123 96.8832 261.123C97.9752 261.123 98.4932 261.865 98.5072 262.817H95.1612ZM104.663 267.241C106.385 267.241 107.603 266.233 107.799 264.917H106.245C106.077 265.505 105.545 265.897 104.663 265.897C103.487 265.897 102.899 265.099 102.899 263.951H107.897V263.279C107.897 261.291 106.749 259.765 104.635 259.765C102.353 259.765 101.247 261.431 101.247 263.503C101.247 265.603 102.465 267.241 104.663 267.241ZM102.913 262.817C102.955 261.879 103.473 261.123 104.635 261.123C105.727 261.123 106.245 261.865 106.259 262.817H102.913ZM112.219 267.115H113.451V265.715H112.611C111.967 265.715 111.673 265.421 111.673 264.735V261.249H113.423V259.891H111.673V257.973H110.147V259.891H108.887V261.249H110.077V265.015C110.077 266.261 110.679 267.115 112.219 267.115ZM119.378 267.115H125.986V265.645H121.016V262.803H125.552V261.319H121.016V258.799H125.986V257.315H119.378V267.115Z" fill="#575F61"/>
<rect opacity="0.1" x="81" y="278.115" width="49" height="5" rx="2" fill="#575F61"/>
<path d="M216 270.615H217C218.381 270.615 219.5 269.496 219.5 268.115V261.115C219.5 259.735 218.381 258.615 217 258.615H206C204.619 258.615 203.5 259.735 203.5 261.115V262.615" stroke="#BDC5C7" stroke-width="1.5" stroke-linecap="round" stroke-linejoin="round"/>
<rect x="201" y="262.615" width="15" height="12" rx="2.5" stroke="#BDC5C7" stroke-width="1.5" stroke-linecap="round" stroke-linejoin="round"/>
<circle cx="208.5" cy="268.615" r="2" stroke="#BDC5C7" stroke-width="1.5" stroke-linecap="round" stroke-linejoin="round"/>
<path d="M241.67 268.541C241.67 266.981 240.604 266.188 238.914 265.837L238.654 265.785V263.328C239.525 263.484 239.928 264.03 239.967 264.719H241.514C241.501 263.198 240.357 262.119 238.654 261.924V260.845H237.601V261.924C235.833 262.067 234.78 263.042 234.78 264.446C234.78 265.98 235.794 266.682 237.367 267.02L237.601 267.072V269.828C236.665 269.698 236.093 269.126 236.028 268.216H234.481C234.559 269.906 235.612 271.05 237.601 271.219V272.285H238.654V271.206C240.656 271.05 241.67 270.036 241.67 268.541ZM236.353 264.446C236.353 263.809 236.782 263.406 237.601 263.302V265.564C236.743 265.356 236.353 265.005 236.353 264.446ZM238.654 269.841V267.293L238.693 267.306C239.603 267.501 240.097 267.852 240.097 268.567C240.097 269.282 239.629 269.724 238.654 269.841ZM246.023 271.232C248.48 271.232 249.507 269.048 249.507 266.383C249.507 263.731 248.519 261.859 246.166 261.859C244.151 261.859 242.955 263.224 242.955 264.953C242.955 266.5 244.008 267.917 245.919 267.917C246.946 267.917 247.609 267.475 248.012 266.864H248.064C248.064 268.645 247.427 269.893 246.023 269.893C245.165 269.893 244.606 269.438 244.502 268.762H243.033C243.202 270.153 244.281 271.232 246.023 271.232ZM246.153 266.669C245.048 266.669 244.45 265.915 244.45 264.927C244.45 263.926 245.113 263.185 246.153 263.185C247.219 263.185 247.869 263.926 247.869 264.94C247.869 265.915 247.245 266.669 246.153 266.669ZM255.905 266.318V266.266C256.685 265.889 257.127 265.174 257.127 264.264C257.127 262.795 255.944 261.872 254.163 261.859C252.382 261.872 251.199 262.795 251.199 264.264C251.199 265.174 251.641 265.889 252.421 266.266V266.318C251.433 266.708 250.926 267.488 250.926 268.541C250.926 270.244 252.213 271.219 254.163 271.232C256.113 271.219 257.4 270.244 257.4 268.541C257.4 267.488 256.893 266.708 255.905 266.318ZM254.163 263.159C255.073 263.159 255.619 263.627 255.619 264.407C255.619 265.174 255.06 265.681 254.163 265.681C253.266 265.681 252.707 265.174 252.707 264.407C252.707 263.627 253.253 263.159 254.163 263.159ZM254.163 269.932C253.032 269.919 252.447 269.347 252.447 268.45C252.447 267.605 252.993 266.994 254.163 266.981C255.333 266.994 255.879 267.605 255.879 268.45C255.879 269.347 255.294 269.919 254.163 269.932ZM258.772 271.115H260.488V269.425H258.772V271.115ZM265.288 271.232C267.693 271.232 268.629 269.256 268.629 266.539C268.629 263.835 267.693 261.859 265.288 261.859C262.883 261.859 261.947 263.835 261.947 266.539C261.947 269.256 262.883 271.232 265.288 271.232ZM265.288 269.906C263.858 269.906 263.468 268.528 263.468 266.539C263.468 264.563 263.871 263.185 265.288 263.185C266.705 263.185 267.108 264.563 267.108 266.539C267.108 268.528 266.718 269.906 265.288 269.906ZM273.451 271.232C275.856 271.232 276.792 269.256 276.792 266.539C276.792 263.835 275.856 261.859 273.451 261.859C271.046 261.859 270.11 263.835 270.11 266.539C270.11 269.256 271.046 271.232 273.451 271.232ZM273.451 269.906C272.021 269.906 271.631 268.528 271.631 266.539C271.631 264.563 272.034 263.185 273.451 263.185C274.868 263.185 275.271 264.563 275.271 266.539C275.271 268.528 274.881 269.906 273.451 269.906Z" fill="#575F61"/>
<rect x="20.5" y="242.615" width="273" height="48" rx="7.5" stroke="#08323C"/>
<path d="M66 335.115C66 323.802 66 318.145 69.5147 314.63C73.0294 311.115 78.6863 311.115 90 311.115H224C235.314 311.115 240.971 311.115 244.485 314.63C248 318.145 248 323.802 248 335.115V335.115C248 346.429 248 352.086 244.485 355.601C240.971 359.115 235.314 359.115 224 359.115H90C78.6863 359.115 73.0294 359.115 69.5147 355.601C66 352.086 66 346.429 66 335.115V335.115Z" fill="#08323C"/>
<path d="M112.054 330.315H109.996L106.496 339.975V340.115H108.232L109.002 337.847H113.006L113.776 340.115H115.568V339.975L112.054 330.315ZM109.492 336.405L110.976 332.037H111.032L112.516 336.405H109.492ZM119.494 340.241C121.174 340.241 122.49 339.457 122.49 338.057C122.49 336.685 121.65 336.167 120.39 335.901L119.158 335.663C118.556 335.565 118.206 335.313 118.206 334.879C118.206 334.347 118.696 334.053 119.41 334.053C120.236 334.053 120.726 334.473 120.754 335.131H122.322C122.322 333.731 121.174 332.765 119.438 332.765C117.688 332.765 116.652 333.675 116.652 334.865C116.652 336.097 117.478 336.755 118.654 336.993L119.928 337.231C120.586 337.371 120.88 337.651 120.88 338.057C120.88 338.561 120.404 338.869 119.494 338.869C118.584 338.869 118.024 338.421 118.024 337.707H116.428C116.47 339.233 117.548 340.241 119.494 340.241ZM126.644 340.241C128.324 340.241 129.64 339.457 129.64 338.057C129.64 336.685 128.8 336.167 127.54 335.901L126.308 335.663C125.706 335.565 125.356 335.313 125.356 334.879C125.356 334.347 125.846 334.053 126.56 334.053C127.386 334.053 127.876 334.473 127.904 335.131H129.472C129.472 333.731 128.324 332.765 126.588 332.765C124.838 332.765 123.802 333.675 123.802 334.865C123.802 336.097 124.628 336.755 125.804 336.993L127.078 337.231C127.736 337.371 128.03 337.651 128.03 338.057C128.03 338.561 127.554 338.869 126.644 338.869C125.734 338.869 125.174 338.421 125.174 337.707H123.578C123.62 339.233 124.698 340.241 126.644 340.241ZM131.135 331.673H132.871V329.951H131.135V331.673ZM131.205 340.115H132.801V332.891H131.205V340.115ZM137.617 343.447C139.661 343.447 140.963 342.229 140.963 340.507V332.891H139.549L139.367 333.759H139.311C138.947 333.213 138.289 332.765 137.239 332.765C135.377 332.765 134.243 334.249 134.229 336.503C134.243 338.659 135.293 340.241 137.239 340.241C138.289 340.241 138.947 339.793 139.311 339.247H139.367V340.479C139.367 341.375 138.807 342.075 137.617 342.075C136.581 342.075 136.049 341.501 135.993 340.899H134.439C134.481 342.397 135.727 343.447 137.617 343.447ZM137.631 338.827C136.315 338.827 135.853 337.763 135.853 336.503C135.853 335.243 136.329 334.179 137.631 334.179C138.905 334.179 139.423 335.257 139.423 336.503C139.423 337.749 138.919 338.827 137.631 338.827ZM142.867 340.115H144.463V336.125C144.463 334.921 145.107 334.207 146.115 334.207C147.123 334.207 147.585 334.781 147.585 335.789V340.115H149.181V335.397C149.181 333.773 148.187 332.765 146.577 332.765C145.541 332.765 144.855 333.213 144.463 333.829H144.407L144.281 332.891H142.867V340.115ZM155.158 343.321H156.754V339.247H156.81C157.174 339.793 157.818 340.241 158.868 340.241C160.814 340.241 161.878 338.659 161.878 336.503C161.878 334.249 160.73 332.765 158.868 332.765C157.818 332.765 157.174 333.213 156.81 333.759H156.754L156.572 332.891H155.158V343.321ZM158.476 338.827C157.202 338.827 156.698 337.749 156.698 336.503C156.698 335.257 157.202 334.179 158.476 334.179C159.778 334.179 160.268 335.243 160.268 336.503C160.268 337.763 159.792 338.827 158.476 338.827ZM163.457 340.115H164.997V336.587C164.997 335.117 165.627 334.277 166.845 334.277H167.461V332.793H166.873C165.963 332.793 165.291 333.297 164.997 334.039H164.941L164.801 332.891H163.457V340.115ZM171.701 340.241C173.997 340.241 175.117 338.617 175.117 336.503C175.117 334.389 173.969 332.765 171.701 332.765C169.433 332.765 168.285 334.389 168.285 336.503C168.285 338.631 169.405 340.241 171.701 340.241ZM171.701 338.827C170.497 338.827 169.909 337.959 169.909 336.503C169.909 335.075 170.483 334.179 171.701 334.179C172.919 334.179 173.493 335.061 173.493 336.503C173.493 337.959 172.919 338.827 171.701 338.827ZM178.265 340.115H180.141L182.703 333.031V332.891H181.079L179.245 338.463H179.189L177.299 332.891H175.661V333.031L178.265 340.115ZM183.881 331.673H185.617V329.951H183.881V331.673ZM183.951 340.115H185.547V332.891H183.951V340.115ZM189.985 340.241C191.035 340.241 191.693 339.793 192.057 339.247H192.113L192.295 340.115H193.709V329.755H192.113V333.759H192.057C191.693 333.213 191.035 332.765 189.985 332.765C188.039 332.765 186.989 334.347 186.975 336.489C186.989 338.757 188.123 340.241 189.985 340.241ZM190.377 338.827C189.075 338.827 188.599 337.763 188.599 336.489C188.599 335.243 189.061 334.179 190.377 334.179C191.665 334.179 192.169 335.243 192.169 336.489C192.169 337.749 191.651 338.827 190.377 338.827ZM198.553 340.241C200.275 340.241 201.493 339.233 201.689 337.917H200.135C199.967 338.505 199.435 338.897 198.553 338.897C197.377 338.897 196.789 338.099 196.789 336.951H201.787V336.279C201.787 334.291 200.639 332.765 198.525 332.765C196.243 332.765 195.137 334.431 195.137 336.503C195.137 338.603 196.355 340.241 198.553 340.241ZM196.803 335.817C196.845 334.879 197.363 334.123 198.525 334.123C199.617 334.123 200.135 334.865 200.149 335.817H196.803ZM203.365 340.115H204.905V336.587C204.905 335.117 205.535 334.277 206.753 334.277H207.369V332.793H206.781C205.871 332.793 205.199 333.297 204.905 334.039H204.849L204.709 332.891H203.365V340.115Z" fill="white"/>
<rect x="0.5" y="0.5" width="313" height="378" rx="9.5" stroke="#EAEBEF"/>
<defs>
<linearGradient id="paint0_linear_5137_36340" x1="42.1983" y1="203.971" x2="52.051" y2="222.093" gradientUnits="userSpaceOnUse">
<stop stop-color="#029F7A"/>
<stop offset="1" stop-color="#029F7A" stop-opacity="0"/>
</linearGradient>
</defs>
</svg>
