<svg width="315" height="811" viewBox="0 0 315 811" fill="none" xmlns="http://www.w3.org/2000/svg">
<path d="M315 1H283C266.431 1 253 14.4315 253 31V479.5" stroke="#08323C" stroke-width="2"/>
<path d="M254 481.5C254 480.948 253.552 480.5 253 480.5C252.448 480.5 252 480.948 252 481.5H254ZM2 806.394C2 805.842 1.55228 805.394 1 805.394C0.447715 805.394 0 805.842 0 806.394H2ZM0 798.183C0 798.735 0.447715 799.183 1 799.183C1.55228 799.183 2 798.735 2 798.183H0ZM2 789.971C2 789.419 1.55228 788.971 1 788.971C0.447715 788.971 0 789.419 0 789.971H2ZM0 781.76C0 782.312 0.447715 782.76 1 782.76C1.55228 782.76 2 782.312 2 781.76H0ZM2 773.548C2 772.996 1.55228 772.548 1 772.548C0.447715 772.548 0 772.996 0 773.548H2ZM0 765.337C0 765.889 0.447715 766.337 1 766.337C1.55228 766.337 2 765.889 2 765.337H0ZM2 757.125C2 756.573 1.55228 756.125 1 756.125C0.447715 756.125 0 756.573 0 757.125H2ZM0 748.913C0 749.466 0.447715 749.913 1 749.913C1.55228 749.913 2 749.466 2 748.913H0ZM2 740.702C2 740.15 1.55228 739.702 1 739.702C0.447715 739.702 0 740.15 0 740.702H2ZM0 732.49C0 733.043 0.447715 733.49 1 733.49C1.55228 733.49 2 733.043 2 732.49H0ZM2 724.279C2 723.727 1.55228 723.279 1 723.279C0.447715 723.279 0 723.727 0 724.279H2ZM0 716.067C0 716.62 0.447715 717.067 1 717.067C1.55228 717.067 2 716.62 2 716.067H0ZM2 707.856C2 707.303 1.55228 706.856 1 706.856C0.447715 706.856 0 707.303 0 707.856H2ZM0 699.644C0 700.196 0.447715 700.644 1 700.644C1.55228 700.644 2 700.196 2 699.644H0ZM2 691.433C2 690.88 1.55228 690.433 1 690.433C0.447715 690.433 0 690.88 0 691.433H2ZM0 683.221C0 683.773 0.447715 684.221 1 684.221C1.55228 684.221 2 683.773 2 683.221H0ZM2 675.01C2 674.457 1.55228 674.01 1 674.01C0.447715 674.01 0 674.457 0 675.01H2ZM0 666.798C0 667.35 0.447715 667.798 1 667.798C1.55228 667.798 2 667.35 2 666.798H0ZM2 658.587C2 658.034 1.55228 657.587 1 657.587C0.447715 657.587 0 658.034 0 658.587H2ZM0 650.375C0 650.927 0.447715 651.375 1 651.375C1.55228 651.375 2 650.927 2 650.375H0ZM2 642.163C2 641.611 1.55228 641.163 1 641.163C0.447715 641.163 0 641.611 0 642.163H2ZM0 633.952C0 634.504 0.447715 634.952 1 634.952C1.55228 634.952 2 634.504 2 633.952H0ZM2 625.74C2 625.188 1.55228 624.74 1 624.74C0.447715 624.74 0 625.188 0 625.74H2ZM0 617.529C0 618.081 0.447715 618.529 1 618.529C1.55228 618.529 2 618.081 2 617.529H0ZM2 609.317C2 608.765 1.55228 608.317 1 608.317C0.447715 608.317 0 608.765 0 609.317H2ZM0 601.106C0 601.658 0.447715 602.106 1 602.106C1.55228 602.106 2 601.658 2 601.106H0ZM2.24517 593.211C2.3166 592.663 1.93056 592.162 1.38291 592.09C0.835269 592.019 0.333405 592.405 0.261969 592.952L2.24517 593.211ZM2.35269 585.133C2.14114 585.643 2.3832 586.229 2.89336 586.44C3.40352 586.652 3.98859 586.41 4.20014 585.899L2.35269 585.133ZM7.99094 579.346C8.32746 578.908 8.24526 578.28 7.80735 577.944C7.36943 577.607 6.74162 577.689 6.4051 578.127L7.99094 579.346ZM12.1272 572.405C11.6892 572.742 11.607 573.369 11.9436 573.807C12.2801 574.245 12.9079 574.327 13.3458 573.991L12.1272 572.405ZM19.8994 570.2C20.4096 569.989 20.6516 569.404 20.4401 568.893C20.2285 568.383 19.6435 568.141 19.1333 568.353L19.8994 570.2ZM26.9524 566.262C26.4047 566.333 26.0187 566.835 26.0901 567.383C26.1616 567.931 26.6634 568.317 27.2111 568.245L26.9524 566.262ZM35 568C35.5523 568 36 567.552 36 567C36 566.448 35.5523 566 35 566V568ZM43 566C42.4477 566 42 566.448 42 567C42 567.552 42.4477 568 43 568V566ZM51 568C51.5523 568 52 567.552 52 567C52 566.448 51.5523 566 51 566V568ZM59 566C58.4477 566 58 566.448 58 567C58 567.552 58.4477 568 59 568V566ZM67 568C67.5523 568 68 567.552 68 567C68 566.448 67.5523 566 67 566V568ZM75 566C74.4477 566 74 566.448 74 567C74 567.552 74.4477 568 75 568V566ZM83 568C83.5523 568 84 567.552 84 567C84 566.448 83.5523 566 83 566V568ZM91 566C90.4477 566 90 566.448 90 567C90 567.552 90.4477 568 91 568V566ZM99 568C99.5523 568 100 567.552 100 567C100 566.448 99.5523 566 99 566V568ZM107 566C106.448 566 106 566.448 106 567C106 567.552 106.448 568 107 568V566ZM115 568C115.552 568 116 567.552 116 567C116 566.448 115.552 566 115 566V568ZM123 566C122.448 566 122 566.448 122 567C122 567.552 122.448 568 123 568V566ZM131 568C131.552 568 132 567.552 132 567C132 566.448 131.552 566 131 566V568ZM139 566C138.448 566 138 566.448 138 567C138 567.552 138.448 568 139 568V566ZM147 568C147.552 568 148 567.552 148 567C148 566.448 147.552 566 147 566V568ZM155 566C154.448 566 154 566.448 154 567C154 567.552 154.448 568 155 568V566ZM163 568C163.552 568 164 567.552 164 567C164 566.448 163.552 566 163 566V568ZM171 566C170.448 566 170 566.448 170 567C170 567.552 170.448 568 171 568V566ZM179 568C179.552 568 180 567.552 180 567C180 566.448 179.552 566 179 566V568ZM187 566C186.448 566 186 566.448 186 567C186 567.552 186.448 568 187 568V566ZM195 568C195.552 568 196 567.552 196 567C196 566.448 195.552 566 195 566V568ZM203 566C202.448 566 202 566.448 202 567C202 567.552 202.448 568 203 568V566ZM211 568C211.552 568 212 567.552 212 567C212 566.448 211.552 566 211 566V568ZM219 566C218.448 566 218 566.448 218 567C218 567.552 218.448 568 219 568V566ZM227.048 567.738C227.595 567.667 227.981 567.165 227.91 566.617C227.838 566.069 227.337 565.683 226.789 565.755L227.048 567.738ZM234.101 563.8C233.59 564.011 233.348 564.596 233.56 565.107C233.771 565.617 234.357 565.859 234.867 565.647L234.101 563.8ZM241.873 561.595C242.311 561.258 242.393 560.631 242.056 560.193C241.72 559.755 241.092 559.673 240.654 560.009L241.873 561.595ZM246.009 554.654C245.673 555.092 245.755 555.72 246.193 556.056C246.631 556.393 247.258 556.311 247.595 555.873L246.009 554.654ZM251.647 548.867C251.859 548.357 251.617 547.771 251.107 547.56C250.596 547.348 250.011 547.59 249.8 548.101L251.647 548.867ZM251.755 540.789C251.683 541.337 252.069 541.838 252.617 541.91C253.165 541.981 253.667 541.595 253.738 541.048L251.755 540.789ZM254 532.375C254 531.823 253.552 531.375 253 531.375C252.448 531.375 252 531.823 252 532.375H254ZM252 523.125C252 523.677 252.448 524.125 253 524.125C253.552 524.125 254 523.677 254 523.125H252ZM254 513.875C254 513.323 253.552 512.875 253 512.875C252.448 512.875 252 513.323 252 513.875H254ZM252 504.625C252 505.177 252.448 505.625 253 505.625C253.552 505.625 254 505.177 254 504.625H252ZM254 495.375C254 494.823 253.552 494.375 253 494.375C252.448 494.375 252 494.823 252 495.375H254ZM252 486.125C252 486.677 252.448 487.125 253 487.125C253.552 487.125 254 486.677 254 486.125H252ZM2 810.5V806.394H0V810.5H2ZM2 798.183V789.971H0V798.183H2ZM2 781.76V773.548H0V781.76H2ZM2 765.337V757.125H0V765.337H2ZM2 748.913V740.702H0V748.913H2ZM2 732.49V724.279H0V732.49H2ZM2 716.067V707.856H0V716.067H2ZM2 699.644V691.433H0V699.644H2ZM2 683.221V675.01H0V683.221H2ZM2 666.798V658.587H0V666.798H2ZM2 650.375V642.163H0V650.375H2ZM2 633.952V625.74H0V633.952H2ZM2 617.529V609.317H0V617.529H2ZM2 601.106V597H0V601.106H2ZM2 597C2 595.715 2.08347 594.451 2.24517 593.211L0.261969 592.952C0.0891106 594.278 0 595.629 0 597H2ZM4.20014 585.899C5.17759 583.542 6.4572 581.342 7.99094 579.346L6.4051 578.127C4.76609 580.26 3.39801 582.613 2.35269 585.133L4.20014 585.899ZM13.3458 573.991C15.3417 572.457 17.5423 571.178 19.8994 570.2L19.1333 568.353C16.6125 569.398 14.26 570.766 12.1272 572.405L13.3458 573.991ZM27.2111 568.245C28.4507 568.083 29.7154 568 31 568V566C29.6286 566 28.2776 566.089 26.9524 566.262L27.2111 568.245ZM31 568H35V566H31V568ZM43 568H51V566H43V568ZM59 568H67V566H59V568ZM75 568H83V566H75V568ZM91 568H99V566H91V568ZM107 568H115V566H107V568ZM123 568H131V566H123V568ZM139 568H147V566H139V568ZM155 568H163V566H155V568ZM171 568H179V566H171V568ZM187 568H195V566H187V568ZM203 568H211V566H203V568ZM219 568H223V566H219V568ZM223 568C224.371 568 225.722 567.911 227.048 567.738L226.789 565.755C225.549 565.917 224.285 566 223 566V568ZM234.867 565.647C237.387 564.602 239.74 563.234 241.873 561.595L240.654 560.009C238.658 561.543 236.458 562.822 234.101 563.8L234.867 565.647ZM247.595 555.873C249.234 553.74 250.602 551.387 251.647 548.867L249.8 548.101C248.822 550.458 247.543 552.658 246.009 554.654L247.595 555.873ZM253.738 541.048C253.911 539.722 254 538.371 254 537H252C252 538.285 251.917 539.549 251.755 540.789L253.738 541.048ZM254 537V532.375H252V537H254ZM254 523.125V513.875H252V523.125H254ZM254 504.625V495.375H252V504.625H254ZM254 486.125V481.5H252V486.125H254Z" fill="#08323C"/>
<circle cx="253" cy="480" r="10" fill="#08323C"/>
<circle cx="253" cy="480" r="15" stroke="#08323C" stroke-opacity="0.2" stroke-width="10"/>
</svg>
