<svg width="522" height="468" viewBox="0 0 522 468" fill="none" xmlns="http://www.w3.org/2000/svg">
<rect width="189" height="412" transform="translate(77 21)" fill="#EFF1F2"/>
<rect width="232" height="316" transform="translate(290 21)" fill="#EFF1F2"/>
<path d="M328 24C328 12.6863 328 7.02944 331.515 3.51472C335.029 0 340.686 0 352 0H474C485.314 0 490.971 0 494.485 3.51472C498 7.02944 498 12.6863 498 24V24C498 35.3137 498 40.9706 494.485 44.4853C490.971 48 485.314 48 474 48H352C340.686 48 335.029 48 331.515 44.4853C328 40.9706 328 35.3137 328 24V24Z" fill="white"/>
<path d="M353.69 19.2H352.192L348.594 28.86V29H349.868L350.792 26.438H355.076L356 29H357.302V28.86L353.69 19.2ZM351.184 25.346L352.906 20.558H352.962L354.684 25.346H351.184ZM358.977 29H360.153V18.64H358.977V29ZM362.531 29H363.707V18.64H362.531V29Z" fill="#535E61"/>
<path d="M444 24C444 18.3431 444 15.5147 445.757 13.7574C447.515 12 450.343 12 456 12H470C475.657 12 478.485 12 480.243 13.7574C482 15.5147 482 18.3431 482 24V24C482 29.6569 482 32.4853 480.243 34.2426C478.485 36 475.657 36 470 36H456C450.343 36 447.515 36 445.757 34.2426C444 32.4853 444 29.6569 444 24V24Z" fill="#EFF1F2"/>
<path d="M452.648 28H458.204V26.752H454.508V26.704L456.572 24.496C457.604 23.392 458.072 22.732 458.072 21.82C458.072 20.452 457.016 19.456 455.372 19.456C453.68 19.456 452.624 20.488 452.624 22.108H453.98C453.98 21.148 454.544 20.68 455.372 20.68C456.224 20.68 456.668 21.16 456.668 21.868C456.668 22.528 456.32 22.936 455.468 23.86L452.648 26.896V28ZM462.941 28H464.321V26.332H465.401V25.108H464.321V19.6H462.521L459.173 24.964V26.332H462.941V28ZM460.517 25.108V25.06L462.893 21.16H462.941V25.108H460.517ZM469.479 28.108C471.411 28.108 472.432 26.896 472.432 25.204C472.432 23.644 471.387 22.468 469.695 22.468C468.939 22.468 468.399 22.72 468.063 23.044H468.015L468.171 20.836H471.927V19.6H467.019L466.695 24.352H468.063C468.375 23.932 468.795 23.62 469.492 23.62C470.572 23.62 471.04 24.376 471.04 25.228C471.04 26.116 470.607 26.884 469.479 26.884C468.471 26.884 467.979 26.26 467.943 25.576H466.563C466.563 26.98 467.715 28.108 469.479 28.108Z" fill="#535E61"/>
<path d="M331.515 44.4853L330.808 45.1924L331.515 44.4853ZM494.485 44.4853L493.778 43.7782L494.485 44.4853ZM331.515 3.51472L330.808 2.80761L331.515 3.51472ZM352 1H474V-1H352V1ZM474 47H352V49H474V47ZM352 47C346.315 47 342.152 46.9979 338.966 46.5696C335.809 46.1451 333.762 45.3188 332.222 43.7782L330.808 45.1924C332.782 47.1665 335.321 48.0975 338.699 48.5517C342.049 49.0021 346.371 49 352 49V47ZM327 24C327 29.6286 326.998 33.9506 327.448 37.3005C327.903 40.6792 328.833 43.2183 330.808 45.1924L332.222 43.7782C330.681 42.2376 329.855 40.1909 329.43 37.034C329.002 33.8484 329 29.6851 329 24H327ZM497 24C497 29.6851 496.998 33.8484 496.57 37.034C496.145 40.1909 495.319 42.2376 493.778 43.7782L495.192 45.1924C497.167 43.2183 498.097 40.6792 498.552 37.3005C499.002 33.9506 499 29.6286 499 24H497ZM474 49C479.629 49 483.951 49.0021 487.301 48.5517C490.679 48.0975 493.218 47.1665 495.192 45.1924L493.778 43.7782C492.238 45.3188 490.191 46.1451 487.034 46.5696C483.848 46.9979 479.685 47 474 47V49ZM474 1C479.685 1 483.848 1.00212 487.034 1.43042C490.191 1.85485 492.238 2.68124 493.778 4.22183L495.192 2.80761C493.218 0.833484 490.679 -0.0974945 487.301 -0.551743C483.951 -1.00212 479.629 -1 474 -1V1ZM499 24C499 18.3714 499.002 14.0494 498.552 10.6995C498.097 7.32084 497.167 4.78174 495.192 2.80761L493.778 4.22183C495.319 5.76242 496.145 7.80911 496.57 10.966C496.998 14.1516 497 18.3149 497 24H499ZM352 -1C346.371 -1 342.049 -1.00212 338.699 -0.551743C335.321 -0.0974946 332.782 0.833484 330.808 2.80761L332.222 4.22183C333.762 2.68124 335.809 1.85485 338.966 1.43042C342.152 1.00212 346.315 1 352 1V-1ZM329 24C329 18.3149 329.002 14.1516 329.43 10.966C329.855 7.80911 330.681 5.76242 332.222 4.22183L330.808 2.80761C328.833 4.78174 327.903 7.32084 327.448 10.6995C326.998 14.0494 327 18.3714 327 24H329Z" fill="#EAEBEF"/>
<path d="M328 80C328 68.6863 328 63.0294 331.515 59.5147C335.029 56 340.686 56 352 56H474C485.314 56 490.971 56 494.485 59.5147C498 63.0294 498 68.6863 498 80V80C498 91.3137 498 96.9706 494.485 100.485C490.971 104 485.314 104 474 104H352C340.686 104 335.029 104 331.515 100.485C328 96.9706 328 91.3137 328 80V80Z" fill="#08323C"/>
<path d="M353.58 85.126C355.988 85.126 357.444 83.656 357.682 81.64H356.016C355.806 82.802 355.05 83.628 353.58 83.628C351.578 83.628 350.752 82.088 350.752 80.114C350.752 78.14 351.578 76.586 353.58 76.586C355.106 76.586 355.876 77.482 356.002 78.658H357.682C357.5 76.586 356.002 75.074 353.58 75.074C350.626 75.074 349.072 77.174 349.072 80.114C349.072 83.012 350.612 85.126 353.58 85.126ZM359.362 85H360.902V81.472C360.902 80.002 361.532 79.162 362.75 79.162H363.366V77.678H362.778C361.868 77.678 361.196 78.182 360.902 78.924H360.846L360.706 77.776H359.362V85ZM367.607 85.126C369.329 85.126 370.547 84.118 370.743 82.802H369.189C369.021 83.39 368.489 83.782 367.607 83.782C366.431 83.782 365.843 82.984 365.843 81.836H370.841V81.164C370.841 79.176 369.693 77.65 367.579 77.65C365.297 77.65 364.191 79.316 364.191 81.388C364.191 83.488 365.409 85.126 367.607 85.126ZM365.857 80.702C365.899 79.764 366.417 79.008 367.579 79.008C368.671 79.008 369.189 79.75 369.203 80.702H365.857ZM374.462 85.126C375.428 85.126 376.17 84.762 376.59 84.146H376.646L376.758 85H378.158V80.184C378.158 78.756 377.08 77.65 375.176 77.65C373.356 77.65 372.278 78.672 372.278 80.044H373.79C373.804 79.456 374.266 78.966 375.148 78.966C376.156 78.966 376.576 79.526 376.576 80.198V80.632H374.896C372.824 80.632 371.942 81.612 371.942 82.872C371.942 84.146 372.866 85.126 374.462 85.126ZM374.826 83.852C373.958 83.852 373.538 83.404 373.538 82.816C373.538 82.172 374.014 81.78 374.966 81.78H376.576V82.27C376.576 83.124 375.89 83.852 374.826 83.852ZM382.805 85H384.037V83.6H383.197C382.553 83.6 382.259 83.306 382.259 82.62V79.134H384.009V77.776H382.259V75.858H380.733V77.776H379.473V79.134H380.663V82.9C380.663 84.146 381.265 85 382.805 85ZM388.634 85.126C390.356 85.126 391.574 84.118 391.77 82.802H390.216C390.048 83.39 389.516 83.782 388.634 83.782C387.458 83.782 386.87 82.984 386.87 81.836H391.868V81.164C391.868 79.176 390.72 77.65 388.606 77.65C386.324 77.65 385.218 79.316 385.218 81.388C385.218 83.488 386.436 85.126 388.634 85.126ZM386.884 80.702C386.926 79.764 387.444 79.008 388.606 79.008C389.698 79.008 390.216 79.75 390.23 80.702H386.884ZM395.98 85.126C397.03 85.126 397.688 84.678 398.052 84.132H398.108L398.29 85H399.704V74.64H398.108V78.644H398.052C397.688 78.098 397.03 77.65 395.98 77.65C394.034 77.65 392.984 79.232 392.97 81.374C392.984 83.642 394.118 85.126 395.98 85.126ZM396.372 83.712C395.07 83.712 394.594 82.648 394.594 81.374C394.594 80.128 395.056 79.064 396.372 79.064C397.66 79.064 398.164 80.128 398.164 81.374C398.164 82.634 397.646 83.712 396.372 83.712Z" fill="white"/>
<path d="M458 80C458 74.3431 458 71.5147 459.757 69.7574C461.515 68 464.343 68 470 68V68C475.657 68 478.485 68 480.243 69.7574C482 71.5147 482 74.3431 482 80V80C482 85.6569 482 88.4853 480.243 90.2426C478.485 92 475.657 92 470 92V92C464.343 92 461.515 92 459.757 90.2426C458 88.4853 458 85.6569 458 80V80Z" fill="#F6F8F8" fill-opacity="0.15"/>
<path d="M466.771 85H473.253V83.544H468.941V83.488L471.349 80.912C472.553 79.624 473.099 78.854 473.099 77.79C473.099 76.194 471.867 75.032 469.949 75.032C467.975 75.032 466.743 76.236 466.743 78.126H468.325C468.325 77.006 468.983 76.46 469.949 76.46C470.943 76.46 471.461 77.02 471.461 77.846C471.461 78.616 471.055 79.092 470.061 80.17L466.771 83.712V85Z" fill="white"/>
<path d="M328 136C328 124.686 328 119.029 331.515 115.515C335.029 112 340.686 112 352 112H474C485.314 112 490.971 112 494.485 115.515C498 119.029 498 124.686 498 136V136C498 147.314 498 152.971 494.485 156.485C490.971 160 485.314 160 474 160H352C340.686 160 335.029 160 331.515 156.485C328 152.971 328 147.314 328 136V136Z" fill="white"/>
<path d="M354.004 131.2H352.506L348.908 140.86V141H350.182L351.106 138.438H355.39L356.314 141H357.616V140.86L354.004 131.2ZM351.498 137.346L353.22 132.558H353.276L354.998 137.346H351.498ZM361.651 141.126C363.513 141.126 364.465 140.104 364.605 138.592H363.429C363.331 139.544 362.701 140.09 361.637 140.09C360.167 140.09 359.593 138.928 359.593 137.43C359.593 135.96 360.167 134.77 361.637 134.77C362.673 134.77 363.331 135.344 363.401 136.296H364.577C364.479 134.854 363.555 133.72 361.637 133.72C359.509 133.72 358.403 135.204 358.403 137.43C358.403 139.684 359.509 141.126 361.651 141.126ZM368.945 141H370.009V139.964H369.169C368.525 139.964 368.231 139.67 368.231 138.984V134.84H369.981V133.846H368.231V131.928H367.083V133.846H365.865V134.84H367.055V139.082C367.055 140.272 367.531 141 368.945 141ZM371.827 132.362H373.143V130.99H371.827V132.362ZM371.897 141H373.073V133.846H371.897V141ZM378.125 141.126C380.365 141.126 381.359 139.474 381.359 137.43C381.359 135.372 380.337 133.72 378.125 133.72C375.913 133.72 374.891 135.372 374.891 137.43C374.891 139.488 375.885 141.126 378.125 141.126ZM378.125 140.076C376.683 140.076 376.081 138.97 376.081 137.43C376.081 135.904 376.669 134.77 378.125 134.77C379.581 134.77 380.169 135.89 380.169 137.43C380.169 138.97 379.581 140.076 378.125 140.076ZM383.313 141H384.489V137.052C384.489 135.61 385.189 134.77 386.379 134.77C387.513 134.77 388.031 135.414 388.031 136.534V141H389.207V136.352C389.207 134.714 388.283 133.72 386.701 133.72C385.595 133.72 384.867 134.238 384.489 134.966H384.433L384.335 133.846H383.313V141ZM395.781 141H396.957V137.528C396.957 135.848 397.573 134.896 398.931 134.896H399.491V133.762H398.847C397.965 133.762 397.251 134.252 396.957 135.05H396.901L396.803 133.846H395.781V141ZM403.651 141.126C405.177 141.126 406.437 140.244 406.633 138.928H405.457C405.261 139.684 404.589 140.076 403.651 140.076C402.321 140.076 401.635 139.138 401.635 137.78H406.731V137.206C406.731 135.218 405.653 133.72 403.637 133.72C401.425 133.72 400.403 135.358 400.403 137.43C400.403 139.53 401.537 141.126 403.651 141.126ZM401.649 136.8C401.691 135.68 402.293 134.77 403.637 134.77C404.911 134.77 405.513 135.666 405.513 136.8H401.649ZM413.378 144.206H414.554V133.846H413.532L413.378 134.84H413.322C412.944 134.21 412.23 133.72 411.166 133.72C409.29 133.72 408.142 135.12 408.128 137.43C408.142 139.544 409.15 141.126 411.166 141.126C412.23 141.126 412.944 140.636 413.322 140.006H413.378V144.206ZM411.362 140.076C409.878 140.076 409.318 138.858 409.318 137.43C409.318 135.988 409.878 134.77 411.362 134.77C412.79 134.77 413.406 136.002 413.406 137.43C413.406 138.844 412.79 140.076 411.362 140.076ZM419.298 141.112C420.404 141.112 421.132 140.594 421.51 139.866H421.566L421.664 141H422.686V133.846H421.51V137.78C421.51 139.222 420.81 140.062 419.62 140.062C418.486 140.062 417.968 139.418 417.968 138.298V133.846H416.792V138.48C416.792 140.118 417.716 141.112 419.298 141.112ZM424.997 132.362H426.313V130.99H424.997V132.362ZM425.067 141H426.243V133.846H425.067V141ZM428.621 141H429.797V137.528C429.797 135.848 430.413 134.896 431.771 134.896H432.331V133.762H431.687C430.805 133.762 430.091 134.252 429.797 135.05H429.741L429.643 133.846H428.621V141ZM436.491 141.126C438.017 141.126 439.277 140.244 439.473 138.928H438.297C438.101 139.684 437.429 140.076 436.491 140.076C435.161 140.076 434.475 139.138 434.475 137.78H439.571V137.206C439.571 135.218 438.493 133.72 436.477 133.72C434.265 133.72 433.243 135.358 433.243 137.43C433.243 139.53 434.377 141.126 436.491 141.126ZM434.489 136.8C434.531 135.68 435.133 134.77 436.477 134.77C437.751 134.77 438.353 135.666 438.353 136.8H434.489ZM444.006 141.126C445.07 141.126 445.784 140.636 446.162 140.006H446.218L446.372 141H447.394V130.64H446.218V134.84H446.162C445.784 134.21 445.07 133.72 444.006 133.72C441.99 133.72 440.982 135.302 440.968 137.416C440.982 139.726 442.13 141.126 444.006 141.126ZM444.202 140.076C442.718 140.076 442.158 138.858 442.158 137.416C442.158 135.988 442.718 134.77 444.202 134.77C445.63 134.77 446.246 136.002 446.246 137.416C446.246 138.844 445.63 140.076 444.202 140.076Z" fill="#535E61"/>
<path d="M459 135.5C459 130.328 459 127.742 460.489 126.044C460.662 125.847 460.847 125.662 461.044 125.489C462.742 124 465.328 124 470.5 124V124C475.672 124 478.258 124 479.956 125.489C480.153 125.662 480.338 125.847 480.511 126.044C482 127.742 482 130.328 482 135.5V136.5C482 141.672 482 144.258 480.511 145.956C480.338 146.153 480.153 146.338 479.956 146.511C478.258 148 475.672 148 470.5 148V148C465.328 148 462.742 148 461.044 146.511C460.847 146.338 460.662 146.153 460.489 145.956C459 144.258 459 141.672 459 136.5V135.5Z" fill="#EFF1F2"/>
<path d="M467.648 140H473.204V138.752H469.508V138.704L471.572 136.496C472.604 135.392 473.072 134.732 473.072 133.82C473.072 132.452 472.016 131.456 470.372 131.456C468.68 131.456 467.624 132.488 467.624 134.108H468.98C468.98 133.148 469.544 132.68 470.372 132.68C471.224 132.68 471.668 133.16 471.668 133.868C471.668 134.528 471.32 134.936 470.468 135.86L467.648 138.896V140Z" fill="#535E61"/>
<path d="M331.515 156.485L330.808 157.192L331.515 156.485ZM494.485 156.485L493.778 155.778L494.485 156.485ZM331.515 115.515L330.808 114.808L331.515 115.515ZM352 113H474V111H352V113ZM474 159H352V161H474V159ZM352 159C346.315 159 342.152 158.998 338.966 158.57C335.809 158.145 333.762 157.319 332.222 155.778L330.808 157.192C332.782 159.167 335.321 160.097 338.699 160.552C342.049 161.002 346.371 161 352 161V159ZM327 136C327 141.629 326.998 145.951 327.448 149.301C327.903 152.679 328.833 155.218 330.808 157.192L332.222 155.778C330.681 154.238 329.855 152.191 329.43 149.034C329.002 145.848 329 141.685 329 136H327ZM497 136C497 141.685 496.998 145.848 496.57 149.034C496.145 152.191 495.319 154.238 493.778 155.778L495.192 157.192C497.167 155.218 498.097 152.679 498.552 149.301C499.002 145.951 499 141.629 499 136H497ZM474 161C479.629 161 483.951 161.002 487.301 160.552C490.679 160.097 493.218 159.167 495.192 157.192L493.778 155.778C492.238 157.319 490.191 158.145 487.034 158.57C483.848 158.998 479.685 159 474 159V161ZM474 113C479.685 113 483.848 113.002 487.034 113.43C490.191 113.855 492.238 114.681 493.778 116.222L495.192 114.808C493.218 112.833 490.679 111.903 487.301 111.448C483.951 110.998 479.629 111 474 111V113ZM499 136C499 130.371 499.002 126.049 498.552 122.699C498.097 119.321 497.167 116.782 495.192 114.808L493.778 116.222C495.319 117.762 496.145 119.809 496.57 122.966C496.998 126.152 497 130.315 497 136H499ZM352 111C346.371 111 342.049 110.998 338.699 111.448C335.321 111.903 332.782 112.833 330.808 114.808L332.222 116.222C333.762 114.681 335.809 113.855 338.966 113.43C342.152 113.002 346.315 113 352 113V111ZM329 136C329 130.315 329.002 126.152 329.43 122.966C329.855 119.809 330.681 117.762 332.222 116.222L330.808 114.808C328.833 116.782 327.903 119.321 327.448 122.699C326.998 126.049 327 130.371 327 136H329Z" fill="#EAEBEF"/>
<path d="M328 192C328 180.686 328 175.029 331.515 171.515C335.029 168 340.686 168 352 168H474C485.314 168 490.971 168 494.485 171.515C498 175.029 498 180.686 498 192V192C498 203.314 498 208.971 494.485 212.485C490.971 216 485.314 216 474 216H352C340.686 216 335.029 216 331.515 212.485C328 208.971 328 203.314 328 192V192Z" fill="white"/>
<path d="M349.712 197H350.944V187.2H349.712V197ZM353.605 197H354.781V193.052C354.781 191.61 355.481 190.77 356.671 190.77C357.805 190.77 358.323 191.414 358.323 192.534V197H359.499V192.352C359.499 190.714 358.575 189.72 356.993 189.72C355.887 189.72 355.159 190.238 354.781 190.966H354.725L354.627 189.846H353.605V197ZM366.073 200.206H367.249V196.006H367.305C367.683 196.636 368.397 197.126 369.461 197.126C371.477 197.126 372.485 195.544 372.499 193.43C372.485 191.12 371.337 189.72 369.461 189.72C368.397 189.72 367.683 190.21 367.305 190.84H367.249L367.095 189.846H366.073V200.206ZM369.265 196.076C367.837 196.076 367.221 194.844 367.221 193.43C367.221 192.002 367.837 190.77 369.265 190.77C370.749 190.77 371.309 191.988 371.309 193.43C371.309 194.858 370.749 196.076 369.265 196.076ZM374.454 197H375.63V193.528C375.63 191.848 376.246 190.896 377.604 190.896H378.164V189.762H377.52C376.638 189.762 375.924 190.252 375.63 191.05H375.574L375.476 189.846H374.454V197ZM382.31 197.126C384.55 197.126 385.544 195.474 385.544 193.43C385.544 191.372 384.522 189.72 382.31 189.72C380.098 189.72 379.076 191.372 379.076 193.43C379.076 195.488 380.07 197.126 382.31 197.126ZM382.31 196.076C380.868 196.076 380.266 194.97 380.266 193.43C380.266 191.904 380.854 190.77 382.31 190.77C383.766 190.77 384.354 191.89 384.354 193.43C384.354 194.97 383.766 196.076 382.31 196.076ZM390.199 200.332C392.243 200.332 393.363 199.058 393.363 197.42V189.846H392.341L392.187 190.84H392.131C391.753 190.21 391.039 189.72 389.975 189.72C388.099 189.72 386.951 191.12 386.937 193.43C386.951 195.544 387.959 197.126 389.975 197.126C391.039 197.126 391.753 196.636 392.131 196.006H392.187V197.392C392.187 198.47 391.571 199.324 390.199 199.324C388.883 199.324 388.337 198.596 388.281 197.91H387.147C387.189 199.282 388.365 200.332 390.199 200.332ZM390.171 196.076C388.687 196.076 388.127 194.858 388.127 193.43C388.127 191.988 388.687 190.77 390.171 190.77C391.599 190.77 392.215 192.002 392.215 193.43C392.215 194.844 391.599 196.076 390.171 196.076ZM395.741 197H396.917V193.528C396.917 191.848 397.533 190.896 398.891 190.896H399.451V189.762H398.807C397.925 189.762 397.211 190.252 396.917 191.05H396.861L396.763 189.846H395.741V197ZM403.611 197.126C405.137 197.126 406.397 196.244 406.593 194.928H405.417C405.221 195.684 404.549 196.076 403.611 196.076C402.281 196.076 401.595 195.138 401.595 193.78H406.691V193.206C406.691 191.218 405.613 189.72 403.597 189.72C401.385 189.72 400.363 191.358 400.363 193.43C400.363 195.53 401.497 197.126 403.611 197.126ZM401.609 192.8C401.651 191.68 402.253 190.77 403.597 190.77C404.871 190.77 405.473 191.666 405.473 192.8H401.609ZM411.014 197.126C412.554 197.126 413.842 196.37 413.842 195.054C413.842 193.822 413.156 193.29 411.812 192.982L410.692 192.772C409.908 192.646 409.446 192.324 409.446 191.764C409.446 191.064 410.048 190.714 410.916 190.714C411.812 190.714 412.484 191.12 412.526 192.03H413.674C413.674 190.602 412.526 189.72 410.916 189.72C409.334 189.72 408.312 190.574 408.312 191.764C408.312 192.814 408.956 193.528 410.132 193.766L411.56 194.032C412.33 194.2 412.652 194.578 412.652 195.054C412.652 195.74 412.022 196.076 411.014 196.076C409.992 196.076 409.264 195.586 409.264 194.634H408.088C408.13 196.202 409.32 197.126 411.014 197.126ZM418.164 197.126C419.704 197.126 420.992 196.37 420.992 195.054C420.992 193.822 420.306 193.29 418.962 192.982L417.842 192.772C417.058 192.646 416.596 192.324 416.596 191.764C416.596 191.064 417.198 190.714 418.066 190.714C418.962 190.714 419.634 191.12 419.676 192.03H420.824C420.824 190.602 419.676 189.72 418.066 189.72C416.484 189.72 415.462 190.574 415.462 191.764C415.462 192.814 416.106 193.528 417.282 193.766L418.71 194.032C419.48 194.2 419.802 194.578 419.802 195.054C419.802 195.74 419.172 196.076 418.164 196.076C417.142 196.076 416.414 195.586 416.414 194.634H415.238C415.28 196.202 416.47 197.126 418.164 197.126Z" fill="#535E61"/>
<path d="M452 192C452 186.343 452 183.515 453.757 181.757C455.515 180 458.343 180 464 180H470C475.657 180 478.485 180 480.243 181.757C482 183.515 482 186.343 482 192V192C482 197.657 482 200.485 480.243 202.243C478.485 204 475.657 204 470 204H464C458.343 204 455.515 204 453.757 202.243C452 200.485 452 197.657 452 192V192Z" fill="#EFF1F2"/>
<path d="M460.648 196H466.204V194.752H462.508V194.704L464.572 192.496C465.604 191.392 466.072 190.732 466.072 189.82C466.072 188.452 465.016 187.456 463.372 187.456C461.68 187.456 460.624 188.488 460.624 190.108H461.98C461.98 189.148 462.544 188.68 463.372 188.68C464.224 188.68 464.668 189.16 464.668 189.868C464.668 190.528 464.32 190.936 463.468 191.86L460.648 194.896V196ZM470.941 196H472.321V194.332H473.401V193.108H472.321V187.6H470.521L467.173 192.964V194.332H470.941V196ZM468.517 193.108V193.06L470.893 189.16H470.941V193.108H468.517Z" fill="#535E61"/>
<path d="M331.515 212.485L330.808 213.192L331.515 212.485ZM494.485 212.485L493.778 211.778L494.485 212.485ZM331.515 171.515L330.808 170.808L331.515 171.515ZM352 169H474V167H352V169ZM474 215H352V217H474V215ZM352 215C346.315 215 342.152 214.998 338.966 214.57C335.809 214.145 333.762 213.319 332.222 211.778L330.808 213.192C332.782 215.167 335.321 216.097 338.699 216.552C342.049 217.002 346.371 217 352 217V215ZM327 192C327 197.629 326.998 201.951 327.448 205.301C327.903 208.679 328.833 211.218 330.808 213.192L332.222 211.778C330.681 210.238 329.855 208.191 329.43 205.034C329.002 201.848 329 197.685 329 192H327ZM497 192C497 197.685 496.998 201.848 496.57 205.034C496.145 208.191 495.319 210.238 493.778 211.778L495.192 213.192C497.167 211.218 498.097 208.679 498.552 205.301C499.002 201.951 499 197.629 499 192H497ZM474 217C479.629 217 483.951 217.002 487.301 216.552C490.679 216.097 493.218 215.167 495.192 213.192L493.778 211.778C492.238 213.319 490.191 214.145 487.034 214.57C483.848 214.998 479.685 215 474 215V217ZM474 169C479.685 169 483.848 169.002 487.034 169.43C490.191 169.855 492.238 170.681 493.778 172.222L495.192 170.808C493.218 168.833 490.679 167.903 487.301 167.448C483.951 166.998 479.629 167 474 167V169ZM499 192C499 186.371 499.002 182.049 498.552 178.699C498.097 175.321 497.167 172.782 495.192 170.808L493.778 172.222C495.319 173.762 496.145 175.809 496.57 178.966C496.998 182.152 497 186.315 497 192H499ZM352 167C346.371 167 342.049 166.998 338.699 167.448C335.321 167.903 332.782 168.833 330.808 170.808L332.222 172.222C333.762 170.681 335.809 169.855 338.966 169.43C342.152 169.002 346.315 169 352 169V167ZM329 192C329 186.315 329.002 182.152 329.43 178.966C329.855 175.809 330.681 173.762 332.222 172.222L330.808 170.808C328.833 172.782 327.903 175.321 327.448 178.699C326.998 182.049 327 186.371 327 192H329Z" fill="#EAEBEF"/>
<rect x="248" width="66" height="26" rx="4" fill="#D4FE00"/>
<path d="M256.867 17H258.247V8.6H256.855L254.767 10.184V11.528H254.887L256.819 10.052H256.867V17ZM263.2 17.108C265.42 17.108 266.284 15.284 266.284 12.776C266.284 10.28 265.42 8.456 263.2 8.456C260.98 8.456 260.116 10.28 260.116 12.776C260.116 15.284 260.98 17.108 263.2 17.108ZM263.2 15.884C261.88 15.884 261.52 14.612 261.52 12.776C261.52 10.952 261.892 9.68 263.2 9.68C264.508 9.68 264.88 10.952 264.88 12.776C264.88 14.612 264.52 15.884 263.2 15.884ZM267.735 12.932H269.319V11.372H267.735V12.932ZM267.735 17H269.319V15.44H267.735V17ZM273.87 17.108C276.09 17.108 276.954 15.284 276.954 12.776C276.954 10.28 276.09 8.456 273.87 8.456C271.65 8.456 270.786 10.28 270.786 12.776C270.786 15.284 271.65 17.108 273.87 17.108ZM273.87 15.884C272.55 15.884 272.19 14.612 272.19 12.776C272.19 10.952 272.562 9.68 273.87 9.68C275.178 9.68 275.55 10.952 275.55 12.776C275.55 14.612 275.19 15.884 273.87 15.884ZM281.525 17.108C283.745 17.108 284.609 15.284 284.609 12.776C284.609 10.28 283.745 8.456 281.525 8.456C279.305 8.456 278.441 10.28 278.441 12.776C278.441 15.284 279.305 17.108 281.525 17.108ZM281.525 15.884C280.205 15.884 279.845 14.612 279.845 12.776C279.845 10.952 280.217 9.68 281.525 9.68C282.833 9.68 283.205 10.952 283.205 12.776C283.205 14.612 282.845 15.884 281.525 15.884ZM294.041 8.6H292.277L289.277 16.88V17H290.765L291.425 15.056H294.857L295.517 17H297.053V16.88L294.041 8.6ZM291.845 13.82L293.117 10.076H293.165L294.437 13.82H291.845ZM298.485 17H299.841V10.796H299.889L302.661 15.584H302.781L305.553 10.832H305.601V17H306.957V8.6H305.385L302.757 13.184H302.709L300.081 8.6H298.485V17Z" fill="#08323C"/>
<rect x="118.528" y="240.528" width="324.943" height="226.943" rx="9.47155" fill="white"/>
<path d="M118 249.998C118 249.998 118.828 246.755 120 244.998C121.172 243.241 124 240.998 124 240.998V467.002C124 467.002 121.172 465.353 120 463.498C118.828 461.643 118 458.498 118 458.498V249.998Z" fill="#1298A3"/>
<path d="M146.557 253.687C151.148 251.785 156.411 253.966 158.313 258.557C160.215 263.148 158.034 268.411 153.443 270.313C148.852 272.215 143.589 270.034 141.687 265.443C139.786 260.852 141.966 255.589 146.557 253.687" stroke="#1298A3" stroke-width="1.5" stroke-linecap="round" stroke-linejoin="round"/>
<path d="M149.718 257.985V262.636L153.374 264.865" stroke="#1298A3" stroke-width="1.5" stroke-linecap="round" stroke-linejoin="round"/>
<path fill-rule="evenodd" clip-rule="evenodd" d="M146.135 309.928H155.865L151 301.489L146.135 309.928ZM139.737 312.937C139.165 311.949 139.164 310.73 139.734 309.741L147.634 296.037C148.204 295.047 149.26 294.438 150.402 294.438H151.598C152.74 294.438 153.796 295.047 154.366 296.037L162.266 309.741C162.836 310.73 162.835 311.949 162.263 312.937L161.666 313.968C161.095 314.955 160.041 315.562 158.901 315.562H143.099C141.959 315.562 140.905 314.955 140.334 313.968L139.737 312.937Z" fill="#2684FF"/>
<path d="M180.26 307.228C180.26 305.548 179.112 304.694 177.292 304.316L177.012 304.26V301.614C177.95 301.782 178.384 302.37 178.426 303.112H180.092C180.078 301.474 178.846 300.312 177.012 300.102V298.94H175.878V300.102C173.974 300.256 172.84 301.306 172.84 302.818C172.84 304.47 173.932 305.226 175.626 305.59L175.878 305.646V308.614C174.87 308.474 174.254 307.858 174.184 306.878H172.518C172.602 308.698 173.736 309.93 175.878 310.112V311.26H177.012V310.098C179.168 309.93 180.26 308.838 180.26 307.228ZM174.534 302.818C174.534 302.132 174.996 301.698 175.878 301.586V304.022C174.954 303.798 174.534 303.42 174.534 302.818ZM177.012 308.628V305.884L177.054 305.898C178.034 306.108 178.566 306.486 178.566 307.256C178.566 308.026 178.062 308.502 177.012 308.628ZM183.94 310H185.55V300.2H183.926L181.49 302.048V303.616H181.63L183.884 301.894H183.94V310ZM190.937 310.126C193.191 310.126 194.381 308.712 194.381 306.738C194.381 304.918 193.163 303.546 191.189 303.546C190.307 303.546 189.677 303.84 189.285 304.218H189.229L189.411 301.642H193.793V300.2H188.067L187.689 305.744H189.285C189.649 305.254 190.139 304.89 190.951 304.89C192.211 304.89 192.757 305.772 192.757 306.766C192.757 307.802 192.253 308.698 190.937 308.698C189.761 308.698 189.187 307.97 189.145 307.172H187.535C187.535 308.81 188.879 310.126 190.937 310.126ZM195.861 310H197.709V308.18H195.861V310ZM199.784 310H201.45L205.608 301.74V300.2H198.93V301.67H203.956V301.726L199.784 309.86V310ZM210.271 310.126C212.567 310.126 213.701 308.768 213.701 307.144C213.701 306.01 213.015 305.128 211.979 304.806V304.75C212.875 304.414 213.393 303.728 213.393 302.636C213.393 301.054 212.007 300.032 210.229 300.032C208.241 300.032 206.981 301.138 206.939 302.972H208.549C208.563 302.076 209.081 301.446 210.187 301.446C211.251 301.446 211.741 302.048 211.741 302.776C211.741 303.63 211.125 304.19 210.089 304.19H209.263V305.604H210.117C211.405 305.604 212.049 306.206 212.049 307.172C212.049 308.068 211.447 308.712 210.257 308.712C208.927 308.712 208.395 307.942 208.395 307.13H206.799C206.799 309.034 208.241 310.126 210.271 310.126Z" fill="#535E61"/>
<path d="M300 301C300 295.343 300 292.515 301.757 290.757C303.515 289 306.343 289 312 289H384C389.657 289 392.485 289 394.243 290.757C396 292.515 396 295.343 396 301V309C396 314.657 396 317.485 394.243 319.243C392.485 321 389.657 321 384 321H312C306.343 321 303.515 321 301.757 319.243C300 317.485 300 314.657 300 309V301Z" fill="#40CDA0" fill-opacity="0.12"/>
<path d="M317.131 298.073C320.957 296.488 325.342 298.305 326.927 302.131C328.512 305.957 326.695 310.343 322.869 311.928C319.043 313.513 314.657 311.695 313.072 307.869C311.488 304.044 313.305 299.658 317.131 298.073" stroke="#1298A3" stroke-width="1.5" stroke-linecap="round" stroke-linejoin="round"/>
<path d="M319.765 301.654V305.53L322.812 307.388" stroke="#1298A3" stroke-width="1.5" stroke-linecap="round" stroke-linejoin="round"/>
<path d="M342.188 309H343.568V307.332H344.648V306.108H343.568V300.6H341.768L338.42 305.964V307.332H342.188V309ZM339.764 306.108V306.06L342.14 302.16H342.188V306.108H339.764ZM346.051 309H347.419V305.592C347.419 304.56 348.019 303.936 348.871 303.936C349.735 303.936 350.143 304.428 350.143 305.292V309H351.511V304.956C351.511 303.552 350.647 302.7 349.267 302.7C348.379 302.7 347.803 303.084 347.467 303.612H347.419V300.12H346.051V309ZM359.609 309.108C361.577 309.108 362.549 307.944 362.549 306.552C362.549 305.58 361.961 304.824 361.073 304.548V304.5C361.841 304.212 362.285 303.624 362.285 302.688C362.285 301.332 361.097 300.456 359.573 300.456C357.869 300.456 356.789 301.404 356.753 302.976H358.133C358.145 302.208 358.589 301.668 359.537 301.668C360.449 301.668 360.869 302.184 360.869 302.808C360.869 303.54 360.341 304.02 359.453 304.02H358.745V305.232H359.477C360.581 305.232 361.133 305.748 361.133 306.576C361.133 307.344 360.617 307.896 359.597 307.896C358.457 307.896 358.001 307.236 358.001 306.54H356.633C356.633 308.172 357.869 309.108 359.609 309.108ZM366.899 309.108C368.831 309.108 369.851 307.896 369.851 306.204C369.851 304.644 368.807 303.468 367.115 303.468C366.359 303.468 365.819 303.72 365.483 304.044H365.435L365.591 301.836H369.347V300.6H364.439L364.115 305.352H365.483C365.795 304.932 366.215 304.62 366.911 304.62C367.991 304.62 368.459 305.376 368.459 306.228C368.459 307.116 368.027 307.884 366.899 307.884C365.891 307.884 365.399 307.26 365.363 306.576H363.983C363.983 307.98 365.135 309.108 366.899 309.108ZM378.452 302.7C377.468 302.7 376.844 303.144 376.52 303.672H376.484C376.136 303.048 375.488 302.7 374.624 302.7C373.724 302.7 373.172 303.084 372.836 303.612H372.788L372.68 302.808H371.468V309H372.836V305.58C372.836 304.548 373.388 303.936 374.216 303.936C375.068 303.936 375.416 304.452 375.416 305.292V309H376.772V305.58C376.772 304.548 377.264 303.936 378.092 303.936C378.944 303.936 379.292 304.452 379.292 305.292V309H380.66V304.956C380.66 303.564 379.82 302.7 378.452 302.7Z" fill="#1298A3"/>
<path d="M412.997 310.502C412.722 310.502 412.497 310.727 412.5 311.002C412.5 311.277 412.725 311.502 413 311.502C413.275 311.502 413.5 311.277 413.5 311.002C413.5 310.727 413.275 310.502 412.997 310.502" stroke="#08323C" stroke-width="1.5" stroke-linecap="round" stroke-linejoin="round"/>
<path d="M412.997 304.5C412.722 304.5 412.497 304.725 412.5 305C412.5 305.275 412.725 305.5 413 305.5C413.275 305.5 413.5 305.275 413.5 305C413.5 304.725 413.275 304.5 412.997 304.5" stroke="#08323C" stroke-width="1.5" stroke-linecap="round" stroke-linejoin="round"/>
<path d="M412.997 298.497C412.722 298.497 412.497 298.722 412.5 298.997C412.5 299.272 412.725 299.497 413 299.497C413.275 299.497 413.5 299.272 413.5 298.997C413.5 298.722 413.275 298.497 412.997 298.497" stroke="#08323C" stroke-width="1.5" stroke-linecap="round" stroke-linejoin="round"/>
<rect x="138" y="336" width="292" height="1" fill="#F0F4F5"/>
<path d="M141.25 369.91C141.25 369.304 141.741 368.812 142.348 368.812H155.469C157.937 368.812 159.937 370.813 159.937 373.281V373.281C159.937 375.749 157.937 377.75 155.469 377.75H142.348C141.741 377.75 141.25 377.259 141.25 376.652V369.91Z" fill="#FF7629"/>
<path d="M141.25 359.348C141.25 358.741 141.741 358.25 142.348 358.25H153.844C156.312 358.25 158.312 360.251 158.312 362.719V362.719C158.312 365.187 156.312 367.188 153.844 367.188H142.348C141.741 367.188 141.25 366.696 141.25 366.09V359.348Z" fill="#FF2525"/>
<path d="M180.26 370.228C180.26 368.548 179.112 367.694 177.292 367.316L177.012 367.26V364.614C177.95 364.782 178.384 365.37 178.426 366.112H180.092C180.078 364.474 178.846 363.312 177.012 363.102V361.94H175.878V363.102C173.974 363.256 172.84 364.306 172.84 365.818C172.84 367.47 173.932 368.226 175.626 368.59L175.878 368.646V371.614C174.87 371.474 174.254 370.858 174.184 369.878H172.518C172.602 371.698 173.736 372.93 175.878 373.112V374.26H177.012V373.098C179.168 372.93 180.26 371.838 180.26 370.228ZM174.534 365.818C174.534 365.132 174.996 364.698 175.878 364.586V367.022C174.954 366.798 174.534 366.42 174.534 365.818ZM177.012 371.628V368.884L177.054 368.898C178.034 369.108 178.566 369.486 178.566 370.256C178.566 371.026 178.062 371.502 177.012 371.628ZM183.94 373H185.55V363.2H183.926L181.49 365.048V366.616H181.63L183.884 364.894H183.94V373ZM189.887 373H191.497V363.2H189.873L187.437 365.048V366.616H187.577L189.831 364.894H189.887V373ZM193.496 373H195.344V371.18H193.496V373ZM200.513 373.126C203.103 373.126 204.111 370.998 204.111 368.072C204.111 365.16 203.103 363.032 200.513 363.032C197.923 363.032 196.915 365.16 196.915 368.072C196.915 370.998 197.923 373.126 200.513 373.126ZM200.513 371.698C198.973 371.698 198.553 370.214 198.553 368.072C198.553 365.944 198.987 364.46 200.513 364.46C202.039 364.46 202.473 365.944 202.473 368.072C202.473 370.214 202.053 371.698 200.513 371.698ZM209.052 373.126C211.306 373.126 212.496 371.712 212.496 369.738C212.496 367.918 211.278 366.546 209.304 366.546C208.422 366.546 207.792 366.84 207.4 367.218H207.344L207.526 364.642H211.908V363.2H206.182L205.804 368.744H207.4C207.764 368.254 208.254 367.89 209.066 367.89C210.326 367.89 210.872 368.772 210.872 369.766C210.872 370.802 210.368 371.698 209.052 371.698C207.876 371.698 207.302 370.97 207.26 370.172H205.65C205.65 371.81 206.994 373.126 209.052 373.126Z" fill="#535E61"/>
<path d="M303 364C303 358.343 303 355.515 304.757 353.757C306.515 352 309.343 352 315 352H384C389.657 352 392.485 352 394.243 353.757C396 355.515 396 358.343 396 364V372C396 377.657 396 380.485 394.243 382.243C392.485 384 389.657 384 384 384H315C309.343 384 306.515 384 304.757 382.243C303 380.485 303 377.657 303 372V364Z" fill="#40CDA0" fill-opacity="0.12"/>
<path d="M320.131 361.073C323.957 359.488 328.342 361.305 329.927 365.131C331.512 368.957 329.695 373.343 325.869 374.928C322.043 376.513 317.657 374.695 316.072 370.869C314.488 367.044 316.305 362.658 320.131 361.073" stroke="#1298A3" stroke-width="1.5" stroke-linecap="round" stroke-linejoin="round"/>
<path d="M322.765 364.654V368.53L325.812 370.388" stroke="#1298A3" stroke-width="1.5" stroke-linecap="round" stroke-linejoin="round"/>
<path d="M341.648 372H347.204V370.752H343.508V370.704L345.572 368.496C346.604 367.392 347.072 366.732 347.072 365.82C347.072 364.452 346.016 363.456 344.372 363.456C342.68 363.456 341.624 364.488 341.624 366.108H342.98C342.98 365.148 343.544 364.68 344.372 364.68C345.224 364.68 345.668 365.16 345.668 365.868C345.668 366.528 345.32 366.936 344.468 367.86L341.648 370.896V372ZM348.828 372H350.196V368.592C350.196 367.56 350.796 366.936 351.648 366.936C352.512 366.936 352.92 367.428 352.92 368.292V372H354.288V367.956C354.288 366.552 353.424 365.7 352.044 365.7C351.156 365.7 350.58 366.084 350.244 366.612H350.196V363.12H348.828V372ZM361.426 372H362.806V363.6H361.414L359.326 365.184V366.528H359.446L361.378 365.052H361.426V372ZM365.108 372H366.536L370.1 364.92V363.6H364.376V364.86H368.684V364.908L365.108 371.88V372ZM378.464 365.7C377.48 365.7 376.856 366.144 376.532 366.672H376.496C376.148 366.048 375.5 365.7 374.636 365.7C373.736 365.7 373.184 366.084 372.848 366.612H372.8L372.692 365.808H371.48V372H372.848V368.58C372.848 367.548 373.4 366.936 374.228 366.936C375.08 366.936 375.428 367.452 375.428 368.292V372H376.784V368.58C376.784 367.548 377.276 366.936 378.104 366.936C378.956 366.936 379.304 367.452 379.304 368.292V372H380.672V367.956C380.672 366.564 379.832 365.7 378.464 365.7Z" fill="#1298A3"/>
<path d="M412.997 373.502C412.722 373.502 412.497 373.727 412.5 374.002C412.5 374.277 412.725 374.502 413 374.502C413.275 374.502 413.5 374.277 413.5 374.002C413.5 373.727 413.275 373.502 412.997 373.502" stroke="#08323C" stroke-width="1.5" stroke-linecap="round" stroke-linejoin="round"/>
<path d="M412.997 367.5C412.722 367.5 412.497 367.725 412.5 368C412.5 368.275 412.725 368.5 413 368.5C413.275 368.5 413.5 368.275 413.5 368C413.5 367.725 413.275 367.5 412.997 367.5" stroke="#08323C" stroke-width="1.5" stroke-linecap="round" stroke-linejoin="round"/>
<path d="M412.997 361.497C412.722 361.497 412.497 361.722 412.5 361.997C412.5 362.272 412.725 362.497 413 362.497C413.275 362.497 413.5 362.272 413.5 361.997C413.5 361.722 413.275 361.497 412.997 361.497" stroke="#08323C" stroke-width="1.5" stroke-linecap="round" stroke-linejoin="round"/>
<rect x="138" y="399" width="292" height="1" fill="#F0F4F5"/>
<path d="M160.75 423.788V438.21C158.658 440.773 155.474 442.409 151.908 442.409C145.606 442.409 140.498 437.3 140.498 430.999C140.498 424.698 145.606 419.59 151.908 419.59C155.474 419.59 158.658 421.226 160.75 423.788Z" fill="#16D835"/>
<path fill-rule="evenodd" clip-rule="evenodd" d="M142.397 437.304C144.441 440.381 147.937 442.409 151.908 442.409C155.474 442.409 158.658 440.773 160.75 438.211V423.688H160.75L142.397 437.304Z" fill="url(#paint0_linear_5137_36190)"/>
<path d="M180.26 433.228C180.26 431.548 179.112 430.694 177.292 430.316L177.012 430.26V427.614C177.95 427.782 178.384 428.37 178.426 429.112H180.092C180.078 427.474 178.846 426.312 177.012 426.102V424.94H175.878V426.102C173.974 426.256 172.84 427.306 172.84 428.818C172.84 430.47 173.932 431.226 175.626 431.59L175.878 431.646V434.614C174.87 434.474 174.254 433.858 174.184 432.878H172.518C172.602 434.698 173.736 435.93 175.878 436.112V437.26H177.012V436.098C179.168 435.93 180.26 434.838 180.26 433.228ZM174.534 428.818C174.534 428.132 174.996 427.698 175.878 427.586V430.022C174.954 429.798 174.534 429.42 174.534 428.818ZM177.012 434.628V431.884L177.054 431.898C178.034 432.108 178.566 432.486 178.566 433.256C178.566 434.026 178.062 434.502 177.012 434.628ZM181.602 436H188.084V434.544H183.772V434.488L186.18 431.912C187.384 430.624 187.93 429.854 187.93 428.79C187.93 427.194 186.698 426.032 184.78 426.032C182.806 426.032 181.574 427.236 181.574 429.126H183.156C183.156 428.006 183.814 427.46 184.78 427.46C185.774 427.46 186.292 428.02 186.292 428.846C186.292 429.616 185.886 430.092 184.892 431.17L181.602 434.712V436ZM193.47 436H195.08V434.054H196.34V432.626H195.08V426.2H192.98L189.074 432.458V434.054H193.47V436ZM190.642 432.626V432.57L193.414 428.02H193.47V432.626H190.642ZM197.57 436H199.418V434.18H197.57V436ZM206.281 430.834V430.778C207.121 430.372 207.597 429.602 207.597 428.622C207.597 427.04 206.323 426.046 204.405 426.032C202.487 426.046 201.213 427.04 201.213 428.622C201.213 429.602 201.689 430.372 202.529 430.778V430.834C201.465 431.254 200.919 432.094 200.919 433.228C200.919 435.062 202.305 436.112 204.405 436.126C206.505 436.112 207.891 435.062 207.891 433.228C207.891 432.094 207.345 431.254 206.281 430.834ZM204.405 427.432C205.385 427.432 205.973 427.936 205.973 428.776C205.973 429.602 205.371 430.148 204.405 430.148C203.439 430.148 202.837 429.602 202.837 428.776C202.837 427.936 203.425 427.432 204.405 427.432ZM204.405 434.726C203.187 434.712 202.557 434.096 202.557 433.13C202.557 432.22 203.145 431.562 204.405 431.548C205.665 431.562 206.253 432.22 206.253 433.13C206.253 434.096 205.623 434.712 204.405 434.726ZM214.703 430.834V430.778C215.543 430.372 216.019 429.602 216.019 428.622C216.019 427.04 214.745 426.046 212.827 426.032C210.909 426.046 209.635 427.04 209.635 428.622C209.635 429.602 210.111 430.372 210.951 430.778V430.834C209.887 431.254 209.341 432.094 209.341 433.228C209.341 435.062 210.727 436.112 212.827 436.126C214.927 436.112 216.313 435.062 216.313 433.228C216.313 432.094 215.767 431.254 214.703 430.834ZM212.827 427.432C213.807 427.432 214.395 427.936 214.395 428.776C214.395 429.602 213.793 430.148 212.827 430.148C211.861 430.148 211.259 429.602 211.259 428.776C211.259 427.936 211.847 427.432 212.827 427.432ZM212.827 434.726C211.609 434.712 210.979 434.096 210.979 433.13C210.979 432.22 211.567 431.562 212.827 431.548C214.087 431.562 214.675 432.22 214.675 433.13C214.675 434.096 214.045 434.712 212.827 434.726Z" fill="#535E61"/>
<path d="M302 427C302 421.343 302 418.515 303.757 416.757C305.515 415 308.343 415 314 415H384C389.657 415 392.485 415 394.243 416.757C396 418.515 396 421.343 396 427V435C396 440.657 396 443.485 394.243 445.243C392.485 447 389.657 447 384 447H314C308.343 447 305.515 447 303.757 445.243C302 443.485 302 440.657 302 435V427Z" fill="#40CDA0" fill-opacity="0.12"/>
<path d="M319.131 424.073C322.957 422.488 327.342 424.305 328.927 428.131C330.512 431.957 328.695 436.343 324.869 437.928C321.043 439.513 316.657 437.695 315.072 433.869C313.488 430.044 315.305 425.658 319.131 424.073" stroke="#1298A3" stroke-width="1.5" stroke-linecap="round" stroke-linejoin="round"/>
<path d="M321.765 427.654V431.53L324.812 433.388" stroke="#1298A3" stroke-width="1.5" stroke-linecap="round" stroke-linejoin="round"/>
<path d="M342.652 435H344.032V426.6H342.64L340.552 428.184V429.528H340.672L342.604 428.052H342.652V435ZM346.094 435H347.462V431.592C347.462 430.56 348.062 429.936 348.914 429.936C349.778 429.936 350.186 430.428 350.186 431.292V435H351.554V430.956C351.554 429.552 350.69 428.7 349.31 428.7C348.422 428.7 347.846 429.084 347.51 429.612H347.462V426.12H346.094V435ZM359.592 435.108C361.524 435.108 362.544 433.896 362.544 432.204C362.544 430.644 361.5 429.468 359.808 429.468C359.052 429.468 358.512 429.72 358.176 430.044H358.128L358.284 427.836H362.04V426.6H357.132L356.808 431.352H358.176C358.488 430.932 358.908 430.62 359.604 430.62C360.684 430.62 361.152 431.376 361.152 432.228C361.152 433.116 360.72 433.884 359.592 433.884C358.584 433.884 358.092 433.26 358.056 432.576H356.676C356.676 433.98 357.828 435.108 359.592 435.108ZM368.505 430.572V430.524C369.225 430.176 369.633 429.516 369.633 428.676C369.633 427.32 368.541 426.468 366.897 426.456C365.253 426.468 364.161 427.32 364.161 428.676C364.161 429.516 364.569 430.176 365.289 430.524V430.572C364.377 430.932 363.909 431.652 363.909 432.624C363.909 434.196 365.097 435.096 366.897 435.108C368.697 435.096 369.885 434.196 369.885 432.624C369.885 431.652 369.417 430.932 368.505 430.572ZM366.897 427.656C367.737 427.656 368.241 428.088 368.241 428.808C368.241 429.516 367.725 429.984 366.897 429.984C366.069 429.984 365.553 429.516 365.553 428.808C365.553 428.088 366.057 427.656 366.897 427.656ZM366.897 433.908C365.853 433.896 365.313 433.368 365.313 432.54C365.313 431.76 365.817 431.196 366.897 431.184C367.977 431.196 368.481 431.76 368.481 432.54C368.481 433.368 367.941 433.896 366.897 433.908ZM378.483 428.7C377.499 428.7 376.875 429.144 376.551 429.672H376.515C376.167 429.048 375.519 428.7 374.655 428.7C373.755 428.7 373.203 429.084 372.867 429.612H372.819L372.711 428.808H371.499V435H372.867V431.58C372.867 430.548 373.419 429.936 374.247 429.936C375.099 429.936 375.447 430.452 375.447 431.292V435H376.803V431.58C376.803 430.548 377.295 429.936 378.123 429.936C378.975 429.936 379.323 430.452 379.323 431.292V435H380.691V430.956C380.691 429.564 379.851 428.7 378.483 428.7Z" fill="#1298A3"/>
<path d="M412.997 436.502C412.722 436.502 412.497 436.727 412.5 437.002C412.5 437.277 412.725 437.502 413 437.502C413.275 437.502 413.5 437.277 413.5 437.002C413.5 436.727 413.275 436.502 412.997 436.502" stroke="#08323C" stroke-width="1.5" stroke-linecap="round" stroke-linejoin="round"/>
<path d="M412.997 430.5C412.722 430.5 412.497 430.725 412.5 431C412.5 431.275 412.725 431.5 413 431.5C413.275 431.5 413.5 431.275 413.5 431C413.5 430.725 413.275 430.5 412.997 430.5" stroke="#08323C" stroke-width="1.5" stroke-linecap="round" stroke-linejoin="round"/>
<path d="M412.997 424.497C412.722 424.497 412.497 424.722 412.5 424.997C412.5 425.272 412.725 425.497 413 425.497C413.275 425.497 413.5 425.272 413.5 424.997C413.5 424.722 413.275 424.497 412.997 424.497" stroke="#08323C" stroke-width="1.5" stroke-linecap="round" stroke-linejoin="round"/>
<rect x="118.528" y="240.528" width="324.943" height="226.943" rx="9.47155" stroke="#EAEBEF" stroke-width="1.05689"/>
<g filter="url(#filter0_d_5137_36190)">
<rect x="30" y="53" width="272" height="161" rx="10" fill="white"/>
</g>
<rect x="28.5284" y="51.5284" width="274.943" height="163.943" rx="9.47155" fill="white"/>
<path d="M28 63C28 63 28.0374 58.6558 29.5 56.5C30.75 54.6577 34 53 34 53V215C34 215 31.2068 212.85 30 211C28.8512 209.238 28 206 28 206V63Z" fill="#4D72F7"/>
<path d="M64.5019 63.9961V66.9973" stroke="#4D72F7" stroke-width="1.5" stroke-linecap="round" stroke-linejoin="round"/>
<path d="M55.4983 63.9961V66.9973" stroke="#4D72F7" stroke-width="1.5" stroke-linecap="round" stroke-linejoin="round"/>
<rect x="50.9963" y="65.4971" width="18.0075" height="16.5069" rx="3" stroke="#4D72F7" stroke-width="1.5" stroke-linecap="round" stroke-linejoin="round"/>
<path d="M61.0105 72L63.0113 74.0008L61.0105 76.0017" stroke="#4D72F7" stroke-width="1.5" stroke-linecap="round" stroke-linejoin="round"/>
<path d="M56.9988 74.0002H63.0013" stroke="#4D72F7" stroke-width="1.5" stroke-linecap="round" stroke-linejoin="round"/>
<rect x="53.6875" y="106.25" width="2.4375" height="19.5" rx="1.21875" fill="#EB00FF"/>
<rect x="57.75" y="106.25" width="2.4375" height="19.5" rx="1.21875" fill="#AD00FF"/>
<rect x="61.8125" y="107.875" width="2.4375" height="16.25" rx="1.21875" fill="#6100FF"/>
<rect x="65.875" y="110.312" width="2.4375" height="11.375" rx="1.21875" fill="#0038FF"/>
<path d="M90.26 118.228C90.26 116.548 89.112 115.694 87.292 115.316L87.012 115.26V112.614C87.95 112.782 88.384 113.37 88.426 114.112H90.092C90.078 112.474 88.846 111.312 87.012 111.102V109.94H85.878V111.102C83.974 111.256 82.84 112.306 82.84 113.818C82.84 115.47 83.932 116.226 85.626 116.59L85.878 116.646V119.614C84.87 119.474 84.254 118.858 84.184 117.878H82.518C82.602 119.698 83.736 120.93 85.878 121.112V122.26H87.012V121.098C89.168 120.93 90.26 119.838 90.26 118.228ZM84.534 113.818C84.534 113.132 84.996 112.698 85.878 112.586V115.022C84.954 114.798 84.534 114.42 84.534 113.818ZM87.012 119.628V116.884L87.054 116.898C88.034 117.108 88.566 117.486 88.566 118.256C88.566 119.026 88.062 119.502 87.012 119.628ZM94.9897 121.126C97.2437 121.126 98.4337 119.712 98.4337 117.738C98.4337 115.918 97.2157 114.546 95.2417 114.546C94.3597 114.546 93.7297 114.84 93.3377 115.218H93.2817L93.4637 112.642H97.8457V111.2H92.1197L91.7417 116.744H93.3377C93.7017 116.254 94.1917 115.89 95.0037 115.89C96.2637 115.89 96.8097 116.772 96.8097 117.766C96.8097 118.802 96.3057 119.698 94.9897 119.698C93.8137 119.698 93.2397 118.97 93.1977 118.172H91.5877C91.5877 119.81 92.9317 121.126 94.9897 121.126ZM99.9142 121H101.762V119.18H99.9142V121ZM106.931 121.126C109.101 121.126 110.389 119.656 110.389 117.794C110.389 116.128 109.241 114.602 107.183 114.602C106.077 114.602 105.377 115.078 104.943 115.736H104.887C104.887 113.818 105.573 112.474 107.071 112.474C108.009 112.474 108.597 112.964 108.723 113.692H110.291C110.109 112.194 108.947 111.032 107.071 111.032C104.425 111.032 103.333 113.384 103.333 116.254C103.333 119.11 104.397 121.126 106.931 121.126ZM106.945 119.698C105.783 119.698 105.097 118.9 105.097 117.808C105.097 116.758 105.769 115.946 106.945 115.946C108.135 115.946 108.779 116.758 108.779 117.822C108.779 118.9 108.065 119.698 106.945 119.698ZM115.585 121.126C118.175 121.126 119.183 118.998 119.183 116.072C119.183 113.16 118.175 111.032 115.585 111.032C112.995 111.032 111.987 113.16 111.987 116.072C111.987 118.998 112.995 121.126 115.585 121.126ZM115.585 119.698C114.045 119.698 113.625 118.214 113.625 116.072C113.625 113.944 114.059 112.46 115.585 112.46C117.111 112.46 117.545 113.944 117.545 116.072C117.545 118.214 117.125 119.698 115.585 119.698Z" fill="#535E61"/>
<path d="M146 112C146 106.343 146 103.515 147.757 101.757C149.515 100 152.343 100 158 100H244C249.657 100 252.485 100 254.243 101.757C256 103.515 256 106.343 256 112V120C256 125.657 256 128.485 254.243 130.243C252.485 132 249.657 132 244 132H158C152.343 132 149.515 132 147.757 130.243C146 128.485 146 125.657 146 120V112Z" fill="#4D9FF7" fill-opacity="0.1"/>
<path d="M169.752 108.497V110.998" stroke="#4D72F7" stroke-width="1.5" stroke-linecap="round" stroke-linejoin="round"/>
<path d="M162.248 108.497V110.998" stroke="#4D72F7" stroke-width="1.5" stroke-linecap="round" stroke-linejoin="round"/>
<rect x="158.497" y="109.748" width="15.0062" height="13.7557" rx="3" stroke="#4D72F7" stroke-width="1.5" stroke-linecap="round" stroke-linejoin="round"/>
<path d="M166.842 115.167L168.509 116.834L166.842 118.502" stroke="#4D72F7" stroke-width="1.5" stroke-linecap="round" stroke-linejoin="round"/>
<path d="M163.499 116.834H168.501" stroke="#4D72F7" stroke-width="1.5" stroke-linecap="round" stroke-linejoin="round"/>
<path d="M188.272 120.108C190.276 120.108 191.644 118.968 191.644 116.88V111.6H190.228V116.856C190.228 117.996 189.688 118.836 188.272 118.836C186.88 118.836 186.328 117.996 186.328 116.856V111.6H184.924V116.88C184.924 118.968 186.304 120.108 188.272 120.108ZM193.562 122.748H194.93V119.256H194.978C195.29 119.724 195.842 120.108 196.742 120.108C198.41 120.108 199.322 118.752 199.322 116.904C199.322 114.972 198.338 113.7 196.742 113.7C195.842 113.7 195.29 114.084 194.978 114.552H194.93L194.774 113.808H193.562V122.748ZM196.406 118.896C195.314 118.896 194.882 117.972 194.882 116.904C194.882 115.836 195.314 114.912 196.406 114.912C197.522 114.912 197.942 115.824 197.942 116.904C197.942 117.984 197.534 118.896 196.406 118.896ZM203.34 120.108C205.032 120.108 205.896 119.124 206.004 117.756H204.636C204.564 118.464 204.084 118.908 203.304 118.908C202.248 118.908 201.78 118.128 201.78 116.904C201.78 115.704 202.248 114.912 203.304 114.912C204.072 114.912 204.564 115.368 204.624 116.064H205.992C205.908 114.732 205.044 113.7 203.304 113.7C201.408 113.7 200.388 114.996 200.388 116.904C200.388 118.824 201.432 120.108 203.34 120.108ZM209.986 120.108C211.954 120.108 212.914 118.716 212.914 116.904C212.914 115.092 211.93 113.7 209.986 113.7C208.042 113.7 207.058 115.092 207.058 116.904C207.058 118.728 208.018 120.108 209.986 120.108ZM209.986 118.896C208.954 118.896 208.45 118.152 208.45 116.904C208.45 115.68 208.942 114.912 209.986 114.912C211.03 114.912 211.522 115.668 211.522 116.904C211.522 118.152 211.03 118.896 209.986 118.896ZM221.367 113.7C220.383 113.7 219.759 114.144 219.435 114.672H219.399C219.051 114.048 218.403 113.7 217.539 113.7C216.639 113.7 216.087 114.084 215.751 114.612H215.703L215.595 113.808H214.383V120H215.751V116.58C215.751 115.548 216.303 114.936 217.131 114.936C217.983 114.936 218.331 115.452 218.331 116.292V120H219.687V116.58C219.687 115.548 220.179 114.936 221.007 114.936C221.859 114.936 222.207 115.452 222.207 116.292V120H223.575V115.956C223.575 114.564 222.735 113.7 221.367 113.7ZM225.271 112.764H226.759V111.288H225.271V112.764ZM225.331 120H226.699V113.808H225.331V120ZM228.451 120H229.819V116.58C229.819 115.548 230.371 114.936 231.235 114.936C232.099 114.936 232.495 115.428 232.495 116.292V120H233.863V115.956C233.863 114.564 233.011 113.7 231.631 113.7C230.743 113.7 230.155 114.084 229.819 114.612H229.771L229.663 113.808H228.451V120ZM238.11 122.856C239.862 122.856 240.978 121.812 240.978 120.336V113.808H239.766L239.61 114.552H239.562C239.25 114.084 238.686 113.7 237.786 113.7C236.19 113.7 235.218 114.972 235.206 116.904C235.218 118.752 236.118 120.108 237.786 120.108C238.686 120.108 239.25 119.724 239.562 119.256H239.61V120.312C239.61 121.08 239.13 121.68 238.11 121.68C237.222 121.68 236.766 121.188 236.718 120.672H235.386C235.422 121.956 236.49 122.856 238.11 122.856ZM238.122 118.896C236.994 118.896 236.598 117.984 236.598 116.904C236.598 115.824 237.006 114.912 238.122 114.912C239.214 114.912 239.658 115.836 239.658 116.904C239.658 117.972 239.226 118.896 238.122 118.896Z" fill="#4D72F7"/>
<path d="M272.997 121.502C272.722 121.502 272.497 121.727 272.5 122.002C272.5 122.277 272.725 122.502 273 122.502C273.275 122.502 273.5 122.277 273.5 122.002C273.5 121.727 273.275 121.502 272.997 121.502" stroke="#08323C" stroke-width="1.5" stroke-linecap="round" stroke-linejoin="round"/>
<path d="M272.997 115.5C272.722 115.5 272.497 115.725 272.5 116C272.5 116.275 272.725 116.5 273 116.5C273.275 116.5 273.5 116.275 273.5 116C273.5 115.725 273.275 115.5 272.997 115.5" stroke="#08323C" stroke-width="1.5" stroke-linecap="round" stroke-linejoin="round"/>
<path d="M272.997 109.497C272.722 109.497 272.497 109.722 272.5 109.997C272.5 110.272 272.725 110.497 273 110.497C273.275 110.497 273.5 110.272 273.5 109.997C273.5 109.722 273.275 109.497 272.997 109.497" stroke="#08323C" stroke-width="1.5" stroke-linecap="round" stroke-linejoin="round"/>
<rect x="48" y="147" width="242" height="1" fill="#F0F4F5"/>
<path d="M59.8928 169H69.8928V179L59.8928 169Z" fill="#00D1FF"/>
<path d="M69.8928 179L69.8928 189L59.8928 189L69.8928 179Z" fill="#EB00FF"/>
<path d="M53.1072 171.857L60.4308 179.181L53.1072 186.505V171.857Z" fill="#FFC700"/>
<path d="M90.26 181.228C90.26 179.548 89.112 178.694 87.292 178.316L87.012 178.26V175.614C87.95 175.782 88.384 176.37 88.426 177.112H90.092C90.078 175.474 88.846 174.312 87.012 174.102V172.94H85.878V174.102C83.974 174.256 82.84 175.306 82.84 176.818C82.84 178.47 83.932 179.226 85.626 179.59L85.878 179.646V182.614C84.87 182.474 84.254 181.858 84.184 180.878H82.518C82.602 182.698 83.736 183.93 85.878 184.112V185.26H87.012V184.098C89.168 183.93 90.26 182.838 90.26 181.228ZM84.534 176.818C84.534 176.132 84.996 175.698 85.878 175.586V178.022C84.954 177.798 84.534 177.42 84.534 176.818ZM87.012 182.628V179.884L87.054 179.898C88.034 180.108 88.566 180.486 88.566 181.256C88.566 182.026 88.062 182.502 87.012 182.628ZM93.9397 184H95.5497V174.2H93.9257L91.4897 176.048V177.616H91.6297L93.8837 175.894H93.9397V184ZM100.937 184.126C103.191 184.126 104.381 182.712 104.381 180.738C104.381 178.918 103.163 177.546 101.189 177.546C100.307 177.546 99.677 177.84 99.285 178.218H99.229L99.411 175.642H103.793V174.2H98.067L97.689 179.744H99.285C99.649 179.254 100.139 178.89 100.951 178.89C102.211 178.89 102.757 179.772 102.757 180.766C102.757 181.802 102.253 182.698 100.937 182.698C99.761 182.698 99.187 181.97 99.145 181.172H97.535C97.535 182.81 98.879 184.126 100.937 184.126ZM105.861 184H107.709V182.18H105.861V184ZM109.784 184H111.45L115.608 175.74V174.2H108.93V175.67H113.956V175.726L109.784 183.86V184ZM120.271 184.126C122.567 184.126 123.701 182.768 123.701 181.144C123.701 180.01 123.015 179.128 121.979 178.806V178.75C122.875 178.414 123.393 177.728 123.393 176.636C123.393 175.054 122.007 174.032 120.229 174.032C118.241 174.032 116.981 175.138 116.939 176.972H118.549C118.563 176.076 119.081 175.446 120.187 175.446C121.251 175.446 121.741 176.048 121.741 176.776C121.741 177.63 121.125 178.19 120.089 178.19H119.263V179.604H120.117C121.405 179.604 122.049 180.206 122.049 181.172C122.049 182.068 121.447 182.712 120.257 182.712C118.927 182.712 118.395 181.942 118.395 181.13H116.799C116.799 183.034 118.241 184.126 120.271 184.126Z" fill="#535E61"/>
<path d="M146 175C146 169.343 146 166.515 147.757 164.757C149.515 163 152.343 163 158 163H244C249.657 163 252.485 163 254.243 164.757C256 166.515 256 169.343 256 175V183C256 188.657 256 191.485 254.243 193.243C252.485 195 249.657 195 244 195H158C152.343 195 149.515 195 147.757 193.243C146 191.485 146 188.657 146 183V175Z" fill="#4D9FF7" fill-opacity="0.1"/>
<path d="M169.752 171.497V173.998" stroke="#4D72F7" stroke-width="1.5" stroke-linecap="round" stroke-linejoin="round"/>
<path d="M162.248 171.497V173.998" stroke="#4D72F7" stroke-width="1.5" stroke-linecap="round" stroke-linejoin="round"/>
<rect x="158.497" y="172.748" width="15.0062" height="13.7557" rx="3" stroke="#4D72F7" stroke-width="1.5" stroke-linecap="round" stroke-linejoin="round"/>
<path d="M166.842 178.167L168.509 179.834L166.842 181.502" stroke="#4D72F7" stroke-width="1.5" stroke-linecap="round" stroke-linejoin="round"/>
<path d="M163.499 179.834H168.501" stroke="#4D72F7" stroke-width="1.5" stroke-linecap="round" stroke-linejoin="round"/>
<path d="M188.272 183.108C190.276 183.108 191.644 181.968 191.644 179.88V174.6H190.228V179.856C190.228 180.996 189.688 181.836 188.272 181.836C186.88 181.836 186.328 180.996 186.328 179.856V174.6H184.924V179.88C184.924 181.968 186.304 183.108 188.272 183.108ZM193.562 185.748H194.93V182.256H194.978C195.29 182.724 195.842 183.108 196.742 183.108C198.41 183.108 199.322 181.752 199.322 179.904C199.322 177.972 198.338 176.7 196.742 176.7C195.842 176.7 195.29 177.084 194.978 177.552H194.93L194.774 176.808H193.562V185.748ZM196.406 181.896C195.314 181.896 194.882 180.972 194.882 179.904C194.882 178.836 195.314 177.912 196.406 177.912C197.522 177.912 197.942 178.824 197.942 179.904C197.942 180.984 197.534 181.896 196.406 181.896ZM203.34 183.108C205.032 183.108 205.896 182.124 206.004 180.756H204.636C204.564 181.464 204.084 181.908 203.304 181.908C202.248 181.908 201.78 181.128 201.78 179.904C201.78 178.704 202.248 177.912 203.304 177.912C204.072 177.912 204.564 178.368 204.624 179.064H205.992C205.908 177.732 205.044 176.7 203.304 176.7C201.408 176.7 200.388 177.996 200.388 179.904C200.388 181.824 201.432 183.108 203.34 183.108ZM209.986 183.108C211.954 183.108 212.914 181.716 212.914 179.904C212.914 178.092 211.93 176.7 209.986 176.7C208.042 176.7 207.058 178.092 207.058 179.904C207.058 181.728 208.018 183.108 209.986 183.108ZM209.986 181.896C208.954 181.896 208.45 181.152 208.45 179.904C208.45 178.68 208.942 177.912 209.986 177.912C211.03 177.912 211.522 178.668 211.522 179.904C211.522 181.152 211.03 181.896 209.986 181.896ZM221.367 176.7C220.383 176.7 219.759 177.144 219.435 177.672H219.399C219.051 177.048 218.403 176.7 217.539 176.7C216.639 176.7 216.087 177.084 215.751 177.612H215.703L215.595 176.808H214.383V183H215.751V179.58C215.751 178.548 216.303 177.936 217.131 177.936C217.983 177.936 218.331 178.452 218.331 179.292V183H219.687V179.58C219.687 178.548 220.179 177.936 221.007 177.936C221.859 177.936 222.207 178.452 222.207 179.292V183H223.575V178.956C223.575 177.564 222.735 176.7 221.367 176.7ZM225.271 175.764H226.759V174.288H225.271V175.764ZM225.331 183H226.699V176.808H225.331V183ZM228.451 183H229.819V179.58C229.819 178.548 230.371 177.936 231.235 177.936C232.099 177.936 232.495 178.428 232.495 179.292V183H233.863V178.956C233.863 177.564 233.011 176.7 231.631 176.7C230.743 176.7 230.155 177.084 229.819 177.612H229.771L229.663 176.808H228.451V183ZM238.11 185.856C239.862 185.856 240.978 184.812 240.978 183.336V176.808H239.766L239.61 177.552H239.562C239.25 177.084 238.686 176.7 237.786 176.7C236.19 176.7 235.218 177.972 235.206 179.904C235.218 181.752 236.118 183.108 237.786 183.108C238.686 183.108 239.25 182.724 239.562 182.256H239.61V183.312C239.61 184.08 239.13 184.68 238.11 184.68C237.222 184.68 236.766 184.188 236.718 183.672H235.386C235.422 184.956 236.49 185.856 238.11 185.856ZM238.122 181.896C236.994 181.896 236.598 180.984 236.598 179.904C236.598 178.824 237.006 177.912 238.122 177.912C239.214 177.912 239.658 178.836 239.658 179.904C239.658 180.972 239.226 181.896 238.122 181.896Z" fill="#4D72F7"/>
<path d="M272.997 184.502C272.722 184.502 272.497 184.727 272.5 185.002C272.5 185.277 272.725 185.502 273 185.502C273.275 185.502 273.5 185.277 273.5 185.002C273.5 184.727 273.275 184.502 272.997 184.502" stroke="#08323C" stroke-width="1.5" stroke-linecap="round" stroke-linejoin="round"/>
<path d="M272.997 178.5C272.722 178.5 272.497 178.725 272.5 179C272.5 179.275 272.725 179.5 273 179.5C273.275 179.5 273.5 179.275 273.5 179C273.5 178.725 273.275 178.5 272.997 178.5" stroke="#08323C" stroke-width="1.5" stroke-linecap="round" stroke-linejoin="round"/>
<path d="M272.997 172.497C272.722 172.497 272.497 172.722 272.5 172.997C272.5 173.272 272.725 173.497 273 173.497C273.275 173.497 273.5 173.272 273.5 172.997C273.5 172.722 273.275 172.497 272.997 172.497" stroke="#08323C" stroke-width="1.5" stroke-linecap="round" stroke-linejoin="round"/>
<rect x="28.5284" y="51.5284" width="274.943" height="163.943" rx="9.47155" stroke="#EAEBEF" stroke-width="1.05689"/>
<defs>
<filter id="filter0_d_5137_36190" x="0" y="53" width="332" height="221" filterUnits="userSpaceOnUse" color-interpolation-filters="sRGB">
<feFlood flood-opacity="0" result="BackgroundImageFix"/>
<feColorMatrix in="SourceAlpha" type="matrix" values="0 0 0 0 0 0 0 0 0 0 0 0 0 0 0 0 0 0 127 0" result="hardAlpha"/>
<feOffset dy="30"/>
<feGaussianBlur stdDeviation="15"/>
<feComposite in2="hardAlpha" operator="out"/>
<feColorMatrix type="matrix" values="0 0 0 0 0.0980392 0 0 0 0 0.117647 0 0 0 0 0.270588 0 0 0 0.1 0"/>
<feBlend mode="normal" in2="BackgroundImageFix" result="effect1_dropShadow_5137_36190"/>
<feBlend mode="normal" in="SourceGraphic" in2="effect1_dropShadow_5137_36190" result="shape"/>
</filter>
<linearGradient id="paint0_linear_5137_36190" x1="142.875" y1="428.156" x2="150.624" y2="442.409" gradientUnits="userSpaceOnUse">
<stop stop-color="#029F7A"/>
<stop offset="1" stop-color="#029F7A" stop-opacity="0"/>
</linearGradient>
</defs>
</svg>
