<svg width="285" height="503" viewBox="0 0 285 503" fill="none" xmlns="http://www.w3.org/2000/svg">
<path d="M284 503C284.552 503 285 502.552 285 502C285 501.448 284.552 501 284 501V503ZM0 3.94444C0 4.49673 0.447715 4.94444 1 4.94444C1.55228 4.94444 2 4.49673 2 3.94444H0ZM2 11.8333C2 11.281 1.55228 10.8333 1 10.8333C0.447715 10.8333 0 11.281 0 11.8333H2ZM0 19.7222C0 20.2745 0.447715 20.7222 1 20.7222C1.55228 20.7222 2 20.2745 2 19.7222H0ZM2 27.6111C2 27.0588 1.55228 26.6111 1 26.6111C0.447715 26.6111 0 27.0588 0 27.6111H2ZM0 35.5C0 36.0523 0.447715 36.5 1 36.5C1.55228 36.5 2 36.0523 2 35.5H0ZM2 43.3889C2 42.8366 1.55228 42.3889 1 42.3889C0.447715 42.3889 0 42.8366 0 43.3889H2ZM0 51.2778C0 51.8301 0.447715 52.2778 1 52.2778C1.55228 52.2778 2 51.8301 2 51.2778H0ZM2 59.1667C2 58.6144 1.55228 58.1667 1 58.1667C0.447715 58.1667 0 58.6144 0 59.1667H2ZM0 67.0556C0 67.6078 0.447715 68.0556 1 68.0556C1.55228 68.0556 2 67.6078 2 67.0556H0ZM2 74.9444C2 74.3922 1.55228 73.9444 1 73.9444C0.447715 73.9444 0 74.3922 0 74.9444H2ZM0 82.8333C0 83.3856 0.447715 83.8333 1 83.8333C1.55228 83.8333 2 83.3856 2 82.8333H0ZM2 90.7222C2 90.1699 1.55228 89.7222 1 89.7222C0.447715 89.7222 0 90.1699 0 90.7222H2ZM0 98.6111C0 99.1634 0.447715 99.6111 1 99.6111C1.55228 99.6111 2 99.1634 2 98.6111H0ZM2 106.5C2 105.948 1.55228 105.5 1 105.5C0.447715 105.5 0 105.948 0 106.5H2ZM0 114.389C0 114.941 0.447715 115.389 1 115.389C1.55228 115.389 2 114.941 2 114.389H0ZM2 122.278C2 121.725 1.55228 121.278 1 121.278C0.447715 121.278 0 121.725 0 122.278H2ZM0 130.167C0 130.719 0.447715 131.167 1 131.167C1.55228 131.167 2 130.719 2 130.167H0ZM2 138.056C2 137.503 1.55228 137.056 1 137.056C0.447715 137.056 0 137.503 0 138.056H2ZM0 145.944C0 146.497 0.447715 146.944 1 146.944C1.55228 146.944 2 146.497 2 145.944H0ZM2 153.833C2 153.281 1.55228 152.833 1 152.833C0.447715 152.833 0 153.281 0 153.833H2ZM0 161.722C0 162.274 0.447715 162.722 1 162.722C1.55228 162.722 2 162.274 2 161.722H0ZM2 169.611C2 169.059 1.55228 168.611 1 168.611C0.447715 168.611 0 169.059 0 169.611H2ZM0 177.5C0 178.052 0.447715 178.5 1 178.5C1.55228 178.5 2 178.052 2 177.5H0ZM2 185.389C2 184.837 1.55228 184.389 1 184.389C0.447715 184.389 0 184.837 0 185.389H2ZM0 193.278C0 193.83 0.447715 194.278 1 194.278C1.55228 194.278 2 193.83 2 193.278H0ZM2 201.167C2 200.614 1.55228 200.167 1 200.167C0.447715 200.167 0 200.614 0 201.167H2ZM0 209.055C0 209.608 0.447715 210.055 1 210.055C1.55228 210.055 2 209.608 2 209.055H0ZM2 216.944C2 216.392 1.55228 215.944 1 215.944C0.447715 215.944 0 216.392 0 216.944H2ZM0 224.833C0 225.386 0.447715 225.833 1 225.833C1.55228 225.833 2 225.386 2 224.833H0ZM2 232.722C2 232.17 1.55228 231.722 1 231.722C0.447715 231.722 0 232.17 0 232.722H2ZM0 240.611C0 241.163 0.447715 241.611 1 241.611C1.55228 241.611 2 241.163 2 240.611H0ZM2 248.5C2 247.948 1.55228 247.5 1 247.5C0.447715 247.5 0 247.948 0 248.5H2ZM0 256.389C0 256.941 0.447715 257.389 1 257.389C1.55228 257.389 2 256.941 2 256.389H0ZM2 264.278C2 263.725 1.55228 263.278 1 263.278C0.447715 263.278 0 263.725 0 264.278H2ZM0 272.167C0 272.719 0.447715 273.167 1 273.167C1.55228 273.167 2 272.719 2 272.167H0ZM2 280.055C2 279.503 1.55228 279.055 1 279.055C0.447715 279.055 0 279.503 0 280.055H2ZM0.261969 288.048C0.333405 288.595 0.835269 288.981 1.38291 288.91C1.93056 288.838 2.3166 288.337 2.24517 287.789L0.261969 288.048ZM4.20014 295.101C3.98859 294.59 3.40352 294.348 2.89336 294.56C2.3832 294.771 2.14114 295.357 2.35269 295.867L4.20014 295.101ZM6.4051 302.873C6.74162 303.311 7.36943 303.393 7.80734 303.056C8.24526 302.72 8.32746 302.092 7.99094 301.654L6.4051 302.873ZM13.3458 307.009C12.9079 306.673 12.2801 306.755 11.9436 307.193C11.607 307.631 11.6892 308.258 12.1271 308.595L13.3458 307.009ZM19.1333 312.647C19.6435 312.859 20.2285 312.617 20.4401 312.107C20.6516 311.596 20.4096 311.011 19.8994 310.8L19.1333 312.647ZM27.2111 312.755C26.6634 312.683 26.1616 313.069 26.0901 313.617C26.0187 314.165 26.4047 314.667 26.9524 314.738L27.2111 312.755ZM35.0714 315C35.6237 315 36.0714 314.552 36.0714 314C36.0714 313.448 35.6237 313 35.0714 313V315ZM43.2143 313C42.662 313 42.2143 313.448 42.2143 314C42.2143 314.552 42.662 315 43.2143 315V313ZM51.3571 315C51.9094 315 52.3571 314.552 52.3571 314C52.3571 313.448 51.9094 313 51.3571 313V315ZM59.5 313C58.9477 313 58.5 313.448 58.5 314C58.5 314.552 58.9477 315 59.5 315V313ZM67.6429 315C68.1951 315 68.6429 314.552 68.6429 314C68.6429 313.448 68.1951 313 67.6429 313V315ZM75.7857 313C75.2334 313 74.7857 313.448 74.7857 314C74.7857 314.552 75.2334 315 75.7857 315V313ZM83.9286 315C84.4809 315 84.9286 314.552 84.9286 314C84.9286 313.448 84.4809 313 83.9286 313V315ZM92.0714 313C91.5191 313 91.0714 313.448 91.0714 314C91.0714 314.552 91.5191 315 92.0714 315V313ZM100.214 315C100.767 315 101.214 314.552 101.214 314C101.214 313.448 100.767 313 100.214 313V315ZM108.357 313C107.805 313 107.357 313.448 107.357 314C107.357 314.552 107.805 315 108.357 315V313ZM116.5 315C117.052 315 117.5 314.552 117.5 314C117.5 313.448 117.052 313 116.5 313V315ZM124.643 313C124.091 313 123.643 313.448 123.643 314C123.643 314.552 124.091 315 124.643 315V313ZM132.786 315C133.338 315 133.786 314.552 133.786 314C133.786 313.448 133.338 313 132.786 313V315ZM140.929 313C140.376 313 139.929 313.448 139.929 314C139.929 314.552 140.376 315 140.929 315V313ZM148.789 315.245C149.337 315.317 149.838 314.931 149.91 314.383C149.981 313.835 149.595 313.333 149.048 313.262L148.789 315.245ZM156.867 315.353C156.357 315.141 155.771 315.383 155.56 315.893C155.348 316.404 155.59 316.989 156.101 317.2L156.867 315.353ZM162.654 320.991C163.092 321.327 163.72 321.245 164.056 320.807C164.393 320.369 164.311 319.742 163.873 319.405L162.654 320.991ZM169.595 325.127C169.258 324.689 168.631 324.607 168.193 324.944C167.755 325.28 167.673 325.908 168.009 326.346L169.595 325.127ZM171.8 332.899C172.011 333.41 172.596 333.652 173.107 333.44C173.617 333.229 173.859 332.643 173.647 332.133L171.8 332.899ZM175.738 339.952C175.667 339.405 175.165 339.019 174.617 339.09C174.069 339.162 173.683 339.663 173.755 340.211L175.738 339.952ZM174 348C174 348.552 174.448 349 175 349C175.552 349 176 348.552 176 348H174ZM176 356C176 355.448 175.552 355 175 355C174.448 355 174 355.448 174 356H176ZM174 364C174 364.552 174.448 365 175 365C175.552 365 176 364.552 176 364H174ZM176 372C176 371.448 175.552 371 175 371C174.448 371 174 371.448 174 372H176ZM174 380C174 380.552 174.448 381 175 381C175.552 381 176 380.552 176 380H174ZM176 388C176 387.448 175.552 387 175 387C174.448 387 174 387.448 174 388H176ZM174 396C174 396.552 174.448 397 175 397C175.552 397 176 396.552 176 396H174ZM176 404C176 403.448 175.552 403 175 403C174.448 403 174 403.448 174 404H176ZM174 412C174 412.552 174.448 413 175 413C175.552 413 176 412.552 176 412H174ZM176 420C176 419.448 175.552 419 175 419C174.448 419 174 419.448 174 420H176ZM174 428C174 428.552 174.448 429 175 429C175.552 429 176 428.552 176 428H174ZM176 436C176 435.448 175.552 435 175 435C174.448 435 174 435.448 174 436H176ZM174 444C174 444.552 174.448 445 175 445C175.552 445 176 444.552 176 444H174ZM176 452C176 451.448 175.552 451 175 451C174.448 451 174 451.448 174 452H176ZM174 460C174 460.552 174.448 461 175 461C175.552 461 176 460.552 176 460H174ZM176 468C176 467.448 175.552 467 175 467C174.448 467 174 467.448 174 468H176ZM174.262 476.048C174.333 476.595 174.835 476.981 175.383 476.91C175.931 476.838 176.317 476.337 176.245 475.789L174.262 476.048ZM178.2 483.101C177.989 482.59 177.404 482.348 176.893 482.56C176.383 482.771 176.141 483.357 176.353 483.867L178.2 483.101ZM180.405 490.873C180.742 491.311 181.369 491.393 181.807 491.056C182.245 490.72 182.327 490.092 181.991 489.654L180.405 490.873ZM187.346 495.009C186.908 494.673 186.28 494.755 185.944 495.193C185.607 495.631 185.689 496.258 186.127 496.595L187.346 495.009ZM193.133 500.647C193.643 500.859 194.229 500.617 194.44 500.107C194.652 499.596 194.41 499.011 193.899 498.8L193.133 500.647ZM201.211 500.755C200.663 500.683 200.162 501.069 200.09 501.617C200.019 502.165 200.405 502.667 200.952 502.738L201.211 500.755ZM208.95 503C209.502 503 209.95 502.552 209.95 502C209.95 501.448 209.502 501 208.95 501V503ZM216.85 501C216.298 501 215.85 501.448 215.85 502C215.85 502.552 216.298 503 216.85 503V501ZM224.75 503C225.302 503 225.75 502.552 225.75 502C225.75 501.448 225.302 501 224.75 501V503ZM232.65 501C232.098 501 231.65 501.448 231.65 502C231.65 502.552 232.098 503 232.65 503V501ZM240.55 503C241.102 503 241.55 502.552 241.55 502C241.55 501.448 241.102 501 240.55 501V503ZM248.45 501C247.898 501 247.45 501.448 247.45 502C247.45 502.552 247.898 503 248.45 503V501ZM256.35 503C256.902 503 257.35 502.552 257.35 502C257.35 501.448 256.902 501 256.35 501V503ZM264.25 501C263.698 501 263.25 501.448 263.25 502C263.25 502.552 263.698 503 264.25 503V501ZM272.15 503C272.702 503 273.15 502.552 273.15 502C273.15 501.448 272.702 501 272.15 501V503ZM280.05 501C279.498 501 279.05 501.448 279.05 502C279.05 502.552 279.498 503 280.05 503V501ZM0 0V3.94444H2V0H0ZM0 11.8333V19.7222H2V11.8333H0ZM0 27.6111V35.5H2V27.6111H0ZM0 43.3889V51.2778H2V43.3889H0ZM0 59.1667V67.0556H2V59.1667H0ZM0 74.9444V82.8333H2V74.9444H0ZM0 90.7222V98.6111H2V90.7222H0ZM0 106.5V114.389H2V106.5H0ZM0 122.278V130.167H2V122.278H0ZM0 138.056V145.944H2V138.056H0ZM0 153.833V161.722H2V153.833H0ZM0 169.611V177.5H2V169.611H0ZM0 185.389V193.278H2V185.389H0ZM0 201.167V209.055H2V201.167H0ZM0 216.944V224.833H2V216.944H0ZM0 232.722V240.611H2V232.722H0ZM0 248.5V256.389H2V248.5H0ZM0 264.278V272.167H2V264.278H0ZM0 280.055V284H2V280.055H0ZM0 284C0 285.371 0.0891105 286.722 0.261969 288.048L2.24517 287.789C2.08347 286.549 2 285.285 2 284H0ZM2.35269 295.867C3.39801 298.387 4.76609 300.74 6.4051 302.873L7.99094 301.654C6.4572 299.658 5.17759 297.458 4.20014 295.101L2.35269 295.867ZM12.1271 308.595C14.26 310.234 16.6125 311.602 19.1333 312.647L19.8994 310.8C17.5423 309.822 15.3417 308.543 13.3458 307.009L12.1271 308.595ZM26.9524 314.738C28.2776 314.911 29.6286 315 31 315V313C29.7154 313 28.4507 312.917 27.2111 312.755L26.9524 314.738ZM31 315H35.0714V313H31V315ZM43.2143 315H51.3571V313H43.2143V315ZM59.5 315H67.6429V313H59.5V315ZM75.7857 315H83.9286V313H75.7857V315ZM92.0714 315H100.214V313H92.0714V315ZM108.357 315H116.5V313H108.357V315ZM124.643 315H132.786V313H124.643V315ZM140.929 315H145V313H140.929V315ZM145 315C146.285 315 147.549 315.083 148.789 315.245L149.048 313.262C147.722 313.089 146.371 313 145 313V315ZM156.101 317.2C158.458 318.178 160.658 319.457 162.654 320.991L163.873 319.405C161.74 317.766 159.387 316.398 156.867 315.353L156.101 317.2ZM168.009 326.346C169.543 328.342 170.822 330.542 171.8 332.899L173.647 332.133C172.602 329.613 171.234 327.26 169.595 325.127L168.009 326.346ZM173.755 340.211C173.917 341.451 174 342.715 174 344H176C176 342.629 175.911 341.278 175.738 339.952L173.755 340.211ZM174 344V348H176V344H174ZM174 356V364H176V356H174ZM174 372V380H176V372H174ZM174 388V396H176V388H174ZM174 404V412H176V404H174ZM174 420V428H176V420H174ZM174 436V444H176V436H174ZM174 452V460H176V452H174ZM174 468V472H176V468H174ZM174 472C174 473.371 174.089 474.722 174.262 476.048L176.245 475.789C176.083 474.549 176 473.285 176 472H174ZM176.353 483.867C177.398 486.387 178.766 488.74 180.405 490.873L181.991 489.654C180.457 487.658 179.178 485.458 178.2 483.101L176.353 483.867ZM186.127 496.595C188.26 498.234 190.613 499.602 193.133 500.647L193.899 498.8C191.542 497.822 189.342 496.543 187.346 495.009L186.127 496.595ZM200.952 502.738C202.278 502.911 203.629 503 205 503V501C203.715 501 202.451 500.917 201.211 500.755L200.952 502.738ZM205 503H208.95V501H205V503ZM216.85 503H224.75V501H216.85V503ZM232.65 503H240.55V501H232.65V503ZM248.45 503H256.35V501H248.45V503ZM264.25 503H272.15V501H264.25V503ZM280.05 503H284V501H280.05V503Z" fill="#08323C"/>
</svg>
