<svg width="488" height="525" viewBox="0 0 488 525" fill="none" xmlns="http://www.w3.org/2000/svg">
<rect width="341" height="440" transform="translate(107 65)" fill="#EFF1F2"/>
<rect y="155" width="60" height="306" rx="10" fill="#EFF1F2"/>
<path d="M6 168C6 165.791 7.79086 164 10 164H50C52.2091 164 54 165.791 54 168V208C54 210.209 52.2091 212 50 212H10C7.79086 212 6 210.209 6 208V168Z" fill="#EFF1F2"/>
<path fill-rule="evenodd" clip-rule="evenodd" d="M37 197H34C32.895 197 32 196.105 32 195V190C32 188.895 32.895 188 34 188H37C38.105 188 39 188.895 39 190V195C39 196.105 38.105 197 37 197Z" stroke="#08323C" stroke-width="1.5" stroke-linecap="round" stroke-linejoin="round"/>
<path fill-rule="evenodd" clip-rule="evenodd" d="M37 185H34C32.895 185 32 184.105 32 183V181C32 179.895 32.895 179 34 179H37C38.105 179 39 179.895 39 181V183C39 184.105 38.105 185 37 185Z" stroke="#08323C" stroke-width="1.5" stroke-linecap="round" stroke-linejoin="round"/>
<path fill-rule="evenodd" clip-rule="evenodd" d="M23 179H26C27.105 179 28 179.895 28 181V186C28 187.105 27.105 188 26 188H23C21.895 188 21 187.105 21 186V181C21 179.895 21.895 179 23 179Z" stroke="#08323C" stroke-width="1.5" stroke-linecap="round" stroke-linejoin="round"/>
<path fill-rule="evenodd" clip-rule="evenodd" d="M23 191H26C27.105 191 28 191.895 28 193V195C28 196.105 27.105 197 26 197H23C21.895 197 21 196.105 21 195V193C21 191.895 21.895 191 23 191Z" stroke="#08323C" stroke-width="1.5" stroke-linecap="round" stroke-linejoin="round"/>
<path d="M6 236C6 224.686 6 219.029 9.51472 215.515C13.0294 212 18.6863 212 30 212V212C41.3137 212 46.9706 212 50.4853 215.515C54 219.029 54 224.686 54 236V236C54 247.314 54 252.971 50.4853 256.485C46.9706 260 41.3137 260 30 260V260C18.6863 260 13.0294 260 9.51472 256.485C6 252.971 6 247.314 6 236V236Z" fill="#D4FE00"/>
<path d="M21 231H20" stroke="#08323C" stroke-width="1.5" stroke-linecap="round" stroke-linejoin="round"/>
<path d="M22 228H20" stroke="#08323C" stroke-width="1.5" stroke-linecap="round" stroke-linejoin="round"/>
<path d="M35 244H21" stroke="#08323C" stroke-width="1.5" stroke-linecap="round" stroke-linejoin="round"/>
<path d="M35.2749 228L34.2889 231.287C34.1619 231.71 33.7719 232 33.3309 232H30.2189C29.5489 232 29.0689 231.354 29.2609 230.713L30.0749 228" stroke="#08323C" stroke-width="1.5" stroke-linecap="round" stroke-linejoin="round"/>
<path d="M26 237H28.13" stroke="#08323C" stroke-width="1.5" stroke-linecap="round" stroke-linejoin="round"/>
<path fill-rule="evenodd" clip-rule="evenodd" d="M35.4381 240H24.8501C23.2421 240 22.0891 238.45 22.5511 236.91L24.7111 229.71C25.0161 228.695 25.9501 228 27.0101 228H37.5991C39.2071 228 40.3601 229.55 39.8981 231.09L37.7381 238.29C37.4331 239.305 36.4981 240 35.4381 240Z" stroke="#08323C" stroke-width="1.5" stroke-linecap="round" stroke-linejoin="round"/>
<path d="M6 264C6 261.791 7.79086 260 10 260H50C52.2091 260 54 261.791 54 264V304C54 306.209 52.2091 308 50 308H10C7.79086 308 6 306.209 6 304V264Z" fill="#EFF1F2"/>
<path d="M25.9985 284.688V286.751" stroke="#08323C" stroke-width="1.5" stroke-linecap="round" stroke-linejoin="round"/>
<path d="M30.0002 281.249V286.751" stroke="#08323C" stroke-width="1.5" stroke-linecap="round" stroke-linejoin="round"/>
<path d="M34.0017 282.624V286.751" stroke="#08323C" stroke-width="1.5" stroke-linecap="round" stroke-linejoin="round"/>
<path fill-rule="evenodd" clip-rule="evenodd" d="M35.0022 293.004H24.998C22.7881 293.004 20.9963 291.212 20.9963 289.002V278.998C20.9963 276.788 22.7881 274.996 24.998 274.996H35.0022C37.2121 274.996 39.0038 276.788 39.0038 278.998V289.002C39.0038 291.212 37.2121 293.004 35.0022 293.004Z" stroke="#08323C" stroke-width="1.5" stroke-linecap="round" stroke-linejoin="round"/>
<path d="M6 312C6 309.791 7.79086 308 10 308H50C52.2091 308 54 309.791 54 312V352C54 354.209 52.2091 356 50 356H10C7.79086 356 6 354.209 6 352V312Z" fill="#EFF1F2"/>
<circle cx="34.0018" cy="331.506" r="2.00083" stroke="#08323C" stroke-width="1.5" stroke-linecap="round" stroke-linejoin="round"/>
<rect x="20.9963" y="322.996" width="18.0075" height="18.0075" rx="4" stroke="#08323C" stroke-width="1.5" stroke-linecap="round" stroke-linejoin="round"/>
<circle cx="26.9988" cy="331.006" r="2.50104" stroke="#08323C" stroke-width="1.5" stroke-linecap="round" stroke-linejoin="round"/>
<path d="M32.5013 341.004V340.003C32.5013 338.07 30.9336 336.502 28.9998 336.502H25.0532C23.4335 336.504 22.0277 337.619 21.6567 339.196" stroke="#08323C" stroke-width="1.5" stroke-linecap="round" stroke-linejoin="round"/>
<path d="M34.0017 336.508H35.5083C36.8822 336.512 38.1246 337.326 38.6767 338.584" stroke="#08323C" stroke-width="1.5" stroke-linecap="round" stroke-linejoin="round"/>
<path d="M6 360C6 357.791 7.79086 356 10 356H50C52.2091 356 54 357.791 54 360V400C54 402.209 52.2091 404 50 404H10C7.79086 404 6 402.209 6 400V360Z" fill="#EFF1F2"/>
<path fill-rule="evenodd" clip-rule="evenodd" d="M33 378C33 378 36.502 375.125 36.502 372.5C36.502 370.567 34.934 369 33 369C31.066 369 29.498 370.567 29.498 372.5C29.498 375.125 33 378 33 378Z" stroke="#08323C" stroke-width="1.5" stroke-linecap="round" stroke-linejoin="round"/>
<path d="M33.001 372.35C33.139 372.35 33.251 372.462 33.25 372.6C33.25 372.738 33.138 372.85 33 372.85C32.862 372.85 32.75 372.738 32.75 372.6C32.75 372.462 32.862 372.35 33.001 372.35" stroke="#08323C" stroke-width="1.5" stroke-linecap="round" stroke-linejoin="round"/>
<path d="M29.531 372.025C24.78 372.271 21 376.188 21 381C21 385.971 25.029 390 30 390C34.971 390 39 385.971 39 381C39 378.348 37.848 375.972 36.023 374.329" stroke="#08323C" stroke-width="1.5" stroke-linecap="round" stroke-linejoin="round"/>
<path d="M26 389.068V388.997C26 386.997 30 387.233 30 384.997C30 382.997 27 382.997 27 379.997C27 377.169 25 376.997 22 376.997H21.939" stroke="#08323C" stroke-width="1.5" stroke-linecap="round" stroke-linejoin="round"/>
<path d="M35.9699 387.72C35.8189 387.662 35.6689 387.601 35.5259 387.517C34.0899 386.677 33.6079 384.833 34.4469 383.397C35.2869 381.961 37.1309 381.479 38.5669 382.318C38.6729 382.38 38.7619 382.458 38.8579 382.53" stroke="#08323C" stroke-width="1.5" stroke-linecap="round" stroke-linejoin="round"/>
<path d="M6 408C6 405.791 7.79086 404 10 404H50C52.2091 404 54 405.791 54 408V448C54 450.209 52.2091 452 50 452H10C7.79086 452 6 450.209 6 448V408Z" fill="#EFF1F2"/>
<path d="M34.0017 434.503H26.1685" stroke="#08323C" stroke-width="1.5" stroke-linecap="round" stroke-linejoin="round"/>
<path d="M36.9991 434.503H39.004C39.5565 434.503 40.0044 434.055 40.0044 433.503V427.386C40.0044 427.131 39.9558 426.879 39.8613 426.643L38.506 423.256C38.2022 422.496 37.4665 421.998 36.6484 421.998H33.0015" stroke="#08323C" stroke-width="1.5" stroke-linecap="round" stroke-linejoin="round"/>
<path d="M40.0044 429.001H36.5029C36.2266 429.001 36.0027 428.777 36.0027 428.5V424.999H39.204" stroke="#08323C" stroke-width="1.5" stroke-linecap="round" stroke-linejoin="round"/>
<path d="M36.5595 433.445C36.9887 433.875 37.1171 434.52 36.8849 435.081C36.6527 435.641 36.1055 436.007 35.4985 436.007C34.8916 436.007 34.3444 435.642 34.1121 435.081C33.8798 434.52 34.0082 433.875 34.4373 433.445L34.4374 433.445C34.7188 433.164 35.1005 433.006 35.4985 433.006C35.8964 433.006 36.2781 433.164 36.5595 433.445V433.445" stroke="#08323C" stroke-width="1.5" stroke-linecap="round" stroke-linejoin="round"/>
<path d="M25.5549 433.445C25.9841 433.875 26.1125 434.52 25.8803 435.081C25.648 435.642 25.1009 436.007 24.4939 436.007C23.887 436.007 23.3398 435.642 23.1075 435.081C22.8752 434.52 23.0035 433.875 23.4327 433.446L23.433 433.445C23.7144 433.164 24.096 433.006 24.494 433.006C24.8919 433.006 25.2735 433.164 25.5549 433.445V433.445" stroke="#08323C" stroke-width="1.5" stroke-linecap="round" stroke-linejoin="round"/>
<path d="M22.9971 434.503H20.9963C20.4438 434.503 19.9958 434.055 19.9958 433.503V420.997C19.9958 420.445 20.4438 419.997 20.9963 419.997H32.0008C32.5534 419.997 33.0013 420.445 33.0013 420.997V430.001" stroke="#08323C" stroke-width="1.5" stroke-linecap="round" stroke-linejoin="round"/>
<path d="M33.0013 430.001H19.9958" stroke="#08323C" stroke-width="1.5" stroke-linecap="round" stroke-linejoin="round"/>
<path d="M87 505C87 495.572 87 490.858 89.9289 487.929C92.8579 485 97.5719 485 107 485H176C185.428 485 190.142 485 193.071 487.929C196 490.858 196 495.572 196 505V505C196 514.428 196 519.142 193.071 522.071C190.142 525 185.428 525 176 525H107C97.5719 525 92.8579 525 89.9289 522.071C87 519.142 87 514.428 87 505V505Z" fill="#08323C"/>
<circle cx="117.5" cy="512" r="2.5" stroke="#D4FE00" stroke-width="1.5" stroke-linecap="round" stroke-linejoin="round"/>
<path d="M105.5 498.375C105.569 498.375 105.625 498.431 105.625 498.5C105.625 498.569 105.569 498.625 105.5 498.625C105.431 498.625 105.375 498.569 105.375 498.5C105.375 498.467 105.388 498.435 105.412 498.411C105.435 498.388 105.467 498.375 105.5 498.375" stroke="#D4FE00" stroke-width="1.5" stroke-linecap="round" stroke-linejoin="round"/>
<path fill-rule="evenodd" clip-rule="evenodd" d="M109 498.5C109 500.161 107.144 501.938 106.134 502.781C105.761 503.073 105.237 503.073 104.865 502.781C103.856 501.938 102 500.161 102 498.5V498.5C102 496.567 103.567 495 105.5 495V495C107.433 495 109 496.567 109 498.5V498.5Z" stroke="#D4FE00" stroke-width="1.5" stroke-linecap="round" stroke-linejoin="round"/>
<path d="M111 512H108C106.343 512 105 510.657 105 509V509C105 507.343 106.343 506 108 506H114C115.657 506 117 504.657 117 503V503C117 501.343 115.657 500 114 500H112" stroke="#D4FE00" stroke-width="1.5" stroke-linecap="round" stroke-linejoin="round"/>
<path d="M135.604 510.126C137.9 510.126 139.034 508.768 139.034 507.144C139.034 506.01 138.348 505.128 137.312 504.806V504.75C138.208 504.414 138.726 503.728 138.726 502.636C138.726 501.054 137.34 500.032 135.562 500.032C133.574 500.032 132.314 501.138 132.272 502.972H133.882C133.896 502.076 134.414 501.446 135.52 501.446C136.584 501.446 137.074 502.048 137.074 502.776C137.074 503.63 136.458 504.19 135.422 504.19H134.596V505.604H135.45C136.738 505.604 137.382 506.206 137.382 507.172C137.382 508.068 136.78 508.712 135.59 508.712C134.26 508.712 133.728 507.942 133.728 507.13H132.132C132.132 509.034 133.574 510.126 135.604 510.126ZM140.581 510H147.063V508.544H142.751V508.488L145.159 505.912C146.363 504.624 146.909 503.854 146.909 502.79C146.909 501.194 145.677 500.032 143.759 500.032C141.785 500.032 140.553 501.236 140.553 503.126H142.135C142.135 502.006 142.793 501.46 143.759 501.46C144.753 501.46 145.271 502.02 145.271 502.846C145.271 503.616 144.865 504.092 143.871 505.17L140.581 508.712V510ZM148.552 510H150.4V508.18H148.552V510ZM156.059 510H157.669V508.054H158.929V506.626H157.669V500.2H155.569L151.663 506.458V508.054H156.059V510ZM153.231 506.626V506.57L156.003 502.02H156.059V506.626H153.231ZM172.648 502.65C171.5 502.65 170.772 503.168 170.394 503.784H170.352C169.946 503.056 169.19 502.65 168.182 502.65C167.132 502.65 166.488 503.098 166.096 503.714H166.04L165.914 502.776H164.5V510H166.096V506.01C166.096 504.806 166.74 504.092 167.706 504.092C168.7 504.092 169.106 504.694 169.106 505.674V510H170.688V506.01C170.688 504.806 171.262 504.092 172.228 504.092C173.222 504.092 173.628 504.694 173.628 505.674V510H175.224V505.282C175.224 503.658 174.244 502.65 172.648 502.65ZM177.062 501.558H178.798V499.836H177.062V501.558ZM177.132 510H178.728V502.776H177.132V510Z" fill="white"/>
<path d="M204 505C204 495.572 204 490.858 206.929 487.929C209.858 485 214.572 485 224 485H340C349.428 485 354.142 485 357.071 487.929C360 490.858 360 495.572 360 505V505C360 514.428 360 519.142 357.071 522.071C354.142 525 349.428 525 340 525H224C214.572 525 209.858 525 206.929 522.071C204 519.142 204 514.428 204 505V505Z" fill="#08323C"/>
<path d="M219.012 505.991L221 506" stroke="#D4FE00" stroke-width="1.5" stroke-linecap="round" stroke-linejoin="round"/>
<path d="M221 503H223" stroke="#D4FE00" stroke-width="1.5" stroke-linecap="round" stroke-linejoin="round"/>
<path d="M229.181 509.5H223" stroke="#D4FE00" stroke-width="1.5" stroke-linecap="round" stroke-linejoin="round"/>
<path d="M232.538 504.387H229.08C228.544 504.387 228.086 503.999 227.998 503.47L227.42 500" stroke="#D4FE00" stroke-width="1.5" stroke-linecap="round" stroke-linejoin="round"/>
<path d="M232.173 509.5H232.904C233.509 509.5 234 509.009 234 508.404V506.3C234 506.01 233.885 505.731 233.679 505.525L232.538 504.385L230.851 501.01C230.542 500.391 229.909 500 229.217 500H223" stroke="#D4FE00" stroke-width="1.5" stroke-linecap="round" stroke-linejoin="round"/>
<path d="M219 500C219 497.791 220.791 496 223 496H233C235.209 496 237 497.791 237 500V510C237 512.209 235.209 514 233 514H223C220.791 514 219 512.209 219 510" stroke="#D4FE00" stroke-width="1.5" stroke-linecap="round" stroke-linejoin="round"/>
<path d="M230.677 508.009C231.502 508.009 232.172 508.678 232.172 509.504C232.172 510.33 231.503 511 230.677 511C229.851 511 229.181 510.33 229.181 509.504V509.504C229.181 508.678 229.851 508.009 230.677 508.009V508.009" stroke="#D4FE00" stroke-width="1.5" stroke-linecap="round" stroke-linejoin="round"/>
<path d="M251.154 510H252.764V500.2H251.14L248.704 502.048V503.616H248.844L251.098 501.894H251.154V510ZM262.043 510.126C264.339 510.126 265.459 508.502 265.459 506.388C265.459 504.274 264.311 502.65 262.043 502.65C259.775 502.65 258.627 504.274 258.627 506.388C258.627 508.516 259.747 510.126 262.043 510.126ZM262.043 508.712C260.839 508.712 260.251 507.844 260.251 506.388C260.251 504.96 260.825 504.064 262.043 504.064C263.261 504.064 263.835 504.946 263.835 506.388C263.835 507.844 263.261 508.712 262.043 508.712ZM267.649 510H269.245V504.12H270.981V502.776H269.245V501.894C269.245 501.194 269.651 500.872 270.351 500.872H271.051V499.5H270.155C268.685 499.5 267.649 500.424 267.649 501.894V502.776H266.375V504.12H267.649V510ZM279.822 510.126C282.118 510.126 283.252 508.768 283.252 507.144C283.252 506.01 282.566 505.128 281.53 504.806V504.75C282.426 504.414 282.944 503.728 282.944 502.636C282.944 501.054 281.558 500.032 279.78 500.032C277.792 500.032 276.532 501.138 276.49 502.972H278.1C278.114 502.076 278.632 501.446 279.738 501.446C280.802 501.446 281.292 502.048 281.292 502.776C281.292 503.63 280.676 504.19 279.64 504.19H278.814V505.604H279.668C280.956 505.604 281.6 506.206 281.6 507.172C281.6 508.068 280.998 508.712 279.808 508.712C278.478 508.712 277.946 507.942 277.946 507.13H276.35C276.35 509.034 277.792 510.126 279.822 510.126ZM291.674 510.126C292.724 510.126 293.382 509.678 293.746 509.132H293.802L293.984 510H295.398V499.64H293.802V503.644H293.746C293.382 503.098 292.724 502.65 291.674 502.65C289.728 502.65 288.678 504.232 288.664 506.374C288.678 508.642 289.812 510.126 291.674 510.126ZM292.066 508.712C290.764 508.712 290.288 507.648 290.288 506.374C290.288 505.128 290.75 504.064 292.066 504.064C293.354 504.064 293.858 505.128 293.858 506.374C293.858 507.634 293.34 508.712 292.066 508.712ZM297.302 510H298.842V506.472C298.842 505.002 299.472 504.162 300.69 504.162H301.306V502.678H300.718C299.808 502.678 299.136 503.182 298.842 503.924H298.786L298.646 502.776H297.302V510ZM305.547 510.126C307.843 510.126 308.963 508.502 308.963 506.388C308.963 504.274 307.815 502.65 305.547 502.65C303.279 502.65 302.131 504.274 302.131 506.388C302.131 508.516 303.251 510.126 305.547 510.126ZM305.547 508.712C304.343 508.712 303.755 507.844 303.755 506.388C303.755 504.96 304.329 504.064 305.547 504.064C306.765 504.064 307.339 504.946 307.339 506.388C307.339 507.844 306.765 508.712 305.547 508.712ZM310.537 513.206H312.133V509.132H312.189C312.553 509.678 313.197 510.126 314.247 510.126C316.193 510.126 317.257 508.544 317.257 506.388C317.257 504.134 316.109 502.65 314.247 502.65C313.197 502.65 312.553 503.098 312.189 503.644H312.133L311.951 502.776H310.537V513.206ZM313.855 508.712C312.581 508.712 312.077 507.634 312.077 506.388C312.077 505.142 312.581 504.064 313.855 504.064C315.157 504.064 315.647 505.128 315.647 506.388C315.647 507.648 315.171 508.712 313.855 508.712ZM321.775 510.126C324.071 510.126 325.191 508.502 325.191 506.388C325.191 504.274 324.043 502.65 321.775 502.65C319.507 502.65 318.359 504.274 318.359 506.388C318.359 508.516 319.479 510.126 321.775 510.126ZM321.775 508.712C320.571 508.712 319.983 507.844 319.983 506.388C319.983 504.96 320.557 504.064 321.775 504.064C322.993 504.064 323.567 504.946 323.567 506.388C323.567 507.844 322.993 508.712 321.775 508.712ZM327.381 510H328.977V504.12H330.713V502.776H328.977V501.894C328.977 501.194 329.383 500.872 330.083 500.872H330.783V499.5H329.887C328.417 499.5 327.381 500.424 327.381 501.894V502.776H326.107V504.12H327.381V510ZM332.905 510H334.501V504.12H336.237V502.776H334.501V501.894C334.501 501.194 334.907 500.872 335.607 500.872H336.307V499.5H335.411C333.941 499.5 332.905 500.424 332.905 501.894V502.776H331.631V504.12H332.905V510ZM340.402 510.126C342.082 510.126 343.398 509.342 343.398 507.942C343.398 506.57 342.558 506.052 341.298 505.786L340.066 505.548C339.464 505.45 339.114 505.198 339.114 504.764C339.114 504.232 339.604 503.938 340.318 503.938C341.144 503.938 341.634 504.358 341.662 505.016H343.23C343.23 503.616 342.082 502.65 340.346 502.65C338.596 502.65 337.56 503.56 337.56 504.75C337.56 505.982 338.386 506.64 339.562 506.878L340.836 507.116C341.494 507.256 341.788 507.536 341.788 507.942C341.788 508.446 341.312 508.754 340.402 508.754C339.492 508.754 338.932 508.306 338.932 507.592H337.336C337.378 509.118 338.456 510.126 340.402 510.126Z" fill="white"/>
<g filter="url(#filter0_d_5135_39951)">
<rect x="89" y="157" width="310" height="295" rx="10" fill="white"/>
</g>
<rect x="87.5284" y="155.528" width="312.943" height="297.381" rx="9.47155" fill="white"/>
<path d="M108.58 194H111.32V189.2H114.58C117.4 189.2 119.2 187.24 119.2 184.56C119.2 181.96 117.44 180 114.58 180H108.58V194ZM111.32 186.74V182.44H114.08C115.54 182.44 116.4 183.2 116.4 184.56C116.4 186.02 115.6 186.74 114.08 186.74H111.32ZM121.208 194H123.748V188.9C123.748 187.02 124.668 185.92 126.268 185.92H127.208V183.44H126.448C125.128 183.44 124.208 184.2 123.748 185.18H123.668L123.468 183.6H121.208V194ZM133.345 194.18C136.685 194.18 138.385 191.88 138.385 188.82C138.385 185.74 136.645 183.42 133.345 183.42C130.025 183.42 128.285 185.74 128.285 188.82C128.285 191.9 129.985 194.18 133.345 194.18ZM133.345 191.82C131.845 191.82 131.025 190.8 131.025 188.82C131.025 186.84 131.825 185.78 133.345 185.78C134.845 185.78 135.665 186.82 135.665 188.82C135.665 190.8 134.845 191.82 133.345 191.82ZM142.44 194H145.74L149.22 183.8V183.6H146.5L144.16 191.36H144.08L141.68 183.6H138.92V183.8L142.44 194ZM150.6 182.12H153.48V179.32H150.6V182.12ZM150.7 194H153.38V183.6H150.7V194ZM159.342 194.18C160.822 194.18 161.682 193.56 162.202 192.88H162.282L162.562 194H164.962V179.2H162.282V184.72H162.202C161.682 184.04 160.822 183.42 159.342 183.42C156.622 183.42 155.062 185.7 155.062 188.8C155.062 191.98 156.682 194.18 159.342 194.18ZM160.082 191.82C158.402 191.82 157.782 190.42 157.782 188.8C157.782 187.16 158.362 185.78 160.082 185.78C161.782 185.78 162.382 187.18 162.382 188.8C162.382 190.42 161.762 191.82 160.082 191.82ZM171.644 194.18C174.324 194.18 176.024 192.64 176.304 190.76H173.684C173.484 191.4 172.844 191.96 171.644 191.96C170.104 191.96 169.384 190.96 169.364 189.54H176.444V188.5C176.444 185.66 174.704 183.42 171.604 183.42C168.264 183.42 166.624 185.86 166.624 188.82C166.624 191.82 168.424 194.18 171.644 194.18ZM169.384 187.76C169.444 186.58 170.104 185.66 171.604 185.66C173.004 185.66 173.664 186.58 173.704 187.76H169.384ZM178.298 194H180.838V188.9C180.838 187.02 181.758 185.92 183.358 185.92H184.298V183.44H183.538C182.218 183.44 181.298 184.2 180.838 185.18H180.758L180.558 183.6H178.298V194ZM195.734 194.18C198.254 194.18 200.154 193.02 200.154 190.94C200.154 188.88 198.794 188.12 197.114 187.78L195.214 187.44C194.554 187.3 194.154 187.02 194.154 186.5C194.154 185.94 194.734 185.56 195.634 185.56C196.734 185.56 197.274 186.16 197.274 186.88H199.914C199.914 184.9 198.274 183.42 195.674 183.42C193.034 183.42 191.534 184.78 191.534 186.48C191.534 188.4 192.894 189.32 194.574 189.64L196.254 189.96C197.074 190.12 197.454 190.44 197.454 190.96C197.454 191.5 196.914 191.92 195.734 191.92C194.514 191.92 193.894 191.3 193.894 190.5H191.214C191.274 192.68 192.714 194.18 195.734 194.18ZM206.269 194H208.229V191.66H207.029C206.109 191.66 205.689 191.24 205.689 190.26V185.88H208.189V183.6H205.689V180.86H203.109V183.6H201.309V185.88H203.009V190.84C203.009 192.68 203.969 194 206.269 194ZM213.409 194.18C214.749 194.18 215.729 193.68 216.309 192.92H216.389L216.589 194H218.969V187.12C218.969 185 217.349 183.42 214.549 183.42C211.709 183.42 210.229 185 210.229 186.96H212.749C212.749 186.22 213.369 185.62 214.489 185.62C215.769 185.62 216.289 186.3 216.289 187.14V187.72H213.969C211.069 187.72 209.769 189.06 209.769 190.94C209.769 192.78 211.089 194.18 213.409 194.18ZM214.049 192.06C212.969 192.06 212.429 191.54 212.429 190.82C212.429 190.08 212.989 189.58 214.169 189.58H216.289V190.14C216.289 191.18 215.449 192.06 214.049 192.06ZM225.468 194H227.428V191.66H226.228C225.308 191.66 224.888 191.24 224.888 190.26V185.88H227.388V183.6H224.888V180.86H222.308V183.6H220.508V185.88H222.208V190.84C222.208 192.68 223.168 194 225.468 194ZM233.288 194.18C234.708 194.18 235.668 193.6 236.248 192.82H236.328L236.528 194H238.928V183.6H236.248V189.36C236.248 190.84 235.388 191.74 234.108 191.74C232.768 191.74 232.188 190.96 232.188 189.66V183.6H229.508V190.42C229.508 192.72 230.988 194.18 233.288 194.18ZM245.09 194.18C247.61 194.18 249.51 193.02 249.51 190.94C249.51 188.88 248.15 188.12 246.47 187.78L244.57 187.44C243.91 187.3 243.51 187.02 243.51 186.5C243.51 185.94 244.09 185.56 244.99 185.56C246.09 185.56 246.63 186.16 246.63 186.88H249.27C249.27 184.9 247.63 183.42 245.03 183.42C242.39 183.42 240.89 184.78 240.89 186.48C240.89 188.4 242.25 189.32 243.93 189.64L245.61 189.96C246.43 190.12 246.81 190.44 246.81 190.96C246.81 191.5 246.27 191.92 245.09 191.92C243.87 191.92 243.25 191.3 243.25 190.5H240.57C240.63 192.68 242.07 194.18 245.09 194.18Z" fill="#41484A"/>
<path d="M111.41 226.126C113.678 226.126 115.078 225.062 115.078 223.312C115.078 221.814 114.112 220.876 112.292 220.498L110.962 220.218C109.926 219.994 109.296 219.56 109.296 218.762C109.296 217.656 110.136 217.194 111.396 217.194C112.908 217.194 113.608 217.922 113.664 218.986H114.91C114.896 217.25 113.524 216.074 111.424 216.074C109.254 216.074 108.022 217.11 108.022 218.762C108.022 220.26 108.932 221.044 110.626 221.408L112.054 221.716C113.118 221.94 113.804 222.36 113.804 223.312C113.804 224.46 112.964 225.02 111.41 225.02C109.87 225.02 109.016 224.278 108.946 223.06H107.7C107.756 224.908 109.03 226.126 111.41 226.126ZM119.486 226H120.55V224.964H119.71C119.066 224.964 118.772 224.67 118.772 223.984V219.84H120.522V218.846H118.772V216.928H117.624V218.846H116.406V219.84H117.596V224.082C117.596 225.272 118.072 226 119.486 226ZM124.37 226.126C125.378 226.126 126.176 225.72 126.61 224.992H126.666L126.75 226H127.744V221.184C127.744 219.826 126.778 218.72 124.944 218.72C123.376 218.72 122.228 219.63 122.228 221.002H123.362C123.376 220.316 123.894 219.728 124.944 219.728C126.106 219.728 126.596 220.414 126.596 221.212V221.674H124.832C122.732 221.674 121.878 222.71 121.878 223.914C121.878 225.16 122.816 226.126 124.37 226.126ZM124.58 225.146C123.544 225.146 123.068 224.614 123.068 223.9C123.068 223.06 123.67 222.612 124.832 222.612H126.596V223.228C126.596 224.264 125.798 225.146 124.58 225.146ZM129.005 218.846V218.986L131.875 225.902L131.889 225.944L130.671 229.066V229.206H131.861L135.823 218.986V218.846H134.591L132.491 224.46H132.435L130.265 218.846H129.005ZM143.931 226.112C145.037 226.112 145.765 225.594 146.143 224.866H146.199L146.297 226H147.319V218.846H146.143V222.78C146.143 224.222 145.443 225.062 144.253 225.062C143.119 225.062 142.601 224.418 142.601 223.298V218.846H141.425V223.48C141.425 225.118 142.349 226.112 143.931 226.112ZM149.699 229.206H150.875V225.006H150.931C151.309 225.636 152.023 226.126 153.087 226.126C155.103 226.126 156.111 224.544 156.125 222.43C156.111 220.12 154.963 218.72 153.087 218.72C152.023 218.72 151.309 219.21 150.931 219.84H150.875L150.721 218.846H149.699V229.206ZM152.891 225.076C151.463 225.076 150.847 223.844 150.847 222.43C150.847 221.002 151.463 219.77 152.891 219.77C154.375 219.77 154.935 220.988 154.935 222.43C154.935 223.858 154.375 225.076 152.891 225.076ZM160.558 226.126C161.622 226.126 162.336 225.636 162.714 225.006H162.77L162.924 226H163.946V215.64H162.77V219.84H162.714C162.336 219.21 161.622 218.72 160.558 218.72C158.542 218.72 157.534 220.302 157.52 222.416C157.534 224.726 158.682 226.126 160.558 226.126ZM160.754 225.076C159.27 225.076 158.71 223.858 158.71 222.416C158.71 220.988 159.27 219.77 160.754 219.77C162.182 219.77 162.798 221.002 162.798 222.416C162.798 223.844 162.182 225.076 160.754 225.076ZM168.256 226.126C169.264 226.126 170.062 225.72 170.496 224.992H170.552L170.636 226H171.63V221.184C171.63 219.826 170.664 218.72 168.83 218.72C167.262 218.72 166.114 219.63 166.114 221.002H167.248C167.262 220.316 167.78 219.728 168.83 219.728C169.992 219.728 170.482 220.414 170.482 221.212V221.674H168.718C166.618 221.674 165.764 222.71 165.764 223.914C165.764 225.16 166.702 226.126 168.256 226.126ZM168.466 225.146C167.43 225.146 166.954 224.614 166.954 223.9C166.954 223.06 167.556 222.612 168.718 222.612H170.482V223.228C170.482 224.264 169.684 225.146 168.466 225.146ZM176.388 226H177.452V224.964H176.612C175.968 224.964 175.674 224.67 175.674 223.984V219.84H177.424V218.846H175.674V216.928H174.526V218.846H173.308V219.84H174.498V224.082C174.498 225.272 174.974 226 176.388 226ZM182.028 226.126C183.554 226.126 184.814 225.244 185.01 223.928H183.834C183.638 224.684 182.966 225.076 182.028 225.076C180.698 225.076 180.012 224.138 180.012 222.78H185.108V222.206C185.108 220.218 184.03 218.72 182.014 218.72C179.802 218.72 178.78 220.358 178.78 222.43C178.78 224.53 179.914 226.126 182.028 226.126ZM180.026 221.8C180.068 220.68 180.67 219.77 182.014 219.77C183.288 219.77 183.89 220.666 183.89 221.8H180.026ZM189.543 226.126C190.607 226.126 191.321 225.636 191.699 225.006H191.755L191.909 226H192.931V215.64H191.755V219.84H191.699C191.321 219.21 190.607 218.72 189.543 218.72C187.527 218.72 186.519 220.302 186.505 222.416C186.519 224.726 187.667 226.126 189.543 226.126ZM189.739 225.076C188.255 225.076 187.695 223.858 187.695 222.416C187.695 220.988 188.255 219.77 189.739 219.77C191.167 219.77 191.783 221.002 191.783 222.416C191.783 223.844 191.167 225.076 189.739 225.076ZM201.438 226.126C202.446 226.126 203.244 225.72 203.678 224.992H203.734L203.818 226H204.812V221.184C204.812 219.826 203.846 218.72 202.012 218.72C200.444 218.72 199.296 219.63 199.296 221.002H200.43C200.444 220.316 200.962 219.728 202.012 219.728C203.174 219.728 203.664 220.414 203.664 221.212V221.674H201.9C199.8 221.674 198.946 222.71 198.946 223.914C198.946 225.16 199.884 226.126 201.438 226.126ZM201.648 225.146C200.612 225.146 200.136 224.614 200.136 223.9C200.136 223.06 200.738 222.612 201.9 222.612H203.664V223.228C203.664 224.264 202.866 225.146 201.648 225.146ZM207.19 226H208.366V222.052C208.366 220.61 209.066 219.77 210.256 219.77C211.39 219.77 211.908 220.414 211.908 221.534V226H213.084V221.352C213.084 219.714 212.16 218.72 210.578 218.72C209.472 218.72 208.744 219.238 208.366 219.966H208.31L208.212 218.846H207.19V226ZM217.939 226.126C219.003 226.126 219.717 225.636 220.095 225.006H220.151L220.305 226H221.327V215.64H220.151V219.84H220.095C219.717 219.21 219.003 218.72 217.939 218.72C215.923 218.72 214.915 220.302 214.901 222.416C214.915 224.726 216.063 226.126 217.939 226.126ZM218.135 225.076C216.651 225.076 216.091 223.858 216.091 222.416C216.091 220.988 216.651 219.77 218.135 219.77C219.563 219.77 220.179 221.002 220.179 222.416C220.179 223.844 219.563 225.076 218.135 225.076ZM227.903 226H229.079V222.528C229.079 220.848 229.695 219.896 231.053 219.896H231.613V218.762H230.969C230.087 218.762 229.373 219.252 229.079 220.05H229.023L228.925 218.846H227.903V226ZM235.772 226.126C237.298 226.126 238.558 225.244 238.754 223.928H237.578C237.382 224.684 236.71 225.076 235.772 225.076C234.442 225.076 233.756 224.138 233.756 222.78H238.852V222.206C238.852 220.218 237.774 218.72 235.758 218.72C233.546 218.72 232.524 220.358 232.524 222.43C232.524 224.53 233.658 226.126 235.772 226.126ZM233.77 221.8C233.812 220.68 234.414 219.77 235.758 219.77C237.032 219.77 237.634 220.666 237.634 221.8H233.77ZM243.175 226.126C244.715 226.126 246.003 225.37 246.003 224.054C246.003 222.822 245.317 222.29 243.973 221.982L242.853 221.772C242.069 221.646 241.607 221.324 241.607 220.764C241.607 220.064 242.209 219.714 243.077 219.714C243.973 219.714 244.645 220.12 244.687 221.03H245.835C245.835 219.602 244.687 218.72 243.077 218.72C241.495 218.72 240.473 219.574 240.473 220.764C240.473 221.814 241.117 222.528 242.293 222.766L243.721 223.032C244.491 223.2 244.813 223.578 244.813 224.054C244.813 224.74 244.183 225.076 243.175 225.076C242.153 225.076 241.425 224.586 241.425 223.634H240.249C240.291 225.202 241.481 226.126 243.175 226.126ZM250.633 226.126C252.873 226.126 253.867 224.474 253.867 222.43C253.867 220.372 252.845 218.72 250.633 218.72C248.421 218.72 247.399 220.372 247.399 222.43C247.399 224.488 248.393 226.126 250.633 226.126ZM250.633 225.076C249.191 225.076 248.589 223.97 248.589 222.43C248.589 220.904 249.177 219.77 250.633 219.77C252.089 219.77 252.677 220.89 252.677 222.43C252.677 223.97 252.089 225.076 250.633 225.076ZM255.821 226H256.997V215.64H255.821V226ZM261.209 226H262.427L265.199 218.986V218.846H263.981L261.867 224.628H261.811L259.613 218.846H258.395V218.986L261.209 226ZM269.227 226.126C270.753 226.126 272.013 225.244 272.209 223.928H271.033C270.837 224.684 270.165 225.076 269.227 225.076C267.897 225.076 267.211 224.138 267.211 222.78H272.307V222.206C272.307 220.218 271.229 218.72 269.213 218.72C267.001 218.72 265.979 220.358 265.979 222.43C265.979 224.53 267.113 226.126 269.227 226.126ZM267.225 221.8C267.267 220.68 267.869 219.77 269.213 219.77C270.487 219.77 271.089 220.666 271.089 221.8H267.225ZM281.135 226.126C283.375 226.126 284.369 224.474 284.369 222.43C284.369 220.372 283.347 218.72 281.135 218.72C278.923 218.72 277.901 220.372 277.901 222.43C277.901 224.488 278.895 226.126 281.135 226.126ZM281.135 225.076C279.693 225.076 279.091 223.97 279.091 222.43C279.091 220.904 279.679 219.77 281.135 219.77C282.591 219.77 283.179 220.89 283.179 222.43C283.179 223.97 282.591 225.076 281.135 225.076ZM286.323 226H287.499V222.052C287.499 220.61 288.199 219.77 289.389 219.77C290.523 219.77 291.041 220.414 291.041 221.534V226H292.217V221.352C292.217 219.714 291.293 218.72 289.711 218.72C288.605 218.72 287.877 219.238 287.499 219.966H287.443L287.345 218.846H286.323V226ZM294.454 222.444H298.738V221.352H294.454V222.444ZM303.495 226H304.559V224.964H303.719C303.075 224.964 302.781 224.67 302.781 223.984V219.84H304.531V218.846H302.781V216.928H301.633V218.846H300.415V219.84H301.605V224.082C301.605 225.272 302.081 226 303.495 226ZM306.448 226H307.624V222.08C307.624 220.638 308.38 219.77 309.542 219.77C310.676 219.77 311.222 220.414 311.222 221.534V226H312.398V221.352C312.398 219.714 311.446 218.72 309.864 218.72C308.758 218.72 308.058 219.238 307.68 219.966H307.624V215.64H306.448V226ZM317.462 226.126C318.988 226.126 320.248 225.244 320.444 223.928H319.268C319.072 224.684 318.4 225.076 317.462 225.076C316.132 225.076 315.446 224.138 315.446 222.78H320.542V222.206C320.542 220.218 319.464 218.72 317.448 218.72C315.236 218.72 314.214 220.358 314.214 222.43C314.214 224.53 315.348 226.126 317.462 226.126ZM315.46 221.8C315.502 220.68 316.104 219.77 317.448 219.77C318.722 219.77 319.324 220.666 319.324 221.8H315.46ZM322.358 222.444H326.642V221.352H322.358V222.444ZM331.722 229.332C333.766 229.332 334.886 228.058 334.886 226.42V218.846H333.864L333.71 219.84H333.654C333.276 219.21 332.562 218.72 331.498 218.72C329.622 218.72 328.474 220.12 328.46 222.43C328.474 224.544 329.482 226.126 331.498 226.126C332.562 226.126 333.276 225.636 333.654 225.006H333.71V226.392C333.71 227.47 333.094 228.324 331.722 228.324C330.406 228.324 329.86 227.596 329.804 226.91H328.67C328.712 228.282 329.888 229.332 331.722 229.332ZM331.694 225.076C330.21 225.076 329.65 223.858 329.65 222.43C329.65 220.988 330.21 219.77 331.694 219.77C333.122 219.77 333.738 221.002 333.738 222.43C333.738 223.844 333.122 225.076 331.694 225.076ZM339.938 226.126C342.178 226.126 343.172 224.474 343.172 222.43C343.172 220.372 342.15 218.72 339.938 218.72C337.726 218.72 336.704 220.372 336.704 222.43C336.704 224.488 337.698 226.126 339.938 226.126ZM339.938 225.076C338.496 225.076 337.894 223.97 337.894 222.43C337.894 220.904 338.482 219.77 339.938 219.77C341.394 219.77 341.982 220.89 341.982 222.43C341.982 223.97 341.394 225.076 339.938 225.076Z" fill="#7C8587"/>
<path d="M107 255C107 249.343 107 246.515 108.757 244.757C110.515 243 113.343 243 119 243H369C374.657 243 377.485 243 379.243 244.757C381 246.515 381 249.343 381 255V265C381 270.657 381 273.485 379.243 275.243C377.485 277 374.657 277 369 277H119C113.343 277 110.515 277 108.757 275.243C107 273.485 107 270.657 107 265V255Z" fill="#4D72F7" fill-opacity="0.08"/>
<path d="M212.544 264H213.96V255.6H212.544V264ZM216 264H217.368V260.58C217.368 259.548 217.92 258.936 218.784 258.936C219.648 258.936 220.044 259.428 220.044 260.292V264H221.412V259.956C221.412 258.564 220.56 257.7 219.18 257.7C218.292 257.7 217.704 258.084 217.368 258.612H217.32L217.212 257.808H216V264ZM226.775 266.748H228.143V263.256H228.191C228.503 263.724 229.055 264.108 229.955 264.108C231.623 264.108 232.535 262.752 232.535 260.904C232.535 258.972 231.551 257.7 229.955 257.7C229.055 257.7 228.503 258.084 228.191 258.552H228.143L227.987 257.808H226.775V266.748ZM229.619 262.896C228.527 262.896 228.095 261.972 228.095 260.904C228.095 259.836 228.527 258.912 229.619 258.912C230.735 258.912 231.155 259.824 231.155 260.904C231.155 261.984 230.747 262.896 229.619 262.896ZM234.008 264H235.328V260.976C235.328 259.716 235.868 258.996 236.912 258.996H237.44V257.724H236.936C236.156 257.724 235.58 258.156 235.328 258.792H235.28L235.16 257.808H234.008V264ZM241.195 264.108C243.163 264.108 244.123 262.716 244.123 260.904C244.123 259.092 243.139 257.7 241.195 257.7C239.251 257.7 238.267 259.092 238.267 260.904C238.267 262.728 239.227 264.108 241.195 264.108ZM241.195 262.896C240.163 262.896 239.659 262.152 239.659 260.904C239.659 259.68 240.151 258.912 241.195 258.912C242.239 258.912 242.731 259.668 242.731 260.904C242.731 262.152 242.239 262.896 241.195 262.896ZM248.088 266.856C249.84 266.856 250.956 265.812 250.956 264.336V257.808H249.744L249.588 258.552H249.54C249.228 258.084 248.664 257.7 247.764 257.7C246.168 257.7 245.196 258.972 245.184 260.904C245.196 262.752 246.096 264.108 247.764 264.108C248.664 264.108 249.228 263.724 249.54 263.256H249.588V264.312C249.588 265.08 249.108 265.68 248.088 265.68C247.2 265.68 246.744 265.188 246.696 264.672H245.364C245.4 265.956 246.468 266.856 248.088 266.856ZM248.1 262.896C246.972 262.896 246.576 261.984 246.576 260.904C246.576 259.824 246.984 258.912 248.1 258.912C249.192 258.912 249.636 259.836 249.636 260.904C249.636 261.972 249.204 262.896 248.1 262.896ZM252.708 264H254.028V260.976C254.028 259.716 254.568 258.996 255.612 258.996H256.14V257.724H255.636C254.856 257.724 254.28 258.156 254.028 258.792H253.98L253.86 257.808H252.708V264ZM259.895 264.108C261.371 264.108 262.415 263.244 262.583 262.116H261.251C261.107 262.62 260.651 262.956 259.895 262.956C258.887 262.956 258.383 262.272 258.383 261.288H262.667V260.712C262.667 259.008 261.683 257.7 259.871 257.7C257.915 257.7 256.967 259.128 256.967 260.904C256.967 262.704 258.011 264.108 259.895 264.108ZM258.395 260.316C258.431 259.512 258.875 258.864 259.871 258.864C260.807 258.864 261.251 259.5 261.263 260.316H258.395ZM266.36 264.108C267.8 264.108 268.928 263.436 268.928 262.236C268.928 261.06 268.208 260.616 267.128 260.388L266.072 260.184C265.556 260.1 265.256 259.884 265.256 259.512C265.256 259.056 265.676 258.804 266.288 258.804C266.996 258.804 267.416 259.164 267.44 259.728H268.784C268.784 258.528 267.8 257.7 266.312 257.7C264.812 257.7 263.924 258.48 263.924 259.5C263.924 260.556 264.632 261.12 265.64 261.324L266.732 261.528C267.296 261.648 267.548 261.888 267.548 262.236C267.548 262.668 267.14 262.932 266.36 262.932C265.58 262.932 265.1 262.548 265.1 261.936H263.732C263.768 263.244 264.692 264.108 266.36 264.108ZM272.609 264.108C274.049 264.108 275.177 263.436 275.177 262.236C275.177 261.06 274.457 260.616 273.377 260.388L272.321 260.184C271.805 260.1 271.505 259.884 271.505 259.512C271.505 259.056 271.925 258.804 272.537 258.804C273.245 258.804 273.665 259.164 273.689 259.728H275.033C275.033 258.528 274.049 257.7 272.561 257.7C271.061 257.7 270.173 258.48 270.173 259.5C270.173 260.556 270.881 261.12 271.889 261.324L272.981 261.528C273.545 261.648 273.797 261.888 273.797 262.236C273.797 262.668 273.389 262.932 272.609 262.932C271.829 262.932 271.349 262.548 271.349 261.936H269.981C270.017 263.244 270.941 264.108 272.609 264.108Z" fill="#355EF1"/>
<path d="M108.1 317.219H109.057V314.425H110.938C112.489 314.425 113.479 313.424 113.479 311.95C113.479 310.52 112.511 309.519 110.938 309.519H108.1V317.219ZM109.057 313.545V310.388H110.817C111.851 310.388 112.489 310.96 112.489 311.95C112.489 312.984 111.884 313.545 110.817 313.545H109.057ZM115.354 317.219H116.278V314.491C116.278 313.171 116.762 312.423 117.829 312.423H118.269V311.532H117.763C117.07 311.532 116.509 311.917 116.278 312.544H116.234L116.157 311.598H115.354V317.219ZM121.746 317.318C123.506 317.318 124.287 316.02 124.287 314.414C124.287 312.797 123.484 311.499 121.746 311.499C120.008 311.499 119.205 312.797 119.205 314.414C119.205 316.031 119.986 317.318 121.746 317.318ZM121.746 316.493C120.613 316.493 120.14 315.624 120.14 314.414C120.14 313.215 120.602 312.324 121.746 312.324C122.89 312.324 123.352 313.204 123.352 314.414C123.352 315.624 122.89 316.493 121.746 316.493ZM127.321 317.219H128.278L130.456 311.708V311.598H129.499L127.838 316.141H127.794L126.067 311.598H125.11V311.708L127.321 317.219ZM131.836 310.432H132.87V309.354H131.836V310.432ZM131.891 317.219H132.815V311.598H131.891V317.219ZM136.85 317.318C137.686 317.318 138.247 316.933 138.544 316.438H138.588L138.709 317.219H139.512V309.079H138.588V312.379H138.544C138.247 311.884 137.686 311.499 136.85 311.499C135.266 311.499 134.474 312.742 134.463 314.403C134.474 316.218 135.376 317.318 136.85 317.318ZM137.004 316.493C135.838 316.493 135.398 315.536 135.398 314.403C135.398 313.281 135.838 312.324 137.004 312.324C138.126 312.324 138.61 313.292 138.61 314.403C138.61 315.525 138.126 316.493 137.004 316.493ZM143.713 317.318C144.912 317.318 145.902 316.625 146.056 315.591H145.132C144.978 316.185 144.45 316.493 143.713 316.493C142.668 316.493 142.129 315.756 142.129 314.689H146.133V314.238C146.133 312.676 145.286 311.499 143.702 311.499C141.964 311.499 141.161 312.786 141.161 314.414C141.161 316.064 142.052 317.318 143.713 317.318ZM142.14 313.919C142.173 313.039 142.646 312.324 143.702 312.324C144.703 312.324 145.176 313.028 145.176 313.919H142.14ZM147.89 317.219H148.814V314.491C148.814 313.171 149.298 312.423 150.365 312.423H150.805V311.532H150.299C149.606 311.532 149.045 311.917 148.814 312.544H148.77L148.693 311.598H147.89V317.219Z" fill="#575F61"/>
<path fill-rule="evenodd" clip-rule="evenodd" d="M289.711 319.368H301.85L295.781 308.839L289.711 319.368ZM281.749 323.156C281.023 321.902 281.021 320.355 281.745 319.1L291.561 302.071C292.285 300.815 293.625 300.041 295.074 300.041H296.487C297.937 300.041 299.276 300.815 300 302.071L309.816 319.1C310.54 320.355 310.539 321.902 309.813 323.156L309.108 324.374C308.383 325.626 307.046 326.397 305.599 326.397H285.963C284.516 326.397 283.179 325.626 282.454 324.374L281.749 323.156Z" fill="#2684FF"/>
<path d="M321.566 319.219H323.672V313.999H329.36V312.091H323.672V308.527H329.936V306.619H321.566V319.219ZM332.177 319.219H334.229V305.899H332.177V319.219ZM340.457 319.381C342.671 319.381 344.237 318.085 344.489 316.393H342.491C342.275 317.149 341.591 317.653 340.457 317.653C338.945 317.653 338.189 316.627 338.189 315.151H344.615V314.287C344.615 311.731 343.139 309.769 340.421 309.769C337.487 309.769 336.065 311.911 336.065 314.575C336.065 317.275 337.631 319.381 340.457 319.381ZM338.207 313.693C338.261 312.487 338.927 311.515 340.421 311.515C341.825 311.515 342.491 312.469 342.509 313.693H338.207ZM350.424 319.381C352.638 319.381 354.204 318.085 354.456 316.393H352.458C352.242 317.149 351.558 317.653 350.424 317.653C348.912 317.653 348.156 316.627 348.156 315.151H354.582V314.287C354.582 311.731 353.106 309.769 350.388 309.769C347.454 309.769 346.032 311.911 346.032 314.575C346.032 317.275 347.598 319.381 350.424 319.381ZM348.174 313.693C348.228 312.487 348.894 311.515 350.388 311.515C351.792 311.515 352.458 312.469 352.476 313.693H348.174ZM360.139 319.219H361.723V317.419H360.643C359.815 317.419 359.437 317.041 359.437 316.159V311.677H361.687V309.931H359.437V307.465H357.475V309.931H355.855V311.677H357.385V316.519C357.385 318.121 358.159 319.219 360.139 319.219ZM375.301 306.619H372.655L368.155 319.039V319.219H370.387L371.377 316.303H376.525L377.515 319.219H379.819V319.039L375.301 306.619ZM372.007 314.449L373.915 308.833H373.987L375.895 314.449H372.007Z" fill="#575F61"/>
<g clip-path="url(#clip0_5135_39951)">
<rect opacity="0.1" x="107" y="338.938" width="49" height="5" rx="2" fill="#575F61"/>
<rect opacity="0.25" x="285" y="338.438" width="96" height="6" rx="2" fill="#575F61"/>
<rect x="107" y="365.438" width="274" height="1" fill="#F0F4F5"/>
</g>
<g clip-path="url(#clip1_5135_39951)">
<rect opacity="0.1" x="107" y="384.938" width="38" height="5" rx="2" fill="#575F61"/>
<rect opacity="0.25" x="319" y="384.438" width="62" height="6" rx="2" fill="#575F61"/>
<rect x="107" y="408.438" width="274" height="1" fill="#F0F4F5"/>
</g>
<g clip-path="url(#clip2_5135_39951)">
<rect opacity="0.1" x="107" y="427.938" width="38" height="5" rx="2" fill="#575F61"/>
<rect opacity="0.25" x="319" y="427.438" width="62" height="6" rx="2" fill="#575F61"/>
</g>
<rect x="87.5284" y="155.528" width="312.943" height="297.381" rx="9.47155" stroke="#EAEBEF" stroke-width="1.05689"/>
<rect x="166.528" y="0.528446" width="305.943" height="129.943" rx="9.47155" fill="white"/>
<rect x="189" y="26.5" width="18" height="18" rx="5" fill="#1298A3" stroke="#1298A3" stroke-width="1.5" stroke-linecap="round" stroke-linejoin="round"/>
<path d="M194.999 34.5L198 31.5L201.001 34.5" stroke="white" stroke-width="1.5" stroke-linecap="round" stroke-linejoin="round"/>
<path d="M198 39.5L198 31.5" stroke="white" stroke-width="1.5" stroke-linecap="round" stroke-linejoin="round"/>
<path d="M222.632 37H224.55L226.454 29.748H226.51L228.372 37H230.29L232.642 27.34V27.2H230.948L229.338 34.606H229.282L227.35 27.2H225.586L223.682 34.606H223.626L221.988 27.2H220.294V27.34L222.632 37ZM235.521 37.126C236.487 37.126 237.229 36.762 237.649 36.146H237.705L237.817 37H239.217V32.184C239.217 30.756 238.139 29.65 236.235 29.65C234.415 29.65 233.337 30.672 233.337 32.044H234.849C234.863 31.456 235.325 30.966 236.207 30.966C237.215 30.966 237.635 31.526 237.635 32.198V32.632H235.955C233.883 32.632 233.001 33.612 233.001 34.872C233.001 36.146 233.925 37.126 235.521 37.126ZM235.885 35.852C235.017 35.852 234.597 35.404 234.597 34.816C234.597 34.172 235.073 33.78 236.025 33.78H237.635V34.27C237.635 35.124 236.949 35.852 235.885 35.852ZM241.12 37H242.66V33.472C242.66 32.002 243.29 31.162 244.508 31.162H245.124V29.678H244.536C243.626 29.678 242.954 30.182 242.66 30.924H242.604L242.464 29.776H241.12V37ZM249.364 37.126C251.086 37.126 252.304 36.118 252.5 34.802H250.946C250.778 35.39 250.246 35.782 249.364 35.782C248.188 35.782 247.6 34.984 247.6 33.836H252.598V33.164C252.598 31.176 251.45 29.65 249.336 29.65C247.054 29.65 245.948 31.316 245.948 33.388C245.948 35.488 247.166 37.126 249.364 37.126ZM247.614 32.702C247.656 31.764 248.174 31.008 249.336 31.008C250.428 31.008 250.946 31.75 250.96 32.702H247.614ZM254.176 37H255.772V33.024C255.772 31.82 256.472 31.092 257.466 31.092C258.474 31.092 258.95 31.666 258.95 32.674V37H260.546V32.282C260.546 30.644 259.538 29.65 257.928 29.65C256.892 29.65 256.22 30.098 255.828 30.714H255.772V26.64H254.176V37ZM265.388 37.126C267.684 37.126 268.804 35.502 268.804 33.388C268.804 31.274 267.656 29.65 265.388 29.65C263.12 29.65 261.972 31.274 261.972 33.388C261.972 35.516 263.092 37.126 265.388 37.126ZM265.388 35.712C264.184 35.712 263.596 34.844 263.596 33.388C263.596 31.96 264.17 31.064 265.388 31.064C266.606 31.064 267.18 31.946 267.18 33.388C267.18 34.844 266.606 35.712 265.388 35.712ZM272.897 37.112C273.933 37.112 274.619 36.678 275.011 36.048H275.067L275.193 37H276.607V29.776H275.011V33.766C275.011 34.97 274.367 35.684 273.359 35.684C272.351 35.684 271.889 35.096 271.889 34.088V29.776H270.293V34.48C270.293 36.118 271.287 37.112 272.897 37.112ZM281.089 37.126C282.769 37.126 284.085 36.342 284.085 34.942C284.085 33.57 283.245 33.052 281.985 32.786L280.753 32.548C280.151 32.45 279.801 32.198 279.801 31.764C279.801 31.232 280.291 30.938 281.005 30.938C281.831 30.938 282.321 31.358 282.349 32.016H283.917C283.917 30.616 282.769 29.65 281.033 29.65C279.283 29.65 278.247 30.56 278.247 31.75C278.247 32.982 279.073 33.64 280.249 33.878L281.523 34.116C282.181 34.256 282.475 34.536 282.475 34.942C282.475 35.446 281.999 35.754 281.089 35.754C280.179 35.754 279.619 35.306 279.619 34.592H278.023C278.065 36.118 279.143 37.126 281.089 37.126ZM288.589 37.126C290.311 37.126 291.529 36.118 291.725 34.802H290.171C290.003 35.39 289.471 35.782 288.589 35.782C287.413 35.782 286.825 34.984 286.825 33.836H291.823V33.164C291.823 31.176 290.675 29.65 288.561 29.65C286.279 29.65 285.173 31.316 285.173 33.388C285.173 35.488 286.391 37.126 288.589 37.126ZM286.839 32.702C286.881 31.764 287.399 31.008 288.561 31.008C289.653 31.008 290.171 31.75 290.185 32.702H286.839ZM300.597 37.126C302.851 37.126 304.041 35.712 304.041 33.738C304.041 31.918 302.823 30.546 300.849 30.546C299.967 30.546 299.337 30.84 298.945 31.218H298.889L299.071 28.642H303.453V27.2H297.727L297.349 32.744H298.945C299.309 32.254 299.799 31.89 300.611 31.89C301.871 31.89 302.417 32.772 302.417 33.766C302.417 34.802 301.913 35.698 300.597 35.698C299.421 35.698 298.847 34.97 298.805 34.172H297.195C297.195 35.81 298.539 37.126 300.597 37.126Z" fill="#575F61"/>
<rect opacity="0.1" x="220" y="44" width="97" height="5" rx="2" fill="#575F61"/>
<rect opacity="0.25" x="375" y="31" width="40" height="9" rx="2" fill="#575F61"/>
<path d="M437 33.5L441 37.5L445 33.5" stroke="#08323C" stroke-width="1.5" stroke-linecap="round" stroke-linejoin="round"/>
<rect x="186" y="65" width="267" height="1" fill="#F0F4F5"/>
<rect x="207" y="104.5" width="18" height="18" rx="5" transform="rotate(-180 207 104.5)" fill="#355EF1" stroke="#355EF1" stroke-width="1.5" stroke-linecap="round" stroke-linejoin="round"/>
<path d="M201.001 96.5L198 99.5L194.999 96.5" stroke="white" stroke-width="1.5" stroke-linecap="round" stroke-linejoin="round"/>
<path d="M198 91.5L198 99.5" stroke="white" stroke-width="1.5" stroke-linecap="round" stroke-linejoin="round"/>
<path d="M223.094 97H224.704V87.2H223.08L220.644 89.048V90.616H220.784L223.038 88.894H223.094V97ZM226.703 97H233.185V95.544H228.873V95.488L231.281 92.912C232.485 91.624 233.031 90.854 233.031 89.79C233.031 88.194 231.799 87.032 229.881 87.032C227.907 87.032 226.675 88.236 226.675 90.126H228.257C228.257 89.006 228.915 88.46 229.881 88.46C230.875 88.46 231.393 89.02 231.393 89.846C231.393 90.616 230.987 91.092 229.993 92.17L226.703 95.712V97ZM234.674 92.254H236.522V90.434H234.674V92.254ZM234.674 97H236.522V95.18H234.674V97ZM241.509 97.126C243.805 97.126 244.939 95.768 244.939 94.144C244.939 93.01 244.253 92.128 243.217 91.806V91.75C244.113 91.414 244.631 90.728 244.631 89.636C244.631 88.054 243.245 87.032 241.467 87.032C239.479 87.032 238.219 88.138 238.177 89.972H239.787C239.801 89.076 240.319 88.446 241.425 88.446C242.489 88.446 242.979 89.048 242.979 89.776C242.979 90.63 242.363 91.19 241.327 91.19H240.501V92.604H241.355C242.643 92.604 243.287 93.206 243.287 94.172C243.287 95.068 242.685 95.712 241.495 95.712C240.165 95.712 239.633 94.942 239.633 94.13H238.037C238.037 96.034 239.479 97.126 241.509 97.126ZM250.126 97.126C252.716 97.126 253.724 94.998 253.724 92.072C253.724 89.16 252.716 87.032 250.126 87.032C247.536 87.032 246.528 89.16 246.528 92.072C246.528 94.998 247.536 97.126 250.126 97.126ZM250.126 95.698C248.586 95.698 248.166 94.214 248.166 92.072C248.166 89.944 248.6 88.46 250.126 88.46C251.652 88.46 252.086 89.944 252.086 92.072C252.086 94.214 251.666 95.698 250.126 95.698ZM259.814 97H261.452V93.57H263.79C265.764 93.57 267.024 92.226 267.024 90.35C267.024 88.53 265.792 87.2 263.79 87.2H259.814V97ZM261.452 92.086V88.67H263.51C264.644 88.67 265.344 89.272 265.344 90.35C265.344 91.484 264.686 92.086 263.51 92.086H261.452ZM268.906 97H270.488V89.762H270.544L273.778 95.348H273.918L277.152 89.804H277.208V97H278.79V87.2H276.956L273.89 92.548H273.834L270.768 87.2H268.906V97ZM288.224 86.374H286.992C285.774 87.788 284.626 90 284.626 92.856C284.626 95.656 285.774 97.924 286.992 99.338H288.224V99.198C287.188 97.84 286.124 95.656 286.124 92.856C286.124 90.056 287.188 87.872 288.224 86.514V86.374ZM290.411 97H291.993V89.762H292.049L295.283 95.348H295.423L298.657 89.804H298.713V97H300.295V87.2H298.461L295.395 92.548H295.339L292.273 87.2H290.411V97ZM305.922 97.126C308.484 97.126 309.772 95.978 309.772 94.228C309.772 92.548 308.624 91.694 306.804 91.316L305.474 91.036C304.494 90.826 304.046 90.434 304.046 89.818C304.046 89.006 304.69 88.558 305.908 88.558C307.266 88.558 307.882 89.216 307.938 90.112H309.604C309.59 88.306 308.092 87.074 305.936 87.074C303.71 87.074 302.352 88.166 302.352 89.818C302.352 91.47 303.444 92.226 305.138 92.59L306.566 92.898C307.546 93.108 308.078 93.486 308.078 94.256C308.078 95.166 307.392 95.656 305.922 95.656C304.592 95.656 303.78 95.026 303.696 93.878H302.03C302.114 95.838 303.444 97.126 305.922 97.126ZM313.675 97H315.327V88.684H318.281V87.2H310.721V88.684H313.675V97ZM320.841 86.374H319.609V86.514C320.645 87.872 321.709 90.056 321.709 92.856C321.709 95.656 320.645 97.84 319.609 99.198V99.338H320.841C322.059 97.924 323.207 95.656 323.207 92.856C323.207 90 322.059 87.788 320.841 86.374Z" fill="#575F61"/>
<rect opacity="0.1" x="220" y="104" width="89" height="5" rx="2" fill="#575F61"/>
<rect opacity="0.25" x="375" y="91" width="40" height="9" rx="2" fill="#575F61"/>
<path d="M437 93.5L441 97.5L445 93.5" stroke="#08323C" stroke-width="1.5" stroke-linecap="round" stroke-linejoin="round"/>
<rect x="166.528" y="0.528446" width="305.943" height="129.943" rx="9.47155" stroke="#EAEBEF" stroke-width="1.05689"/>
<g filter="url(#filter1_d_5135_39951)">
<rect x="426" y="156" width="46" height="46" rx="12" fill="#08323C"/>
</g>
<rect x="425" y="155" width="48" height="48" rx="12" fill="#08323C"/>
<path fill-rule="evenodd" clip-rule="evenodd" d="M455 187H443C441.895 187 441 186.105 441 185V173C441 171.895 441.895 171 443 171H455C456.105 171 457 171.895 457 173V185C457 186.105 456.105 187 455 187Z" stroke="white" stroke-width="1.5" stroke-linecap="round" stroke-linejoin="round"/>
<path d="M449 175V183" stroke="white" stroke-width="1.5" stroke-linecap="round" stroke-linejoin="round"/>
<path d="M453 179H445" stroke="white" stroke-width="1.5" stroke-linecap="round" stroke-linejoin="round"/>
<defs>
<filter id="filter0_d_5135_39951" x="59" y="157" width="370" height="355" filterUnits="userSpaceOnUse" color-interpolation-filters="sRGB">
<feFlood flood-opacity="0" result="BackgroundImageFix"/>
<feColorMatrix in="SourceAlpha" type="matrix" values="0 0 0 0 0 0 0 0 0 0 0 0 0 0 0 0 0 0 127 0" result="hardAlpha"/>
<feOffset dy="30"/>
<feGaussianBlur stdDeviation="15"/>
<feComposite in2="hardAlpha" operator="out"/>
<feColorMatrix type="matrix" values="0 0 0 0 0.0980392 0 0 0 0 0.117647 0 0 0 0 0.270588 0 0 0 0.1 0"/>
<feBlend mode="normal" in2="BackgroundImageFix" result="effect1_dropShadow_5135_39951"/>
<feBlend mode="normal" in="SourceGraphic" in2="effect1_dropShadow_5135_39951" result="shape"/>
</filter>
<filter id="filter1_d_5135_39951" x="410" y="148" width="78" height="78" filterUnits="userSpaceOnUse" color-interpolation-filters="sRGB">
<feFlood flood-opacity="0" result="BackgroundImageFix"/>
<feColorMatrix in="SourceAlpha" type="matrix" values="0 0 0 0 0 0 0 0 0 0 0 0 0 0 0 0 0 0 127 0" result="hardAlpha"/>
<feOffset dy="8"/>
<feGaussianBlur stdDeviation="8"/>
<feComposite in2="hardAlpha" operator="out"/>
<feColorMatrix type="matrix" values="0 0 0 0 0.0313726 0 0 0 0 0.196078 0 0 0 0 0.235294 0 0 0 0.12 0"/>
<feBlend mode="normal" in2="BackgroundImageFix" result="effect1_dropShadow_5135_39951"/>
<feBlend mode="normal" in="SourceGraphic" in2="effect1_dropShadow_5135_39951" result="shape"/>
</filter>
<clipPath id="clip0_5135_39951">
<rect width="274" height="37" fill="white" transform="translate(107 329.438)"/>
</clipPath>
<clipPath id="clip1_5135_39951">
<rect width="274" height="43" fill="white" transform="translate(107 366.438)"/>
</clipPath>
<clipPath id="clip2_5135_39951">
<rect width="274" height="24" fill="white" transform="translate(107 409.438)"/>
</clipPath>
</defs>
</svg>
