<svg width="157" height="32" viewBox="0 0 157 32" fill="none" xmlns="http://www.w3.org/2000/svg">
<g clip-path="url(#clip0_4461_48862)">
<path d="M6.70505 31.3539H0.00249199V10.178C-0.0184397 8.16478 0.570877 6.19246 1.69283 4.52077C2.81644 2.84604 4.41928 1.54934 6.29173 0.80026C8.15041 0.0097317 10.204 -0.203124 12.1853 0.189386C14.1653 0.581315 15.9812 1.5609 17.3962 3.00035L24.1822 9.75464L19.4334 14.4864L12.6433 7.73505C12.1632 7.2411 11.5448 6.90412 10.8695 6.76848C10.1936 6.63321 9.49264 6.70556 8.85868 6.97602C8.21894 7.2295 7.67118 7.67108 7.28771 8.24245C6.90497 8.81271 6.70481 9.48594 6.71386 10.1727L6.70505 31.3539Z" fill="white" fill-opacity="0.95"/>
<path d="M25.6029 31.9999C24.2731 31.9958 22.9572 31.7284 21.7313 31.2132C20.5066 30.6989 19.3961 29.9467 18.4641 29.0002L11.6792 22.2424L16.4257 17.513L23.2129 24.2685C23.6932 24.7618 24.3116 25.0981 24.9867 25.2333C25.6624 25.3693 26.3635 25.2973 26.9975 25.0269C27.6371 24.7728 28.1846 24.3309 28.5679 23.7593C28.9505 23.1886 29.1505 22.515 29.1411 21.8279V0.657227H35.8572V21.8279C35.8781 23.8415 35.2888 25.8141 34.1669 27.4863C33.0429 29.1614 31.44 30.4586 29.5674 31.2085C28.3105 31.7295 26.9634 31.9983 25.6029 31.9999Z" fill="white" fill-opacity="0.95"/>
</g>
<path fill-rule="evenodd" clip-rule="evenodd" d="M137.044 0V30.67L137.065 30.6827H142.171V17.501C142.162 16.8719 142.298 16.2491 142.566 15.6797C142.83 15.1253 143.196 14.6256 143.646 14.2068C144.116 13.7716 144.668 13.4335 145.27 13.2122C145.929 12.972 146.626 12.853 147.327 12.8612C148.133 12.8094 148.938 12.9737 149.658 13.3369C150.305 13.6936 150.805 14.2653 151.072 14.9522C151.402 15.8332 151.558 16.7696 151.529 17.7096V30.6827H156.635V17.3356C156.633 15.3464 156.349 13.6887 155.782 12.3626C155.284 11.1199 154.393 10.0725 153.245 9.37878C152.122 8.71571 150.729 8.3842 149.066 8.3842C147.889 8.38704 146.726 8.64116 145.655 9.1295C144.583 9.60172 143.609 10.2695 142.783 11.0984C142.541 11.3361 142.319 11.5924 142.119 11.8644V0H137.044ZM57.8928 1.6712V30.67L63.2538 30.6674V19.4342C63.2538 19.0476 63.2487 18.6431 63.2334 18.2132C63.2181 17.7833 63.19 17.3077 63.1492 16.7811C63.1083 16.2571 63.0598 15.6017 63.0037 14.8148C62.9475 14.0279 62.8709 13.0884 62.7739 11.9963L62.5945 9.98059L78.3106 30.6674H83.2607V1.66865H77.8996V10.3709C77.8996 11.5597 77.9132 12.6857 77.9405 13.749C77.9677 14.814 78.0026 15.8315 78.0451 16.8015C78.0877 17.7715 78.143 18.6974 78.2111 19.5793C78.2826 20.4594 78.3591 21.3073 78.4408 22.123C78.4644 22.3583 78.4892 22.5919 78.5153 22.8236L62.7586 1.6712H57.8928ZM93.5386 29.5914C94.9817 30.5788 96.6946 31.1001 98.4451 31.0847C99.4583 31.0891 100.464 30.9187 101.419 30.581C102.321 30.2642 103.175 29.825 103.957 29.276C104.627 28.8092 105.224 28.2453 105.726 27.6032V30.665H110.924V8.82172H105.767V11.8724C105.338 11.2363 104.819 10.6638 104.227 10.1725C103.513 9.57943 102.695 9.12242 101.815 8.82427C100.837 8.49785 99.8109 8.33704 98.7796 8.34856C96.9551 8.32336 95.1626 8.82715 93.6202 9.79855C92.0734 10.7905 90.8237 12.1798 90.0028 13.8202C89.0909 15.6344 88.6345 17.6421 88.6728 19.6708C88.6345 21.6995 89.0909 23.7072 90.0028 25.5214C90.8154 27.1553 92.0323 28.5559 93.5386 29.5914ZM103.022 25.6945C102.076 26.2852 100.976 26.5884 99.8594 26.5669C98.7494 26.5905 97.6571 26.287 96.7194 25.6945C95.8045 25.0997 95.0771 24.2593 94.621 23.2703C94.1019 22.1475 93.8452 20.922 93.8704 19.6861C93.8466 18.4699 94.1034 17.2646 94.621 16.163C95.0819 15.1825 95.8087 14.3498 96.7194 13.7591C97.6578 13.1686 98.7498 12.8661 99.8594 12.8892C100.976 12.8682 102.075 13.1703 103.022 13.7591C103.945 14.3483 104.686 15.1803 105.164 16.163C105.693 17.2614 105.955 18.4682 105.93 19.6861C105.957 20.9238 105.694 22.1507 105.164 23.2703C104.691 24.2616 103.949 25.1013 103.022 25.6945ZM124.193 31.0846C122.405 31.1136 120.629 30.7822 118.973 30.1103C117.5 29.5104 116.204 28.5476 115.207 27.3122L118.526 24.453C119.283 25.3393 120.237 26.0363 121.314 26.488C122.344 26.9033 123.445 27.1141 124.556 27.1087C124.987 27.1162 125.417 27.0605 125.832 26.9434C126.188 26.8437 126.52 26.6751 126.81 26.4473C127.076 26.2404 127.296 25.9805 127.456 25.6842C127.61 25.3827 127.688 25.0483 127.683 24.7099C127.695 24.4069 127.633 24.1056 127.502 23.8315C127.372 23.5575 127.178 23.3187 126.935 23.1354C126.524 22.8782 126.085 22.6699 125.626 22.5147C124.874 22.2477 124.106 22.026 123.328 21.8508C122.034 21.5391 120.778 21.0879 119.583 20.5051C118.704 20.0831 117.914 19.4987 117.255 18.783C116.787 18.2649 116.426 17.6598 116.193 17.0024C115.953 16.3094 115.834 15.5807 115.84 14.8478C115.828 13.9302 116.05 13.0245 116.484 12.2151C116.924 11.4167 117.527 10.7185 118.253 10.1648C119.036 9.56531 119.924 9.11516 120.872 8.83694C121.884 8.53197 122.935 8.37851 123.992 8.3816C125.08 8.37833 126.164 8.5177 127.216 8.7962C128.233 9.06356 129.211 9.46029 130.126 9.97654C130.988 10.4615 131.765 11.0846 132.424 11.8208L129.6 14.9267C129.071 14.429 128.493 13.985 127.875 13.6014C127.276 13.2281 126.641 12.9154 125.98 12.6678C125.41 12.4468 124.805 12.3279 124.193 12.3168C123.718 12.3113 123.243 12.3599 122.779 12.4618C122.407 12.5396 122.054 12.6873 121.738 12.8968C121.467 13.0827 121.246 13.3315 121.094 13.6218C120.935 13.937 120.856 14.2864 120.864 14.6393C120.89 14.9655 120.982 15.2831 121.135 15.5728C121.288 15.8631 121.51 16.1119 121.781 16.2977C122.218 16.5569 122.677 16.779 123.152 16.9617C123.923 17.2576 124.716 17.4932 125.523 17.6663C126.696 17.9581 127.838 18.3601 128.934 18.8669C129.746 19.2331 130.48 19.7512 131.096 20.3932C131.611 20.8704 131.997 21.4687 132.22 22.1331C132.449 22.843 132.562 23.5851 132.554 24.3309C132.57 25.5787 132.183 26.7985 131.451 27.8108C130.683 28.8609 129.65 29.6902 128.457 30.2147C127.116 30.8108 125.661 31.1077 124.193 31.0846Z" fill="white" fill-opacity="0.95"/>
<defs>
<clipPath id="clip0_4461_48862">
<rect width="35.8575" height="32" fill="white"/>
</clipPath>
</defs>
</svg>
