<svg width="56" height="56" viewBox="0 0 56 56" fill="none" xmlns="http://www.w3.org/2000/svg">
<path d="M24.0404 15.6263C23.6498 15.2357 23.0167 15.2357 22.6261 15.6263C22.2356 16.0168 22.2356 16.65 22.6261 17.0405L24.0404 15.6263ZM34.9999 28L35.707 28.7071C35.8946 28.5196 35.9999 28.2653 35.9999 28C35.9999 27.7348 35.8946 27.4805 35.707 27.2929L34.9999 28ZM22.6261 38.9596C22.2356 39.3501 22.2356 39.9833 22.6261 40.3738C23.0167 40.7643 23.6498 40.7643 24.0404 40.3738L22.6261 38.9596ZM22.6261 17.0405L34.2928 28.7071L35.707 27.2929L24.0404 15.6263L22.6261 17.0405ZM34.2928 27.2929L22.6261 38.9596L24.0404 40.3738L35.707 28.7071L34.2928 27.2929Z" fill="white"/>
</svg>
