<svg width="56" height="56" viewBox="0 0 56 56" fill="none" xmlns="http://www.w3.org/2000/svg">
<path d="M31.9595 40.3737C32.35 40.7643 32.9832 40.7643 33.3737 40.3737C33.7643 39.9832 33.7643 39.35 33.3737 38.9595L31.9595 40.3737ZM21 28L20.2929 27.2929C20.1053 27.4804 20 27.7347 20 28C20 28.2652 20.1053 28.5195 20.2929 28.7071L21 28ZM33.3737 17.0404C33.7643 16.6499 33.7643 16.0167 33.3737 15.6262C32.9832 15.2357 32.35 15.2357 31.9595 15.6262L33.3737 17.0404ZM33.3737 38.9595L21.7071 27.2929L20.2929 28.7071L31.9595 40.3737L33.3737 38.9595ZM21.7071 28.7071L33.3737 17.0404L31.9595 15.6262L20.2929 27.2929L21.7071 28.7071Z" fill="white"/>
</svg>
