<svg width="122" height="122" viewBox="0 0 122 122" fill="none" xmlns="http://www.w3.org/2000/svg">
<rect width="122" height="122" rx="61" fill="white" fill-opacity="0.6"/>
<circle cx="61" cy="61" r="36" fill="white"/>
<path d="M50 61C50 58.7909 51.7909 57 54 57H57V67H54C51.7909 67 50 65.2091 50 63V61Z" stroke="#08323C" stroke-width="3" stroke-linejoin="round"/>
<path d="M73 63C73 65.2091 71.2091 67 69 67L66 67L66 57L69 57C71.2091 57 73 58.7909 73 61L73 63Z" stroke="#08323C" stroke-width="3" stroke-linejoin="round"/>
<path d="M73 62V56C73 51.5817 69.4183 48 65 48H58C53.5817 48 50 51.5817 50 56V62" stroke="#08323C" stroke-width="3" stroke-linecap="round" stroke-linejoin="round"/>
<path d="M62 74L65 74C69.4183 74 73 70.4183 73 66L73 60" stroke="#08323C" stroke-width="3" stroke-linecap="round" stroke-linejoin="round"/>
</svg>
